SplineFontDB: 3.0
FontName: MerriweatherSans-Light
FullName: Merriweather Sans Light
FamilyName: Merriweather Sans
Weight: Light
Copyright: Copyright (c) 2013, Sorkin Type Co (www.sorkintype.com) with Reserved Font Name 'Merriweather'
Version: 1.002; ttfautohint (v0.93.8-669f) -l 8 -r 24 -G 200 -x 11 -w "gG" -W -c
ItalicAngle: 0
UnderlinePosition: -212
UnderlineWidth: 137
Ascent: 1638
Descent: 410
sfntRevision: 0x00010000
LayerCount: 2
Layer: 0 1 "Back"  1
Layer: 1 1 "Fore"  0
XUID: [1021 631 1661839179 15038898]
FSType: 0
OS2Version: 3
OS2_WeightWidthSlopeOnly: 0
OS2_UseTypoMetrics: 1
CreationTime: 1360957860
ModificationTime: 1360941064
PfmFamily: 17
TTFWeight: 300
TTFWidth: 5
LineGap: 0
VLineGap: 0
Panose: 2 0 5 3 6 0 0 2 0 4
OS2TypoAscent: 2000
OS2TypoAOffset: 0
OS2TypoDescent: -640
OS2TypoDOffset: 0
OS2TypoLinegap: 0
OS2WinAscent: 2000
OS2WinAOffset: 0
OS2WinDescent: 640
OS2WinDOffset: 0
HheadAscent: 2000
HheadAOffset: 0
HheadDescent: -640
HheadDOffset: 0
OS2SubXSize: -13867
OS2SubYSize: -17578
OS2SubXOff: 0
OS2SubYOff: 10342
OS2SupXSize: -13867
OS2SupYSize: -17578
OS2SupXOff: 0
OS2SupYOff: -30333
OS2StrikeYSize: 137
OS2StrikeYPos: 771
OS2FamilyClass: 768
OS2Vendor: 'STC '
OS2CodePages: 20000093.00000000
OS2UnicodeRanges: a00000af.5000204a.00000000.00000000
Lookup: 1 0 0 "'aalt' Access All Alternates in Latin lookup 0"  {"'aalt' Access All Alternates in Latin lookup 0 subtable"  } ['aalt' ('DFLT' <'dflt' > 'latn' <'AZE ' 'CRT ' 'MOL ' 'ROM ' 'TRK ' 'dflt' > ) ]
Lookup: 3 0 0 "'aalt' Access All Alternates in Latin lookup 1"  {"'aalt' Access All Alternates in Latin lookup 1 subtable"  } ['aalt' ('DFLT' <'dflt' > 'latn' <'AZE ' 'CRT ' 'MOL ' 'ROM ' 'TRK ' 'dflt' > ) ]
Lookup: 1 0 0 "'locl' Localized Forms lookup 2"  {"'locl' Localized Forms lookup 2 subtable"  } ['locl' ('DFLT' <'AZE ' > ) ]
Lookup: 1 0 0 "'locl' Localized Forms lookup 3"  {"'locl' Localized Forms lookup 3 subtable"  } ['locl' ('DFLT' <'TRK ' > ) ]

StartChar: .notdef
Encoding: 65536 -1 0
Width: 1872
Flags: W
LayerCount: 2
Fore
SplineSet
228 1416 m 1,0,-1
 1644 1416 l 1,1,-1
 1644 0 l 1,2,-1
 228 0 l 1,3,-1
 228 1416 l 1,0,-1
586 219 m 1,4,-1
 933 587 l 1,5,-1
 1295 219 l 1,6,-1
 1417 341 l 1,7,-1
 1054 709 l 1,8,-1
 1417 1067 l 1,9,-1
 1289 1191 l 1,10,-1
 937 825 l 1,11,-1
 580 1193 l 1,12,-1
 457 1068 l 1,13,-1
 816 705 l 1,14,-1
 458 363 l 1,15,-1
 586 219 l 1,4,-1
EndSplineSet
EndChar

StartChar: numbersign
Encoding: 35 35 4
Width: 1556
Flags: W
LayerCount: 2
Fore
SplineSet
418 358 m 1,0,-1
 206 358 l 1,1,-1
 206 477 l 1,2,-1
 429 477 l 1,3,-1
 469 914 l 1,4,-1
 242 914 l 1,5,-1
 242 1031 l 1,6,-1
 479 1031 l 1,7,-1
 510 1369 l 1,8,-1
 655 1369 l 1,9,-1
 623 1031 l 1,10,-1
 998 1031 l 1,11,-1
 1028 1369 l 1,12,-1
 1172 1369 l 1,13,-1
 1141 1031 l 1,14,-1
 1372 1031 l 1,15,-1
 1372 914 l 1,16,-1
 1130 914 l 1,17,-1
 1090 477 l 1,18,-1
 1325 477 l 1,19,-1
 1325 358 l 1,20,-1
 1079 358 l 1,21,-1
 1047 0 l 1,22,-1
 906 0 l 1,23,-1
 938 358 l 1,24,-1
 561 358 l 1,25,-1
 528 0 l 1,26,-1
 386 0 l 1,27,-1
 418 358 l 1,0,-1
948 477 m 1,28,-1
 987 914 l 1,29,-1
 612 914 l 1,30,-1
 572 477 l 1,31,-1
 948 477 l 1,28,-1
EndSplineSet
EndChar

StartChar: ampersand
Encoding: 38 38 5
Width: 1532
Flags: W
LayerCount: 2
Fore
SplineSet
148 388 m 0,0,1
 148 460 148 460 174.5 519 c 128,-1,2
 201 578 201 578 247 626 c 128,-1,3
 293 674 293 674 354 711.5 c 128,-1,4
 415 749 415 749 483 778 c 1,5,6
 450 821 450 821 417.5 868 c 128,-1,7
 385 915 385 915 359.5 966 c 128,-1,8
 334 1017 334 1017 318.5 1072 c 128,-1,9
 303 1127 303 1127 303 1187 c 0,10,11
 303 1271 303 1271 332 1337.5 c 128,-1,12
 361 1404 361 1404 414.5 1450.5 c 128,-1,13
 468 1497 468 1497 543.5 1521.5 c 128,-1,14
 619 1546 619 1546 712 1546 c 0,15,16
 800 1546 800 1546 869 1517.5 c 128,-1,17
 938 1489 938 1489 986 1441.5 c 128,-1,18
 1034 1394 1034 1394 1059 1332 c 128,-1,19
 1084 1270 1084 1270 1084 1204 c 0,20,21
 1084 1113 1084 1113 1056 1042 c 128,-1,22
 1028 971 1028 971 977.5 914.5 c 128,-1,23
 927 858 927 858 856 813.5 c 128,-1,24
 785 769 785 769 699 732 c 1,25,26
 721 702 721 702 751 662 c 128,-1,27
 781 622 781 622 816 576.5 c 128,-1,28
 851 531 851 531 889 483.5 c 128,-1,29
 927 436 927 436 963.5 391 c 128,-1,30
 1000 346 1000 346 1034 307 c 128,-1,31
 1068 268 1068 268 1095 240 c 1,32,33
 1152 288 1152 288 1183.5 353 c 128,-1,34
 1215 418 1215 418 1215 512 c 0,35,36
 1215 549 1215 549 1210.5 583 c 128,-1,37
 1206 617 1206 617 1200 645 c 128,-1,38
 1194 673 1194 673 1187.5 694 c 128,-1,39
 1181 715 1181 715 1177 726 c 1,40,-1
 1323 726 l 1,41,42
 1327 713 1327 713 1333.5 692 c 128,-1,43
 1340 671 1340 671 1345 643.5 c 128,-1,44
 1350 616 1350 616 1354 582.5 c 128,-1,45
 1358 549 1358 549 1358 512 c 0,46,47
 1358 282 1358 282 1196 153 c 1,48,49
 1252 114 1252 114 1305 99.5 c 128,-1,50
 1358 85 1358 85 1425 87 c 1,51,-1
 1425 -1 l 1,52,53
 1405 -7 1405 -7 1380 -11.5 c 128,-1,54
 1355 -16 1355 -16 1317 -16 c 0,55,56
 1282 -16 1282 -16 1251 -11 c 128,-1,57
 1220 -6 1220 -6 1191.5 4.5 c 128,-1,58
 1163 15 1163 15 1135.5 30 c 128,-1,59
 1108 45 1108 45 1080 66 c 1,60,61
 1046 48 1046 48 1006.5 33 c 128,-1,62
 967 18 967 18 925 7 c 128,-1,63
 883 -4 883 -4 839.5 -10 c 128,-1,64
 796 -16 796 -16 754 -16 c 0,65,66
 628 -16 628 -16 517.5 8 c 128,-1,67
 407 32 407 32 325 81.5 c 128,-1,68
 243 131 243 131 195.5 207 c 128,-1,69
 148 283 148 283 148 388 c 0,0,1
626 831 m 1,70,71
 704 862 704 862 762.5 898 c 128,-1,72
 821 934 821 934 861 979 c 128,-1,73
 901 1024 901 1024 921 1079 c 128,-1,74
 941 1134 941 1134 941 1202 c 0,75,76
 941 1244 941 1244 925.5 1284 c 128,-1,77
 910 1324 910 1324 880 1356 c 128,-1,78
 850 1388 850 1388 806.5 1407.5 c 128,-1,79
 763 1427 763 1427 707 1427 c 0,80,81
 655 1427 655 1427 609.5 1413 c 128,-1,82
 564 1399 564 1399 530.5 1369.5 c 128,-1,83
 497 1340 497 1340 477.5 1295 c 128,-1,84
 458 1250 458 1250 458 1189 c 0,85,86
 458 1134 458 1134 470 1090.5 c 128,-1,87
 482 1047 482 1047 504.5 1006.5 c 128,-1,88
 527 966 527 966 557.5 924.5 c 128,-1,89
 588 883 588 883 626 831 c 1,70,71
305 393 m 0,90,91
 305 335 305 335 330 283 c 128,-1,92
 355 231 355 231 408 191.5 c 128,-1,93
 461 152 461 152 544.5 129 c 128,-1,94
 628 106 628 106 745 106 c 0,95,96
 805 106 805 106 861.5 119 c 128,-1,97
 918 132 918 132 975 157 c 1,98,99
 927 208 927 208 871.5 275.5 c 128,-1,100
 816 343 816 343 760 414.5 c 128,-1,101
 704 486 704 486 652 555.5 c 128,-1,102
 600 625 600 625 560 679 c 1,103,104
 516 658 516 658 470.5 630 c 128,-1,105
 425 602 425 602 388.5 567 c 128,-1,106
 352 532 352 532 328.5 488.5 c 128,-1,107
 305 445 305 445 305 393 c 0,90,91
EndSplineSet
EndChar

StartChar: quotesingle
Encoding: 39 39 6
Width: 731
Flags: W
LayerCount: 2
Fore
SplineSet
274 1685 m 1,0,-1
 457 1685 l 1,1,-1
 433 966 l 1,2,-1
 299 966 l 1,3,-1
 274 1685 l 1,0,-1
EndSplineSet
EndChar

StartChar: parenleft
Encoding: 40 40 7
Width: 848
Flags: W
LayerCount: 2
Fore
SplineSet
598 -327 m 1,0,1
 576 -313 576 -313 534 -276.5 c 128,-1,2
 492 -240 492 -240 441 -179.5 c 128,-1,3
 390 -119 390 -119 337 -33.5 c 128,-1,4
 284 52 284 52 240.5 164.5 c 128,-1,5
 197 277 197 277 169.5 416.5 c 128,-1,6
 142 556 142 556 142 724 c 0,7,8
 142 868 142 868 169.5 995 c 128,-1,9
 197 1122 197 1122 240 1229.5 c 128,-1,10
 283 1337 283 1337 335.5 1424.5 c 128,-1,11
 388 1512 388 1512 439 1576 c 128,-1,12
 490 1640 490 1640 532.5 1679.5 c 128,-1,13
 575 1719 575 1719 598 1732 c 1,14,-1
 713 1675 l 1,15,16
 694 1661 694 1661 657 1625 c 128,-1,17
 620 1589 620 1589 575.5 1531 c 128,-1,18
 531 1473 531 1473 484.5 1393.5 c 128,-1,19
 438 1314 438 1314 399 1213 c 128,-1,20
 360 1112 360 1112 334 989.5 c 128,-1,21
 308 867 308 867 305 724 c 0,22,23
 302 570 302 570 324.5 440.5 c 128,-1,24
 347 311 347 311 384.5 206.5 c 128,-1,25
 422 102 422 102 469.5 20.5 c 128,-1,26
 517 -61 517 -61 563 -120 c 128,-1,27
 609 -179 609 -179 649.5 -216 c 128,-1,28
 690 -253 690 -253 713 -270 c 1,29,-1
 598 -327 l 1,30,-1
 598 -327 l 1,0,1
EndSplineSet
EndChar

StartChar: asterisk
Encoding: 42 42 9
Width: 1226
Flags: W
LayerCount: 2
Fore
SplineSet
554 929 m 1,0,-1
 579 1096 l 1,1,-1
 451 986 l 1,2,-1
 215 834 l 1,3,-1
 142 959 l 1,4,-1
 388 1093 l 1,5,-1
 545 1153 l 2,6,7
 544 1153 544 1153 532.5 1157.5 c 128,-1,8
 521 1162 521 1162 504 1168.5 c 128,-1,9
 487 1175 487 1175 467 1182 c 128,-1,10
 447 1189 447 1189 430 1195 c 128,-1,11
 413 1201 413 1201 400.5 1205.5 c 128,-1,12
 388 1210 388 1210 387 1210 c 2,13,-1
 139 1340 l 1,14,-1
 210 1466 l 1,15,-1
 447 1315 l 1,16,-1
 578 1211 l 2,17,18
 578 1212 578 1212 576 1224 c 128,-1,19
 574 1236 574 1236 571 1254 c 128,-1,20
 568 1272 568 1272 564.5 1292.5 c 128,-1,21
 561 1313 561 1313 557.5 1331 c 128,-1,22
 554 1349 554 1349 551.5 1361 c 128,-1,23
 549 1373 549 1373 549 1375 c 2,24,-1
 535 1658 l 1,25,-1
 681 1658 l 1,26,-1
 671 1377 l 1,27,-1
 645 1212 l 1,28,-1
 773 1320 l 1,29,-1
 1011 1472 l 1,30,-1
 1083 1348 l 1,31,-1
 836 1215 l 1,32,-1
 680 1154 l 1,33,-1
 837 1097 l 1,34,-1
 1087 969 l 1,35,-1
 1013 840 l 1,36,-1
 778 990 l 1,37,-1
 645 1094 l 2,38,39
 645 1093 645 1093 647.5 1080.5 c 128,-1,40
 650 1068 650 1068 653 1050 c 128,-1,41
 656 1032 656 1032 659.5 1011.5 c 128,-1,42
 663 991 663 991 666.5 973 c 128,-1,43
 670 955 670 955 672 942.5 c 128,-1,44
 674 930 674 930 674 929 c 2,45,-1
 690 649 l 1,46,-1
 544 648 l 1,47,-1
 554 929 l 1,0,-1
EndSplineSet
EndChar

StartChar: plus
Encoding: 43 43 10
Width: 1393
Flags: W
LayerCount: 2
Fore
SplineSet
627 539 m 1,0,-1
 632 711 l 1,1,-1
 469 706 l 1,2,-1
 232 706 l 1,3,-1
 232 840 l 1,4,-1
 469 840 l 1,5,-1
 632 832 l 1,6,-1
 627 1003 l 1,7,-1
 627 1247 l 1,8,-1
 763 1247 l 1,9,-1
 763 1003 l 1,10,-1
 757 832 l 1,11,-1
 906 840 l 1,12,-1
 1161 840 l 1,13,-1
 1161 706 l 1,14,-1
 906 706 l 1,15,-1
 757 711 l 1,16,-1
 763 539 l 1,17,-1
 763 288 l 1,18,-1
 627 288 l 1,19,-1
 627 539 l 1,0,-1
EndSplineSet
EndChar

StartChar: comma
Encoding: 44 44 11
Width: 623
Flags: W
LayerCount: 2
Fore
SplineSet
201 170 m 1,0,-1
 306 269 l 1,1,2
 355 246 355 246 388 209 c 128,-1,3
 421 172 421 172 441 128.5 c 128,-1,4
 461 85 461 85 469.5 38.5 c 128,-1,5
 478 -8 478 -8 478 -50 c 0,6,7
 478 -134 478 -134 456.5 -207 c 128,-1,8
 435 -280 435 -280 399 -337.5 c 128,-1,9
 363 -395 363 -395 316.5 -436.5 c 128,-1,10
 270 -478 270 -478 220 -499 c 1,11,-1
 164 -430 l 1,12,-1
 164 -409 l 1,13,14
 191 -395 191 -395 218.5 -366.5 c 128,-1,15
 246 -338 246 -338 268.5 -298.5 c 128,-1,16
 291 -259 291 -259 305.5 -209 c 128,-1,17
 320 -159 320 -159 320 -102 c 0,18,19
 320 -69 320 -69 311.5 -33.5 c 128,-1,20
 303 2 303 2 287.5 33.5 c 128,-1,21
 272 65 272 65 250 88.5 c 128,-1,22
 228 112 228 112 201 121 c 1,23,-1
 201 170 l 1,0,-1
EndSplineSet
EndChar

StartChar: hyphen
Encoding: 45 45 12
Width: 1350
Flags: W
LayerCount: 2
Fore
SplineSet
247 840 m 1,0,-1
 1103 840 l 1,1,-1
 1103 705 l 1,2,-1
 247 705 l 1,3,-1
 247 840 l 1,0,-1
EndSplineSet
EndChar

StartChar: period
Encoding: 46 46 13
Width: 561
Flags: W
LayerCount: 2
Fore
SplineSet
164 106 m 1,0,1
 164 134 164 134 174 159 c 128,-1,2
 184 184 184 184 201 203 c 128,-1,3
 218 222 218 222 240 233 c 128,-1,4
 262 244 262 244 286 244 c 0,5,6
 313 244 313 244 333.5 234 c 128,-1,7
 354 224 354 224 368 207.5 c 128,-1,8
 382 191 382 191 389 169 c 128,-1,9
 396 147 396 147 397 123 c 0,10,11
 398 93 398 93 388 68 c 128,-1,12
 378 43 378 43 361 24 c 128,-1,13
 344 5 344 5 321.5 -5.5 c 128,-1,14
 299 -16 299 -16 275 -16 c 0,15,16
 230 -16 230 -16 198 18 c 128,-1,17
 166 52 166 52 164 106 c 1,0,1
EndSplineSet
EndChar

StartChar: slash
Encoding: 47 47 14
Width: 854
Flags: W
LayerCount: 2
Fore
SplineSet
636 1599 m 1,0,-1
 787 1599 l 1,1,-1
 216 -363 l 1,2,-1
 66 -363 l 1,3,-1
 636 1599 l 1,0,-1
EndSplineSet
EndChar

StartChar: zero
Encoding: 48 48 15
Width: 1378
Flags: W
LayerCount: 2
Fore
SplineSet
152 643 m 0,0,1
 154 787 154 787 198 903 c 128,-1,2
 242 1019 242 1019 316.5 1100.5 c 128,-1,3
 391 1182 391 1182 491.5 1226 c 128,-1,4
 592 1270 592 1270 707 1270 c 0,5,6
 855 1270 855 1270 955 1220.5 c 128,-1,7
 1055 1171 1055 1171 1116 1085 c 128,-1,8
 1177 999 1177 999 1202.5 883.5 c 128,-1,9
 1228 768 1228 768 1227 637 c 0,10,11
 1226 494 1226 494 1185.5 374.5 c 128,-1,12
 1145 255 1145 255 1073 169 c 128,-1,13
 1001 83 1001 83 901.5 35.5 c 128,-1,14
 802 -12 802 -12 682 -12 c 0,15,16
 585 -12 585 -12 508 13 c 128,-1,17
 431 38 431 38 372 82 c 128,-1,18
 313 126 313 126 271 187.5 c 128,-1,19
 229 249 229 249 202 321.5 c 128,-1,20
 175 394 175 394 163 476 c 128,-1,21
 151 558 151 558 152 643 c 0,0,1
688 96 m 0,22,23
 776 95 776 95 845.5 132 c 128,-1,24
 915 169 915 169 963 238.5 c 128,-1,25
 1011 308 1011 308 1037 407.5 c 128,-1,26
 1063 507 1063 507 1063 630 c 0,27,28
 1063 740 1063 740 1043 836.5 c 128,-1,29
 1023 933 1023 933 979 1004.5 c 128,-1,30
 935 1076 935 1076 865.5 1117.5 c 128,-1,31
 796 1159 796 1159 697 1159 c 0,32,33
 610 1159 610 1159 539.5 1123.5 c 128,-1,34
 469 1088 469 1088 419.5 1022 c 128,-1,35
 370 956 370 956 343 861.5 c 128,-1,36
 316 767 316 767 315 649 c 0,37,38
 315 544 315 544 336 445 c 128,-1,39
 357 346 357 346 402.5 269 c 128,-1,40
 448 192 448 192 519 144.5 c 128,-1,41
 590 97 590 97 688 96 c 0,22,23
EndSplineSet
EndChar

StartChar: one
Encoding: 49 49 16
Width: 914
Flags: W
LayerCount: 2
Fore
SplineSet
409 1067 m 1,0,1
 346 1041 346 1041 279.5 1017 c 128,-1,2
 213 993 213 993 147 977 c 1,3,-1
 127 1078 l 1,4,5
 177 1093 177 1093 235 1119.5 c 128,-1,6
 293 1146 293 1146 346 1175 c 128,-1,7
 399 1204 399 1204 442 1232 c 128,-1,8
 485 1260 485 1260 505 1278 c 1,9,-1
 583 1256 l 1,10,-1
 583 0 l 1,11,-1
 409 0 l 1,12,-1
 409 1067 l 1,0,1
EndSplineSet
Substitution2: "'sups' Superscript in Latin lookup 11 subtable" onesuperior
EndChar

StartChar: two
Encoding: 50 50 17
Width: 1263
Flags: W
LayerCount: 2
Fore
SplineSet
144 86 m 1,0,1
 234 138 234 138 323.5 197.5 c 128,-1,2
 413 257 413 257 495 322.5 c 128,-1,3
 577 388 577 388 647.5 458 c 128,-1,4
 718 528 718 528 770.5 601 c 128,-1,5
 823 674 823 674 852.5 748 c 128,-1,6
 882 822 882 822 882 895 c 0,7,8
 882 954 882 954 863 1002 c 128,-1,9
 844 1050 844 1050 807 1083.5 c 128,-1,10
 770 1117 770 1117 716 1135 c 128,-1,11
 662 1153 662 1153 592 1153 c 0,12,13
 542 1153 542 1153 491.5 1141 c 128,-1,14
 441 1129 441 1129 394.5 1108.5 c 128,-1,15
 348 1088 348 1088 307.5 1060 c 128,-1,16
 267 1032 267 1032 237 999 c 1,17,-1
 167 1094 l 1,18,19
 194 1127 194 1127 237.5 1161.5 c 128,-1,20
 281 1196 281 1196 337.5 1223.5 c 128,-1,21
 394 1251 394 1251 463 1269 c 128,-1,22
 532 1287 532 1287 610 1287 c 0,23,24
 731 1287 731 1287 815 1256 c 128,-1,25
 899 1225 899 1225 951.5 1172.5 c 128,-1,26
 1004 1120 1004 1120 1028 1050.5 c 128,-1,27
 1052 981 1052 981 1052 904 c 0,28,29
 1052 799 1052 799 1003.5 694.5 c 128,-1,30
 955 590 955 590 870.5 491 c 128,-1,31
 786 392 786 392 670.5 300 c 128,-1,32
 555 208 555 208 422 129 c 1,33,-1
 1124 134 l 1,34,-1
 1124 0 l 1,35,-1
 169 0 l 1,36,-1
 144 86 l 1,37,-1
 144 86 l 1,0,1
EndSplineSet
Substitution2: "'sups' Superscript in Latin lookup 11 subtable" twosuperior
EndChar

StartChar: three
Encoding: 51 51 18
Width: 1131
Flags: W
LayerCount: 2
Fore
SplineSet
145 -204 m 1,0,1
 187 -212 187 -212 229.5 -215.5 c 128,-1,2
 272 -219 272 -219 310 -218 c 0,3,4
 434 -217 434 -217 534 -183 c 128,-1,5
 634 -149 634 -149 704.5 -93.5 c 128,-1,6
 775 -38 775 -38 812.5 33 c 128,-1,7
 850 104 850 104 850 180 c 0,8,9
 850 247 850 247 827 305 c 128,-1,10
 804 363 804 363 756.5 403 c 128,-1,11
 709 443 709 443 636 461.5 c 128,-1,12
 563 480 563 480 462 468 c 1,13,-1
 351 441 l 1,14,-1
 314 557 l 1,15,16
 368 568 368 568 412.5 580.5 c 128,-1,17
 457 593 457 593 500 610 c 0,18,19
 637 661 637 661 707 744 c 128,-1,20
 777 827 777 827 777 920 c 1,21,22
 778 981 778 981 758 1024.5 c 128,-1,23
 738 1068 738 1068 702 1096.5 c 128,-1,24
 666 1125 666 1125 617 1138.5 c 128,-1,25
 568 1152 568 1152 511 1152 c 0,26,27
 449 1152 449 1152 396.5 1140 c 128,-1,28
 344 1128 344 1128 301 1109.5 c 128,-1,29
 258 1091 258 1091 225 1070 c 128,-1,30
 192 1049 192 1049 168 1031 c 1,31,-1
 102 1127 l 1,32,33
 130 1151 130 1151 174 1178.5 c 128,-1,34
 218 1206 218 1206 273 1229.5 c 128,-1,35
 328 1253 328 1253 392 1268.5 c 128,-1,36
 456 1284 456 1284 525 1284 c 0,37,38
 609 1284 609 1284 684.5 1262.5 c 128,-1,39
 760 1241 760 1241 817 1198.5 c 128,-1,40
 874 1156 874 1156 908 1091.5 c 128,-1,41
 942 1027 942 1027 942 940 c 0,42,43
 942 874 942 874 919 816 c 128,-1,44
 896 758 896 758 856 709 c 128,-1,45
 816 660 816 660 763 621.5 c 128,-1,46
 710 583 710 583 649 556 c 1,47,48
 738 550 738 550 807 517.5 c 128,-1,49
 876 485 876 485 923.5 435 c 128,-1,50
 971 385 971 385 995.5 322 c 128,-1,51
 1020 259 1020 259 1020 192 c 0,52,53
 1020 89 1020 89 973 -6.5 c 128,-1,54
 926 -102 926 -102 838 -175.5 c 128,-1,55
 750 -249 750 -249 624.5 -293 c 128,-1,56
 499 -337 499 -337 342 -337 c 0,57,58
 249 -337 249 -337 146 -319 c 1,59,-1
 145 -204 l 1,60,-1
 145 -204 l 1,0,1
EndSplineSet
Substitution2: "'sups' Superscript in Latin lookup 11 subtable" threesuperior
EndChar

StartChar: four
Encoding: 52 52 19
Width: 1318
Flags: W
LayerCount: 2
Fore
SplineSet
110 79 m 1,0,1
 119 96 119 96 146.5 153 c 128,-1,2
 174 210 174 210 214 292.5 c 128,-1,3
 254 375 254 375 303 476 c 128,-1,4
 352 577 352 577 402 682 c 128,-1,5
 452 787 452 787 501 889 c 128,-1,6
 550 991 550 991 590.5 1076.5 c 128,-1,7
 631 1162 631 1162 659 1223 c 128,-1,8
 687 1284 687 1284 697 1307 c 1,9,-1
 757 1307 l 1,10,-1
 860 1243 l 1,11,12
 851 1220 851 1220 826.5 1169 c 128,-1,13
 802 1118 802 1118 767.5 1048.5 c 128,-1,14
 733 979 733 979 692 897 c 128,-1,15
 651 815 651 815 609 731 c 128,-1,16
 567 647 567 647 526.5 566.5 c 128,-1,17
 486 486 486 486 452.5 419.5 c 128,-1,18
 419 353 419 353 395 306.5 c 128,-1,19
 371 260 371 260 363 244 c 1,20,-1
 296 129 l 1,21,-1
 835 129 l 1,22,-1
 848 631 l 1,23,-1
 1002 646 l 1,24,-1
 1002 129 l 1,25,-1
 1255 129 l 1,26,-1
 1255 0 l 1,27,-1
 1002 0 l 1,28,-1
 1002 -376 l 1,29,-1
 835 -376 l 1,30,-1
 835 0 l 1,31,-1
 151 0 l 1,32,-1
 110 79 l 1,33,-1
 110 79 l 1,0,1
EndSplineSet
EndChar

StartChar: five
Encoding: 53 53 20
Width: 1220
Flags: W
LayerCount: 2
Fore
SplineSet
202 -222 m 1,0,1
 222 -224 222 -224 240 -225.5 c 128,-1,2
 258 -227 258 -227 283 -227 c 0,3,4
 415 -227 415 -227 528 -192 c 128,-1,5
 641 -157 641 -157 723.5 -95.5 c 128,-1,6
 806 -34 806 -34 853 49 c 128,-1,7
 900 132 900 132 900 227 c 0,8,9
 900 392 900 392 814 472 c 128,-1,10
 728 552 728 552 557 552 c 1,11,12
 488 553 488 553 410 537 c 128,-1,13
 332 521 332 521 250 491 c 1,14,-1
 209 516 l 1,15,-1
 271 1252 l 1,16,-1
 1021 1252 l 1,17,-1
 1004 1108 l 1,18,-1
 401 1108 l 1,19,-1
 353 631 l 1,20,21
 428 654 428 654 495.5 665.5 c 128,-1,22
 563 677 563 677 629 677 c 0,23,24
 735 677 735 677 817 646.5 c 128,-1,25
 899 616 899 616 955 559 c 128,-1,26
 1011 502 1011 502 1040.5 421 c 128,-1,27
 1070 340 1070 340 1070 238 c 0,28,29
 1070 167 1070 167 1047.5 96.5 c 128,-1,30
 1025 26 1025 26 982 -39 c 128,-1,31
 939 -104 939 -104 875 -160 c 128,-1,32
 811 -216 811 -216 728.5 -257.5 c 128,-1,33
 646 -299 646 -299 544.5 -323 c 128,-1,34
 443 -347 443 -347 325 -348 c 0,35,36
 313 -348 313 -348 297 -347.5 c 128,-1,37
 281 -347 281 -347 264 -345.5 c 128,-1,38
 247 -344 247 -344 230.5 -341.5 c 128,-1,39
 214 -339 214 -339 201 -335 c 1,40,-1
 202 -222 l 1,41,-1
 202 -222 l 1,0,1
EndSplineSet
EndChar

StartChar: six
Encoding: 54 54 21
Width: 1377
Flags: W
LayerCount: 2
Fore
SplineSet
168 570 m 0,0,1
 168 704 168 704 202.5 824.5 c 128,-1,2
 237 945 237 945 296.5 1049.5 c 128,-1,3
 356 1154 356 1154 436.5 1241 c 128,-1,4
 517 1328 517 1328 608.5 1394.5 c 128,-1,5
 700 1461 700 1461 798 1505 c 128,-1,6
 896 1549 896 1549 992 1568 c 1,7,-1
 1038 1460 l 1,8,9
 936 1433 936 1433 845.5 1386 c 128,-1,10
 755 1339 755 1339 679 1277 c 128,-1,11
 603 1215 603 1215 542.5 1140 c 128,-1,12
 482 1065 482 1065 439.5 983 c 128,-1,13
 397 901 397 901 374 814 c 128,-1,14
 351 727 351 727 349 641 c 0,15,16
 347 535 347 535 364 437.5 c 128,-1,17
 381 340 381 340 422.5 265 c 128,-1,18
 464 190 464 190 532 145.5 c 128,-1,19
 600 101 600 101 701 101 c 0,20,21
 787 101 787 101 850 138 c 128,-1,22
 913 175 913 175 954.5 234 c 128,-1,23
 996 293 996 293 1016 366 c 128,-1,24
 1036 439 1036 439 1036 512 c 0,25,26
 1036 606 1036 606 1013 671.5 c 128,-1,27
 990 737 990 737 952 778 c 128,-1,28
 914 819 914 819 865 837 c 128,-1,29
 816 855 816 855 764 855 c 0,30,31
 728 855 728 855 696 849 c 128,-1,32
 664 843 664 843 638 834 c 128,-1,33
 612 825 612 825 593 814.5 c 128,-1,34
 574 804 574 804 562 795 c 1,35,-1
 515 895 l 1,36,37
 530 910 530 910 557.5 926 c 128,-1,38
 585 942 585 942 621.5 955 c 128,-1,39
 658 968 658 968 703 976.5 c 128,-1,40
 748 985 748 985 798 985 c 0,41,42
 896 985 896 985 972 948.5 c 128,-1,43
 1048 912 1048 912 1099.5 851.5 c 128,-1,44
 1151 791 1151 791 1178 711.5 c 128,-1,45
 1205 632 1205 632 1205 546 c 0,46,47
 1205 439 1205 439 1172 338 c 128,-1,48
 1139 237 1139 237 1073.5 158 c 128,-1,49
 1008 79 1008 79 909.5 31.5 c 128,-1,50
 811 -16 811 -16 680 -16 c 0,51,52
 558 -16 558 -16 463 31 c 128,-1,53
 368 78 368 78 302.5 158.5 c 128,-1,54
 237 239 237 239 202.5 345 c 128,-1,55
 168 451 168 451 168 570 c 0,0,1
EndSplineSet
EndChar

StartChar: seven
Encoding: 55 55 22
Width: 1236
Flags: W
LayerCount: 2
Fore
SplineSet
380 -278 m 1,0,1
 409 -217 409 -217 443.5 -137 c 128,-1,2
 478 -57 478 -57 515.5 34.5 c 128,-1,3
 553 126 553 126 593 225.5 c 128,-1,4
 633 325 633 325 673 426.5 c 128,-1,5
 713 528 713 528 751.5 628 c 128,-1,6
 790 728 790 728 825 820 c 128,-1,7
 860 912 860 912 890.5 992 c 128,-1,8
 921 1072 921 1072 944 1134 c 1,9,-1
 153 1135 l 1,10,-1
 153 1271 l 1,11,-1
 1090 1271 l 1,12,-1
 1127 1225 l 1,13,-1
 558 -330 l 1,14,-1
 380 -278 l 1,15,-1
 380 -278 l 1,0,1
EndSplineSet
EndChar

StartChar: eight
Encoding: 56 56 23
Width: 1297
Flags: W
LayerCount: 2
Fore
SplineSet
157 385 m 0,0,1
 157 445 157 445 177 503.5 c 128,-1,2
 197 562 197 562 237.5 616 c 128,-1,3
 278 670 278 670 340.5 718 c 128,-1,4
 403 766 403 766 488 804 c 1,5,6
 432 837 432 837 383 875 c 128,-1,7
 334 913 334 913 297 960.5 c 128,-1,8
 260 1008 260 1008 238.5 1066 c 128,-1,9
 217 1124 217 1124 217 1197 c 0,10,11
 217 1290 217 1290 254 1359 c 128,-1,12
 291 1428 291 1428 353.5 1474 c 128,-1,13
 416 1520 416 1520 498 1542.5 c 128,-1,14
 580 1565 580 1565 671 1565 c 0,15,16
 765 1565 765 1565 844 1540.5 c 128,-1,17
 923 1516 923 1516 980.5 1470.5 c 128,-1,18
 1038 1425 1038 1425 1070 1360.5 c 128,-1,19
 1102 1296 1102 1296 1102 1217 c 0,20,21
 1102 1159 1102 1159 1084 1099 c 128,-1,22
 1066 1039 1066 1039 1029.5 982.5 c 128,-1,23
 993 926 993 926 936.5 876 c 128,-1,24
 880 826 880 826 803 790 c 1,25,26
 872 754 872 754 937 714.5 c 128,-1,27
 1002 675 1002 675 1052 627.5 c 128,-1,28
 1102 580 1102 580 1132 522 c 128,-1,29
 1162 464 1162 464 1163 391 c 0,30,31
 1164 287 1164 287 1123 210 c 128,-1,32
 1082 133 1082 133 1013 83 c 128,-1,33
 944 33 944 33 854 8.5 c 128,-1,34
 764 -16 764 -16 667 -16 c 0,35,36
 575 -16 575 -16 483.5 6 c 128,-1,37
 392 28 392 28 319.5 76 c 128,-1,38
 247 124 247 124 202 200.5 c 128,-1,39
 157 277 157 277 157 385 c 0,0,1
688 851 m 1,40,41
 743 870 743 870 790.5 904.5 c 128,-1,42
 838 939 838 939 873 984 c 128,-1,43
 908 1029 908 1029 928 1083 c 128,-1,44
 948 1137 948 1137 949 1195 c 0,45,46
 950 1250 950 1250 931.5 1296.5 c 128,-1,47
 913 1343 913 1343 876.5 1377 c 128,-1,48
 840 1411 840 1411 786.5 1429.5 c 128,-1,49
 733 1448 733 1448 666 1448 c 0,50,51
 604 1448 604 1448 550 1432 c 128,-1,52
 496 1416 496 1416 456 1385 c 128,-1,53
 416 1354 416 1354 393.5 1309 c 128,-1,54
 371 1264 371 1264 371 1207 c 0,55,56
 371 1144 371 1144 397 1093.5 c 128,-1,57
 423 1043 423 1043 466.5 1000.5 c 128,-1,58
 510 958 510 958 567.5 921.5 c 128,-1,59
 625 885 625 885 688 851 c 1,40,41
318 398 m 0,60,61
 318 260 318 260 409 181 c 128,-1,62
 500 102 500 102 674 102 c 0,63,64
 740 102 740 102 798.5 120.5 c 128,-1,65
 857 139 857 139 901.5 173.5 c 128,-1,66
 946 208 946 208 972 258 c 128,-1,67
 998 308 998 308 998 371 c 0,68,69
 998 441 998 441 964 493.5 c 128,-1,70
 930 546 930 546 874.5 588.5 c 128,-1,71
 819 631 819 631 748 667 c 128,-1,72
 677 703 677 703 603 741 c 1,73,74
 543 719 543 719 491 684.5 c 128,-1,75
 439 650 439 650 400.5 606 c 128,-1,76
 362 562 362 562 340 509.5 c 128,-1,77
 318 457 318 457 318 398 c 0,60,61
EndSplineSet
EndChar

StartChar: nine
Encoding: 57 57 24
Width: 1396
Flags: W
LayerCount: 2
Fore
SplineSet
311 -270 m 1,0,1
 420 -243 420 -243 516 -191 c 128,-1,2
 612 -139 612 -139 691.5 -69.5 c 128,-1,3
 771 0 771 0 833.5 83 c 128,-1,4
 896 166 896 166 940 254 c 128,-1,5
 984 342 984 342 1007.5 431.5 c 128,-1,6
 1031 521 1031 521 1033 604 c 0,7,8
 1035 716 1035 716 1017.5 815 c 128,-1,9
 1000 914 1000 914 958 987 c 128,-1,10
 916 1060 916 1060 849 1102.5 c 128,-1,11
 782 1145 782 1145 685 1145 c 0,12,13
 603 1145 603 1145 540 1111.5 c 128,-1,14
 477 1078 477 1078 434.5 1024.5 c 128,-1,15
 392 971 392 971 370 905.5 c 128,-1,16
 348 840 348 840 348 777 c 0,17,18
 348 680 348 680 370.5 606.5 c 128,-1,19
 393 533 393 533 432 483.5 c 128,-1,20
 471 434 471 434 523.5 409 c 128,-1,21
 576 384 576 384 635 384 c 0,22,23
 676 384 676 384 707 389 c 128,-1,24
 738 394 738 394 761.5 402.5 c 128,-1,25
 785 411 785 411 802.5 420.5 c 128,-1,26
 820 430 820 430 835 439 c 1,27,-1
 875 344 l 1,28,29
 861 328 861 328 835.5 312 c 128,-1,30
 810 296 810 296 774.5 283 c 128,-1,31
 739 270 739 270 693 262 c 128,-1,32
 647 254 647 254 592 254 c 0,33,34
 493 254 493 254 416 293.5 c 128,-1,35
 339 333 339 333 286.5 398.5 c 128,-1,36
 234 464 234 464 207 548.5 c 128,-1,37
 180 633 180 633 180 722 c 0,38,39
 180 838 180 838 215.5 937 c 128,-1,40
 251 1036 251 1036 319 1109 c 128,-1,41
 387 1182 387 1182 485.5 1223 c 128,-1,42
 584 1264 584 1264 710 1264 c 0,43,44
 833 1264 833 1264 927 1216.5 c 128,-1,45
 1021 1169 1021 1169 1084 1089 c 128,-1,46
 1147 1009 1147 1009 1179 902.5 c 128,-1,47
 1211 796 1211 796 1211 678 c 0,48,49
 1211 538 1211 538 1175.5 411 c 128,-1,50
 1140 284 1140 284 1078 174 c 128,-1,51
 1016 64 1016 64 933.5 -28 c 128,-1,52
 851 -120 851 -120 757.5 -190 c 128,-1,53
 664 -260 664 -260 564 -306.5 c 128,-1,54
 464 -353 464 -353 368 -373 c 1,55,-1
 311 -270 l 1,56,-1
 311 -270 l 1,0,1
EndSplineSet
EndChar

StartChar: less
Encoding: 60 60 27
Width: 1368
Flags: W
LayerCount: 2
Fore
SplineSet
171 834 m 1,0,-1
 1133 1293 l 1,1,-1
 1133 1137 l 1,2,-1
 344 773 l 1,3,-1
 1133 413 l 1,4,-1
 1133 254 l 1,5,-1
 171 712 l 1,6,-1
 171 834 l 1,0,-1
EndSplineSet
EndChar

StartChar: equal
Encoding: 61 61 28
Width: 1397
Flags: W
LayerCount: 2
Fore
SplineSet
241 1114 m 1,0,-1
 1156 1114 l 1,1,-1
 1156 986 l 1,2,-1
 241 986 l 1,3,-1
 241 1114 l 1,0,-1
241 562 m 1,4,-1
 1156 562 l 1,5,-1
 1156 435 l 1,6,-1
 241 435 l 1,7,-1
 241 562 l 1,4,-1
EndSplineSet
EndChar

StartChar: question
Encoding: 63 63 30
Width: 1047
Flags: W
LayerCount: 2
Fore
SplineSet
382 465 m 1,0,1
 367 485 367 485 351 517 c 128,-1,2
 335 549 335 549 321.5 588.5 c 128,-1,3
 308 628 308 628 299.5 672 c 128,-1,4
 291 716 291 716 290 759 c 0,5,6
 288 815 288 815 320.5 859 c 128,-1,7
 353 903 353 903 402.5 942 c 128,-1,8
 452 981 452 981 511 1016.5 c 128,-1,9
 570 1052 570 1052 622 1090.5 c 128,-1,10
 674 1129 674 1129 711 1173 c 128,-1,11
 748 1217 748 1217 754 1272 c 1,12,13
 772 1371 772 1371 750 1450 c 128,-1,14
 728 1529 728 1529 670 1583.5 c 128,-1,15
 612 1638 612 1638 521.5 1667 c 128,-1,16
 431 1696 431 1696 312 1696 c 0,17,18
 244 1696 244 1696 197 1688.5 c 128,-1,19
 150 1681 150 1681 129 1672 c 1,20,-1
 129 1795 l 1,21,22
 136 1801 136 1801 157 1808.5 c 128,-1,23
 178 1816 178 1816 206.5 1822 c 128,-1,24
 235 1828 235 1828 269.5 1832.5 c 128,-1,25
 304 1837 304 1837 338 1837 c 0,26,27
 453 1837 453 1837 544 1815.5 c 128,-1,28
 635 1794 635 1794 703.5 1756 c 128,-1,29
 772 1718 772 1718 818 1665.5 c 128,-1,30
 864 1613 864 1613 890.5 1551.5 c 128,-1,31
 917 1490 917 1490 924 1421 c 128,-1,32
 931 1352 931 1352 920 1281 c 1,33,34
 913 1223 913 1223 890 1176.5 c 128,-1,35
 867 1130 867 1130 833.5 1092.5 c 128,-1,36
 800 1055 800 1055 759 1024.5 c 128,-1,37
 718 994 718 994 676.5 967 c 128,-1,38
 635 940 635 940 595 915 c 128,-1,39
 555 890 555 890 524 863.5 c 128,-1,40
 493 837 493 837 473 807.5 c 128,-1,41
 453 778 453 778 451 742 c 1,42,43
 448 707 448 707 452.5 672.5 c 128,-1,44
 457 638 457 638 465.5 603.5 c 128,-1,45
 474 569 474 569 485.5 534.5 c 128,-1,46
 497 500 497 500 509 466 c 1,47,-1
 382 465 l 1,0,1
382 98 m 0,48,49
 381 125 381 125 391.5 148.5 c 128,-1,50
 402 172 402 172 419 189.5 c 128,-1,51
 436 207 436 207 458 217.5 c 128,-1,52
 480 228 480 228 503 228 c 0,53,54
 530 228 530 228 550.5 219 c 128,-1,55
 571 210 571 210 585 194 c 128,-1,56
 599 178 599 178 606 157.5 c 128,-1,57
 613 137 613 137 614 115 c 0,58,59
 615 87 615 87 605 63 c 128,-1,60
 595 39 595 39 578 21.5 c 128,-1,61
 561 4 561 4 538.5 -6 c 128,-1,62
 516 -16 516 -16 492 -16 c 0,63,64
 471 -16 471 -16 451.5 -7.5 c 128,-1,65
 432 1 432 1 417 16 c 128,-1,66
 402 31 402 31 392.5 52 c 128,-1,67
 383 73 383 73 382 98 c 0,48,49
EndSplineSet
EndChar

StartChar: at
Encoding: 64 64 31
Width: 2218
Flags: W
LayerCount: 2
Fore
SplineSet
221 425 m 0,0,1
 221 595 221 595 257.5 744 c 128,-1,2
 294 893 294 893 360.5 1017.5 c 128,-1,3
 427 1142 427 1142 520.5 1239.5 c 128,-1,4
 614 1337 614 1337 728.5 1405 c 128,-1,5
 843 1473 843 1473 975 1508.5 c 128,-1,6
 1107 1544 1107 1544 1250 1544 c 0,7,8
 1415 1544 1415 1544 1552 1497 c 128,-1,9
 1689 1450 1689 1450 1787.5 1359 c 128,-1,10
 1886 1268 1886 1268 1940.5 1136 c 128,-1,11
 1995 1004 1995 1004 1995 835 c 0,12,13
 1995 635 1995 635 1946.5 479.5 c 128,-1,14
 1898 324 1898 324 1819 218 c 128,-1,15
 1740 112 1740 112 1640.5 57 c 128,-1,16
 1541 2 1541 2 1439 2 c 0,17,18
 1404 2 1404 2 1379.5 14.5 c 128,-1,19
 1355 27 1355 27 1339.5 50.5 c 128,-1,20
 1324 74 1324 74 1316 107.5 c 128,-1,21
 1308 141 1308 141 1305 183 c 0,22,23
 1303 209 1303 209 1305.5 266.5 c 128,-1,24
 1308 324 1308 324 1320 402 c 1,25,26
 1283 325 1283 325 1238.5 252.5 c 128,-1,27
 1194 180 1194 180 1144 123.5 c 128,-1,28
 1094 67 1094 67 1039.5 32.5 c 128,-1,29
 985 -2 985 -2 929 -2 c 0,30,31
 878 -2 878 -2 827 24 c 128,-1,32
 776 50 776 50 735.5 104 c 128,-1,33
 695 158 695 158 670.5 240.5 c 128,-1,34
 646 323 646 323 648 435 c 0,35,36
 650 505 650 505 665 579.5 c 128,-1,37
 680 654 680 654 710 724.5 c 128,-1,38
 740 795 740 795 784.5 858 c 128,-1,39
 829 921 829 921 890 968.5 c 128,-1,40
 951 1016 951 1016 1028.5 1043.5 c 128,-1,41
 1106 1071 1106 1071 1201 1071 c 0,42,43
 1271 1071 1271 1071 1334.5 1057 c 128,-1,44
 1398 1043 1398 1043 1446 1014 c 1,45,-1
 1579 1040 l 1,46,47
 1565 991 1565 991 1547.5 918.5 c 128,-1,48
 1530 846 1530 846 1512 763 c 128,-1,49
 1494 680 1494 680 1477.5 593.5 c 128,-1,50
 1461 507 1461 507 1451 431 c 0,51,52
 1430 270 1430 270 1433.5 197 c 128,-1,53
 1437 124 1437 124 1478 124 c 0,54,55
 1546 124 1546 124 1614 177 c 128,-1,56
 1682 230 1682 230 1737 322.5 c 128,-1,57
 1792 415 1792 415 1826 539.5 c 128,-1,58
 1860 664 1860 664 1860 808 c 0,59,60
 1860 930 1860 930 1836.5 1023.5 c 128,-1,61
 1813 1117 1813 1117 1770.5 1186.5 c 128,-1,62
 1728 1256 1728 1256 1669 1303 c 128,-1,63
 1610 1350 1610 1350 1539 1378.5 c 128,-1,64
 1468 1407 1468 1407 1387 1419.5 c 128,-1,65
 1306 1432 1306 1432 1221 1432 c 0,66,67
 1106 1432 1106 1432 997.5 1400.5 c 128,-1,68
 889 1369 889 1369 792.5 1309 c 128,-1,69
 696 1249 696 1249 615.5 1162.5 c 128,-1,70
 535 1076 535 1076 477.5 966 c 128,-1,71
 420 856 420 856 387.5 723.5 c 128,-1,72
 355 591 355 591 355 440 c 0,73,74
 355 296 355 296 382 181.5 c 128,-1,75
 409 67 409 67 458 -21 c 128,-1,76
 507 -109 507 -109 574.5 -171.5 c 128,-1,77
 642 -234 642 -234 723 -274.5 c 128,-1,78
 804 -315 804 -315 896 -333.5 c 128,-1,79
 988 -352 988 -352 1085 -352 c 0,80,81
 1163 -352 1163 -352 1228.5 -342.5 c 128,-1,82
 1294 -333 1294 -333 1346 -319 c 128,-1,83
 1398 -305 1398 -305 1436 -289 c 128,-1,84
 1474 -273 1474 -273 1498 -259 c 1,85,-1
 1529 -359 l 1,86,87
 1497 -380 1497 -380 1447.5 -399.5 c 128,-1,88
 1398 -419 1398 -419 1337.5 -433.5 c 128,-1,89
 1277 -448 1277 -448 1208.5 -456.5 c 128,-1,90
 1140 -465 1140 -465 1070 -465 c 0,91,92
 890 -465 890 -465 735 -410.5 c 128,-1,93
 580 -356 580 -356 465.5 -246 c 128,-1,94
 351 -136 351 -136 286 31.5 c 128,-1,95
 221 199 221 199 221 425 c 0,0,1
791 464 m 0,96,97
 790 387 790 387 800.5 326 c 128,-1,98
 811 265 811 265 833 222 c 128,-1,99
 855 179 855 179 887.5 156 c 128,-1,100
 920 133 920 133 962 133 c 0,101,102
 998 133 998 133 1041.5 171.5 c 128,-1,103
 1085 210 1085 210 1129 273.5 c 128,-1,104
 1173 337 1173 337 1215.5 417.5 c 128,-1,105
 1258 498 1258 498 1293.5 581.5 c 128,-1,106
 1329 665 1329 665 1354 744.5 c 128,-1,107
 1379 824 1379 824 1389 885 c 1,108,109
 1375 903 1375 903 1351.5 916.5 c 128,-1,110
 1328 930 1328 930 1300.5 939 c 128,-1,111
 1273 948 1273 948 1243.5 952 c 128,-1,112
 1214 956 1214 956 1187 956 c 0,113,114
 1091 956 1091 956 1018 911 c 128,-1,115
 945 866 945 866 895 795 c 128,-1,116
 845 724 845 724 819 636.5 c 128,-1,117
 793 549 793 549 791 464 c 0,96,97
EndSplineSet
EndChar

StartChar: A
Encoding: 65 65 32
Width: 1389
Flags: W
LayerCount: 2
Fore
SplineSet
618 1538 m 1,0,-1
 783 1538 l 1,1,-1
 1357 0 l 1,2,-1
 1177 0 l 1,3,-1
 1029 418 l 1,4,-1
 363 418 l 1,5,-1
 211 0 l 1,6,-1
 29 0 l 1,7,-1
 618 1538 l 1,0,-1
984 545 m 1,8,-1
 739 1240 l 1,9,-1
 703 1360 l 1,10,-1
 663 1239 l 1,11,-1
 410 545 l 1,12,-1
 984 545 l 1,8,-1
EndSplineSet
EndChar

StartChar: B
Encoding: 66 66 33
Width: 1340
Flags: W
LayerCount: 2
Fore
SplineSet
201 1523 m 1,0,-1
 293 1522 l 2,1,2
 341 1522 341 1522 380.5 1524 c 128,-1,3
 420 1526 420 1526 458.5 1528.5 c 128,-1,4
 497 1531 497 1531 539 1533 c 128,-1,5
 581 1535 581 1535 633 1535 c 0,6,7
 883 1535 883 1535 1007 1441 c 128,-1,8
 1131 1347 1131 1347 1131 1179 c 0,9,10
 1131 1125 1131 1125 1118 1067 c 128,-1,11
 1105 1009 1105 1009 1076 958 c 128,-1,12
 1047 907 1047 907 1000.5 868.5 c 128,-1,13
 954 830 954 830 887 814 c 1,14,15
 957 810 957 810 1020.5 781.5 c 128,-1,16
 1084 753 1084 753 1132 705 c 128,-1,17
 1180 657 1180 657 1208 593 c 128,-1,18
 1236 529 1236 529 1236 455 c 0,19,20
 1236 347 1236 347 1205 260 c 128,-1,21
 1174 173 1174 173 1103.5 112.5 c 128,-1,22
 1033 52 1033 52 918 19 c 128,-1,23
 803 -14 803 -14 636 -14 c 0,24,25
 595 -14 595 -14 549.5 -12.5 c 128,-1,26
 504 -11 504 -11 459 -8.5 c 128,-1,27
 414 -6 414 -6 370.5 -4 c 128,-1,28
 327 -2 327 -2 290 0 c 1,29,-1
 201 0 l 1,30,-1
 201 1523 l 1,0,-1
369 848 m 1,31,32
 393 845 393 845 440 843.5 c 128,-1,33
 487 842 487 842 539 842 c 128,-1,34
 591 842 591 842 639.5 843 c 128,-1,35
 688 844 688 844 716 844 c 1,36,37
 766 847 766 847 811.5 866.5 c 128,-1,38
 857 886 857 886 891.5 924 c 128,-1,39
 926 962 926 962 946.5 1019 c 128,-1,40
 967 1076 967 1076 967 1155 c 0,41,42
 967 1227 967 1227 940.5 1276.5 c 128,-1,43
 914 1326 914 1326 865.5 1356.5 c 128,-1,44
 817 1387 817 1387 750 1401 c 128,-1,45
 683 1415 683 1415 602 1415 c 0,46,47
 581 1415 581 1415 549.5 1414 c 128,-1,48
 518 1413 518 1413 485 1411.5 c 128,-1,49
 452 1410 452 1410 421 1408 c 128,-1,50
 390 1406 390 1406 369 1403 c 1,51,-1
 369 848 l 1,31,32
369 130 m 1,52,53
 432 118 432 118 508.5 114 c 128,-1,54
 585 110 585 110 655 110 c 0,55,56
 747 110 747 110 822.5 126 c 128,-1,57
 898 142 898 142 951.5 179.5 c 128,-1,58
 1005 217 1005 217 1034.5 279.5 c 128,-1,59
 1064 342 1064 342 1064 436 c 0,60,61
 1064 515 1064 515 1036 569.5 c 128,-1,62
 1008 624 1008 624 959 658 c 128,-1,63
 910 692 910 692 843 707 c 128,-1,64
 776 722 776 722 698 723 c 0,65,66
 669 723 669 723 621.5 723 c 128,-1,67
 574 723 574 723 524.5 723 c 128,-1,68
 475 723 475 723 431.5 722 c 128,-1,69
 388 721 388 721 369 719 c 1,70,-1
 369 130 l 1,52,53
EndSplineSet
EndChar

StartChar: C
Encoding: 67 67 34
Width: 1315
Flags: W
LayerCount: 2
Fore
SplineSet
99 754 m 0,0,1
 99 943 99 943 154 1089 c 128,-1,2
 209 1235 209 1235 304 1335 c 128,-1,3
 399 1435 399 1435 525.5 1486.5 c 128,-1,4
 652 1538 652 1538 795 1538 c 0,5,6
 882 1538 882 1538 946.5 1531 c 128,-1,7
 1011 1524 1011 1524 1058 1514.5 c 128,-1,8
 1105 1505 1105 1505 1138 1495 c 128,-1,9
 1171 1485 1171 1485 1195 1480 c 1,10,-1
 1170 1330 l 1,11,12
 1153 1336 1153 1336 1126 1347.5 c 128,-1,13
 1099 1359 1099 1359 1056 1370.5 c 128,-1,14
 1013 1382 1013 1382 951.5 1391 c 128,-1,15
 890 1400 890 1400 804 1400 c 0,16,17
 685 1400 685 1400 586.5 1358 c 128,-1,18
 488 1316 488 1316 417 1235 c 128,-1,19
 346 1154 346 1154 306.5 1036 c 128,-1,20
 267 918 267 918 267 766 c 0,21,22
 267 627 267 627 302.5 508.5 c 128,-1,23
 338 390 338 390 405.5 303 c 128,-1,24
 473 216 473 216 571 167 c 128,-1,25
 669 118 669 118 794 118 c 0,26,27
 865 118 865 118 928 127 c 128,-1,28
 991 136 991 136 1042.5 149.5 c 128,-1,29
 1094 163 1094 163 1131.5 179 c 128,-1,30
 1169 195 1169 195 1189 208 c 1,31,-1
 1191 64 l 1,32,33
 1156 53 1156 53 1119 39 c 128,-1,34
 1082 25 1082 25 1035.5 13 c 128,-1,35
 989 1 989 1 928.5 -7.5 c 128,-1,36
 868 -16 868 -16 787 -16 c 0,37,38
 630 -16 630 -16 503 39.5 c 128,-1,39
 376 95 376 95 286 196 c 128,-1,40
 196 297 196 297 147.5 439 c 128,-1,41
 99 581 99 581 99 754 c 0,0,1
EndSplineSet
EndChar

StartChar: D
Encoding: 68 68 35
Width: 1468
Flags: W
LayerCount: 2
Fore
SplineSet
201 1522 m 1,0,1
 205 1522 205 1522 222.5 1522 c 128,-1,2
 240 1522 240 1522 260.5 1522 c 128,-1,3
 281 1522 281 1522 298.5 1522.5 c 128,-1,4
 316 1523 316 1523 321 1523 c 0,5,6
 393 1523 393 1523 480.5 1529.5 c 128,-1,7
 568 1536 568 1536 659 1536 c 0,8,9
 840 1536 840 1536 975.5 1486.5 c 128,-1,10
 1111 1437 1111 1437 1200.5 1343 c 128,-1,11
 1290 1249 1290 1249 1334.5 1113 c 128,-1,12
 1379 977 1379 977 1379 805 c 0,13,14
 1379 618 1379 618 1329.5 465.5 c 128,-1,15
 1280 313 1280 313 1185 205 c 128,-1,16
 1090 97 1090 97 951.5 39 c 128,-1,17
 813 -19 813 -19 635 -16 c 0,18,19
 603 -15 603 -15 562.5 -13 c 128,-1,20
 522 -11 522 -11 479.5 -8.5 c 128,-1,21
 437 -6 437 -6 394 -4 c 128,-1,22
 351 -2 351 -2 313 -2 c 0,23,24
 305 -2 305 -2 287.5 -1.5 c 128,-1,25
 270 -1 270 -1 252 -0.5 c 128,-1,26
 234 0 234 0 219 0 c 128,-1,27
 204 0 204 0 201 0 c 1,28,-1
 201 1522 l 1,0,1
370 128 m 1,29,30
 399 124 399 124 435.5 120.5 c 128,-1,31
 472 117 472 117 511 114.5 c 128,-1,32
 550 112 550 112 588.5 111 c 128,-1,33
 627 110 627 110 660 110 c 0,34,35
 780 111 780 111 880 151.5 c 128,-1,36
 980 192 980 192 1051.5 274 c 128,-1,37
 1123 356 1123 356 1162.5 481.5 c 128,-1,38
 1202 607 1202 607 1203 780 c 0,39,40
 1204 948 1204 948 1167.5 1067.5 c 128,-1,41
 1131 1187 1131 1187 1057.5 1264 c 128,-1,42
 984 1341 984 1341 874 1377 c 128,-1,43
 764 1413 764 1413 619 1413 c 0,44,45
 547 1413 547 1413 484.5 1408.5 c 128,-1,46
 422 1404 422 1404 370 1399 c 1,47,-1
 370 128 l 1,29,30
EndSplineSet
EndChar

StartChar: E
Encoding: 69 69 36
Width: 1193
Flags: W
LayerCount: 2
Fore
SplineSet
201 1522 m 1,0,-1
 1059 1522 l 1,1,-1
 1059 1391 l 1,2,-1
 370 1391 l 1,3,-1
 370 852 l 1,4,-1
 873 852 l 1,5,-1
 873 721 l 1,6,-1
 370 721 l 1,7,-1
 370 133 l 1,8,-1
 1132 133 l 1,9,-1
 1132 0 l 1,10,-1
 201 0 l 1,11,-1
 201 1522 l 1,0,-1
EndSplineSet
EndChar

StartChar: F
Encoding: 70 70 37
Width: 1075
Flags: W
LayerCount: 2
Fore
SplineSet
201 1522 m 1,0,-1
 1052 1522 l 1,1,-1
 1052 1391 l 1,2,-1
 370 1391 l 1,3,-1
 370 830 l 1,4,-1
 880 830 l 1,5,-1
 880 699 l 1,6,-1
 370 699 l 1,7,-1
 370 0 l 1,8,-1
 201 0 l 1,9,-1
 201 1522 l 1,0,-1
EndSplineSet
EndChar

StartChar: G
Encoding: 71 71 38
Width: 1428
Flags: W
LayerCount: 2
Fore
SplineSet
102 750 m 0,0,1
 102 945 102 945 157 1092.5 c 128,-1,2
 212 1240 212 1240 307 1339 c 128,-1,3
 402 1438 402 1438 531 1488 c 128,-1,4
 660 1538 660 1538 807 1538 c 0,5,6
 889 1538 889 1538 948 1531.5 c 128,-1,7
 1007 1525 1007 1525 1054 1516 c 128,-1,8
 1101 1507 1101 1507 1141.5 1496.5 c 128,-1,9
 1182 1486 1182 1486 1227 1477 c 1,10,-1
 1220 1325 l 1,11,12
 1188 1340 1188 1340 1148 1354 c 128,-1,13
 1108 1368 1108 1368 1056.5 1379.5 c 128,-1,14
 1005 1391 1005 1391 940.5 1398 c 128,-1,15
 876 1405 876 1405 797 1405 c 0,16,17
 690 1405 690 1405 595.5 1364.5 c 128,-1,18
 501 1324 501 1324 430 1243.5 c 128,-1,19
 359 1163 359 1163 318 1044.5 c 128,-1,20
 277 926 277 926 277 770 c 0,21,22
 277 627 277 627 311 507 c 128,-1,23
 345 387 345 387 410.5 299.5 c 128,-1,24
 476 212 476 212 572 163 c 128,-1,25
 668 114 668 114 792 114 c 0,26,27
 853 114 853 114 908 120 c 128,-1,28
 963 126 963 126 1009.5 136 c 128,-1,29
 1056 146 1056 146 1092 158 c 128,-1,30
 1128 170 1128 170 1150 181 c 1,31,-1
 1150 617 l 1,32,-1
 834 628 l 1,33,-1
 834 750 l 1,34,-1
 1313 750 l 1,35,-1
 1313 91 l 1,36,37
 1281 89 1281 89 1239.5 72 c 128,-1,38
 1198 55 1198 55 1137.5 35.5 c 128,-1,39
 1077 16 1077 16 993.5 0 c 128,-1,40
 910 -16 910 -16 795 -16 c 0,41,42
 631 -16 631 -16 502.5 42 c 128,-1,43
 374 100 374 100 285 202.5 c 128,-1,44
 196 305 196 305 149 445.5 c 128,-1,45
 102 586 102 586 102 750 c 0,0,1
EndSplineSet
EndChar

StartChar: H
Encoding: 72 72 39
Width: 1532
Flags: W
LayerCount: 2
Fore
SplineSet
201 1522 m 1,0,-1
 370 1522 l 1,1,-1
 370 840 l 1,2,-1
 1162 840 l 1,3,-1
 1162 1522 l 1,4,-1
 1331 1522 l 1,5,-1
 1331 0 l 1,6,-1
 1162 0 l 1,7,-1
 1162 710 l 1,8,-1
 370 710 l 1,9,-1
 370 0 l 1,10,-1
 201 0 l 1,11,-1
 201 1522 l 1,0,-1
EndSplineSet
EndChar

StartChar: I
Encoding: 73 73 40
Width: 593
Flags: W
LayerCount: 2
Fore
SplineSet
211 1522 m 1,0,-1
 382 1522 l 1,1,-1
 382 0 l 1,2,-1
 211 0 l 1,3,-1
 211 1522 l 1,0,-1
EndSplineSet
EndChar

StartChar: J
Encoding: 74 74 41
Width: 684
Flags: W
LayerCount: 2
Fore
SplineSet
-47 -243 m 1,0,1
 -1 -230 -1 -230 45.5 -206.5 c 128,-1,2
 92 -183 92 -183 132 -149 c 128,-1,3
 172 -115 172 -115 203 -70 c 128,-1,4
 234 -25 234 -25 251 31 c 0,5,6
 264 76 264 76 271.5 133.5 c 128,-1,7
 279 191 279 191 282 258.5 c 128,-1,8
 285 326 285 326 285.5 400.5 c 128,-1,9
 286 475 286 475 286 554 c 2,10,-1
 286 1522 l 1,11,-1
 457 1522 l 1,12,-1
 457 537 l 2,13,14
 457 403 457 403 456.5 284 c 128,-1,15
 456 165 456 165 438 65 c 0,16,17
 421 -26 421 -26 376 -96 c 128,-1,18
 331 -166 331 -166 270.5 -215.5 c 128,-1,19
 210 -265 210 -265 140.5 -294 c 128,-1,20
 71 -323 71 -323 6 -332 c 1,21,-1
 -47 -243 l 1,22,-1
 -47 -243 l 1,0,1
EndSplineSet
EndChar

StartChar: K
Encoding: 75 75 42
Width: 1354
Flags: W
LayerCount: 2
Fore
SplineSet
201 1522 m 1,0,-1
 370 1522 l 1,1,-1
 370 701 l 1,2,-1
 1045 1522 l 1,3,-1
 1246 1522 l 1,4,-1
 705 876 l 1,5,6
 730 836 730 836 768.5 778.5 c 128,-1,7
 807 721 807 721 852.5 653.5 c 128,-1,8
 898 586 898 586 948 512.5 c 128,-1,9
 998 439 998 439 1045 367.5 c 128,-1,10
 1092 296 1092 296 1134 229.5 c 128,-1,11
 1176 163 1176 163 1206 111 c 2,12,-1
 1272 0 l 1,13,-1
 1076 0 l 1,14,15
 1070 9 1070 9 1064.5 19.5 c 128,-1,16
 1059 30 1059 30 1052 43 c 128,-1,17
 1045 56 1045 56 1036 73 c 128,-1,18
 1027 90 1027 90 1014 113 c 0,19,20
 989 158 989 158 956 211 c 128,-1,21
 923 264 923 264 887 320 c 128,-1,22
 851 376 851 376 812.5 433.5 c 128,-1,23
 774 491 774 491 736.5 547 c 128,-1,24
 699 603 699 603 664 655 c 128,-1,25
 629 707 629 707 600 752 c 1,26,-1
 370 488 l 1,27,-1
 370 0 l 1,28,-1
 201 0 l 1,29,-1
 201 1522 l 1,0,-1
EndSplineSet
EndChar

StartChar: L
Encoding: 76 76 43
Width: 1057
Flags: W
LayerCount: 2
Fore
SplineSet
201 1522 m 1,0,-1
 373 1522 l 1,1,-1
 373 133 l 1,2,-1
 1002 133 l 1,3,-1
 1002 0 l 1,4,-1
 201 0 l 1,5,-1
 201 1522 l 1,0,-1
EndSplineSet
EndChar

StartChar: M
Encoding: 77 77 44
Width: 1903
Flags: W
LayerCount: 2
Fore
SplineSet
313 1522 m 1,0,-1
 553 1522 l 1,1,-1
 890 533 l 1,2,-1
 965 247 l 1,3,-1
 1038 533 l 1,4,-1
 1356 1522 l 1,5,-1
 1584 1522 l 1,6,-1
 1780 0 l 1,7,-1
 1609 0 l 1,8,-1
 1503 947 l 1,9,-1
 1459 1397 l 1,10,-1
 1335 947 l 1,11,-1
 1012 -15 l 1,12,-1
 919 -15 l 1,13,-1
 580 947 l 1,14,-1
 444 1397 l 1,15,-1
 406 947 l 1,16,-1
 315 0 l 1,17,-1
 151 -1 l 1,18,-1
 313 1522 l 1,0,-1
EndSplineSet
EndChar

StartChar: N
Encoding: 78 78 45
Width: 1549
Flags: W
LayerCount: 2
Fore
SplineSet
200 1522 m 1,0,-1
 357 1522 l 1,1,-1
 1064 459 l 1,2,-1
 1205 213 l 1,3,-1
 1193 526 l 1,4,-1
 1193 1522 l 1,5,-1
 1349 1522 l 1,6,-1
 1349 0 l 1,7,-1
 1193 0 l 1,8,-1
 501 1035 l 1,9,-1
 345 1299 l 1,10,-1
 356 970 l 1,11,-1
 356 0 l 1,12,-1
 200 0 l 1,13,-1
 200 1522 l 1,0,-1
EndSplineSet
EndChar

StartChar: O
Encoding: 79 79 46
Width: 1560
Flags: W
LayerCount: 2
Fore
SplineSet
773 -16 m 0,0,1
 616 -19 616 -19 490.5 38.5 c 128,-1,2
 365 96 365 96 278.5 201 c 128,-1,3
 192 306 192 306 147 451 c 128,-1,4
 102 596 102 596 105 769 c 0,5,6
 109 959 109 959 164.5 1102.5 c 128,-1,7
 220 1246 220 1246 313.5 1342.5 c 128,-1,8
 407 1439 407 1439 533 1488 c 128,-1,9
 659 1537 659 1537 803 1538 c 0,10,11
 954 1539 954 1539 1076 1484 c 128,-1,12
 1198 1429 1198 1429 1283.5 1327 c 128,-1,13
 1369 1225 1369 1225 1413.5 1082 c 128,-1,14
 1458 939 1458 939 1455 764 c 0,15,16
 1451 575 1451 575 1398.5 430.5 c 128,-1,17
 1346 286 1346 286 1255 187.5 c 128,-1,18
 1164 89 1164 89 1041 38 c 128,-1,19
 918 -13 918 -13 773 -16 c 0,0,1
779 114 m 0,20,21
 891 115 891 115 983.5 158 c 128,-1,22
 1076 201 1076 201 1142.5 284 c 128,-1,23
 1209 367 1209 367 1245.5 489.5 c 128,-1,24
 1282 612 1282 612 1283 772 c 0,25,26
 1284 903 1284 903 1253 1019.5 c 128,-1,27
 1222 1136 1222 1136 1161 1222.5 c 128,-1,28
 1100 1309 1100 1309 1009 1359.5 c 128,-1,29
 918 1410 918 1410 798 1409 c 0,30,31
 689 1408 689 1408 594 1367 c 128,-1,32
 499 1326 499 1326 428.5 1245 c 128,-1,33
 358 1164 358 1164 317.5 1042 c 128,-1,34
 277 920 277 920 276 758 c 0,35,36
 275 627 275 627 306.5 510 c 128,-1,37
 338 393 338 393 401.5 304.5 c 128,-1,38
 465 216 465 216 559.5 164.5 c 128,-1,39
 654 113 654 113 779 114 c 0,20,21
EndSplineSet
EndChar

StartChar: P
Encoding: 80 80 47
Width: 1270
Flags: W
LayerCount: 2
Fore
SplineSet
201 1522 m 1,0,-1
 283 1522 l 2,1,2
 369 1522 369 1522 465 1529 c 128,-1,3
 561 1536 561 1536 661 1536 c 0,4,5
 782 1536 782 1536 879.5 1509 c 128,-1,6
 977 1482 977 1482 1045.5 1423.5 c 128,-1,7
 1114 1365 1114 1365 1151 1271.5 c 128,-1,8
 1188 1178 1188 1178 1188 1045 c 0,9,10
 1188 921 1188 921 1148.5 825 c 128,-1,11
 1109 729 1109 729 1035 663 c 128,-1,12
 961 597 961 597 855 562.5 c 128,-1,13
 749 528 749 528 617 527 c 0,14,15
 576 527 576 527 538.5 528 c 128,-1,16
 501 529 501 529 468.5 530.5 c 128,-1,17
 436 532 436 532 410.5 533.5 c 128,-1,18
 385 535 385 535 370 535 c 1,19,-1
 370 0 l 1,20,-1
 201 0 l 1,21,-1
 201 1522 l 1,0,-1
370 664 m 1,22,23
 394 661 394 661 425 658.5 c 128,-1,24
 456 656 456 656 489 654.5 c 128,-1,25
 522 653 522 653 553 652.5 c 128,-1,26
 584 652 584 652 607 652 c 0,27,28
 694 653 694 653 769 673.5 c 128,-1,29
 844 694 844 694 900 740 c 128,-1,30
 956 786 956 786 988 860.5 c 128,-1,31
 1020 935 1020 935 1020 1044 c 0,32,33
 1020 1144 1020 1144 994.5 1215 c 128,-1,34
 969 1286 969 1286 918 1331 c 128,-1,35
 867 1376 867 1376 790.5 1396 c 128,-1,36
 714 1416 714 1416 612 1414 c 0,37,38
 552 1412 552 1412 488 1409 c 128,-1,39
 424 1406 424 1406 370 1398 c 1,40,-1
 370 664 l 1,22,23
EndSplineSet
EndChar

StartChar: Q
Encoding: 81 81 48
Width: 1560
Flags: W
LayerCount: 2
Fore
SplineSet
773 -16 m 0,0,1
 616 -19 616 -19 490.5 38.5 c 128,-1,2
 365 96 365 96 278.5 201 c 128,-1,3
 192 306 192 306 147 451 c 128,-1,4
 102 596 102 596 105 769 c 0,5,6
 109 959 109 959 164.5 1102.5 c 128,-1,7
 220 1246 220 1246 313.5 1342.5 c 128,-1,8
 407 1439 407 1439 533 1488 c 128,-1,9
 659 1537 659 1537 803 1538 c 0,10,11
 954 1539 954 1539 1076 1484 c 128,-1,12
 1198 1429 1198 1429 1283.5 1327 c 128,-1,13
 1369 1225 1369 1225 1413.5 1082 c 128,-1,14
 1458 939 1458 939 1455 764 c 0,15,16
 1452 606 1452 606 1414 479 c 128,-1,17
 1376 352 1376 352 1310 257 c 128,-1,18
 1244 162 1244 162 1153.5 100 c 128,-1,19
 1063 38 1063 38 954 9 c 1,20,21
 1017 -66 1017 -66 1111.5 -107.5 c 128,-1,22
 1206 -149 1206 -149 1327 -149 c 0,23,24
 1346 -149 1346 -149 1370.5 -148 c 128,-1,25
 1395 -147 1395 -147 1419 -144.5 c 128,-1,26
 1443 -142 1443 -142 1465.5 -137.5 c 128,-1,27
 1488 -133 1488 -133 1505 -126 c 1,28,-1
 1505 -249 l 1,29,30
 1493 -257 1493 -257 1474.5 -264 c 128,-1,31
 1456 -271 1456 -271 1432.5 -276 c 128,-1,32
 1409 -281 1409 -281 1382 -284 c 128,-1,33
 1355 -287 1355 -287 1328 -287 c 0,34,35
 1250 -287 1250 -287 1179 -275 c 128,-1,36
 1108 -263 1108 -263 1042.5 -232 c 128,-1,37
 977 -201 977 -201 915.5 -148.5 c 128,-1,38
 854 -96 854 -96 795 -15 c 1,39,40
 790 -15 790 -15 784 -15.5 c 128,-1,41
 778 -16 778 -16 773 -16 c 0,0,1
779 114 m 0,42,43
 891 115 891 115 983.5 158 c 128,-1,44
 1076 201 1076 201 1142.5 284 c 128,-1,45
 1209 367 1209 367 1245.5 489.5 c 128,-1,46
 1282 612 1282 612 1283 772 c 0,47,48
 1284 903 1284 903 1253 1019.5 c 128,-1,49
 1222 1136 1222 1136 1161 1222.5 c 128,-1,50
 1100 1309 1100 1309 1009 1359.5 c 128,-1,51
 918 1410 918 1410 798 1409 c 0,52,53
 689 1408 689 1408 594 1367 c 128,-1,54
 499 1326 499 1326 428.5 1245 c 128,-1,55
 358 1164 358 1164 317.5 1042 c 128,-1,56
 277 920 277 920 276 758 c 0,57,58
 275 627 275 627 306.5 510 c 128,-1,59
 338 393 338 393 401.5 304.5 c 128,-1,60
 465 216 465 216 559.5 164.5 c 128,-1,61
 654 113 654 113 779 114 c 0,42,43
EndSplineSet
EndChar

StartChar: R
Encoding: 82 82 49
Width: 1343
Flags: W
LayerCount: 2
Fore
SplineSet
201 1522 m 1,0,-1
 247 1522 l 2,1,2
 265 1522 265 1522 280.5 1522.5 c 128,-1,3
 296 1523 296 1523 301 1523 c 0,4,5
 336 1523 336 1523 377.5 1525.5 c 128,-1,6
 419 1528 419 1528 465 1530 c 128,-1,7
 511 1532 511 1532 559.5 1534 c 128,-1,8
 608 1536 608 1536 656 1536 c 0,9,10
 772 1536 772 1536 868 1514 c 128,-1,11
 964 1492 964 1492 1033 1442 c 128,-1,12
 1102 1392 1102 1392 1140 1312 c 128,-1,13
 1178 1232 1178 1232 1178 1116 c 0,14,15
 1178 1030 1178 1030 1156 960 c 128,-1,16
 1134 890 1134 890 1093.5 836.5 c 128,-1,17
 1053 783 1053 783 996 746.5 c 128,-1,18
 939 710 939 710 869 690 c 1,19,20
 906 667 906 667 939.5 627.5 c 128,-1,21
 973 588 973 588 1004 537.5 c 128,-1,22
 1035 487 1035 487 1063 429.5 c 128,-1,23
 1091 372 1091 372 1118 314 c 128,-1,24
 1145 256 1145 256 1170 201.5 c 128,-1,25
 1195 147 1195 147 1220 102 c 0,26,27
 1237 73 1237 73 1251 47 c 128,-1,28
 1265 21 1265 21 1278 0 c 1,29,-1
 1087 0 l 1,30,31
 1081 8 1081 8 1075.5 16.5 c 128,-1,32
 1070 25 1070 25 1064 37 c 128,-1,33
 1058 49 1058 49 1050.5 64.5 c 128,-1,34
 1043 80 1043 80 1033 102 c 0,35,36
 1011 146 1011 146 988 202.5 c 128,-1,37
 965 259 965 259 939 317.5 c 128,-1,38
 913 376 913 376 884.5 434 c 128,-1,39
 856 492 856 492 823.5 539.5 c 128,-1,40
 791 587 791 587 754 620 c 128,-1,41
 717 653 717 653 675 664 c 1,42,43
 616 662 616 662 542.5 661.5 c 128,-1,44
 469 661 469 661 370 663 c 1,45,-1
 370 0 l 1,46,-1
 201 0 l 1,47,-1
 201 1522 l 1,0,-1
370 783 m 1,48,49
 388 781 388 781 426 780 c 128,-1,50
 464 779 464 779 506.5 778 c 128,-1,51
 549 777 549 777 588.5 777 c 128,-1,52
 628 777 628 777 649 777 c 0,53,54
 729 778 729 778 794.5 798.5 c 128,-1,55
 860 819 860 819 906.5 860 c 128,-1,56
 953 901 953 901 978.5 963 c 128,-1,57
 1004 1025 1004 1025 1004 1108 c 0,58,59
 1004 1189 1004 1189 982 1246.5 c 128,-1,60
 960 1304 960 1304 914 1340.5 c 128,-1,61
 868 1377 868 1377 797 1394 c 128,-1,62
 726 1411 726 1411 629 1411 c 0,63,64
 596 1411 596 1411 559.5 1410 c 128,-1,65
 523 1409 523 1409 488.5 1407 c 128,-1,66
 454 1405 454 1405 423.5 1402 c 128,-1,67
 393 1399 393 1399 370 1395 c 1,68,-1
 370 783 l 1,48,49
EndSplineSet
EndChar

StartChar: S
Encoding: 83 83 50
Width: 1133
Flags: W
LayerCount: 2
Fore
SplineSet
166 213 m 1,0,1
 196 194 196 194 239.5 177 c 128,-1,2
 283 160 283 160 333 147 c 128,-1,3
 383 134 383 134 438 126.5 c 128,-1,4
 493 119 493 119 547 119 c 0,5,6
 626 119 626 119 690 134 c 128,-1,7
 754 149 754 149 799 179.5 c 128,-1,8
 844 210 844 210 868 256.5 c 128,-1,9
 892 303 892 303 892 366 c 0,10,11
 892 431 892 431 865 479 c 128,-1,12
 838 527 838 527 790 565 c 128,-1,13
 742 603 742 603 675 636.5 c 128,-1,14
 608 670 608 670 528 706 c 0,15,16
 454 740 454 740 382.5 783.5 c 128,-1,17
 311 827 311 827 255 883 c 128,-1,18
 199 939 199 939 164.5 1008.5 c 128,-1,19
 130 1078 130 1078 130 1162 c 0,20,21
 130 1267 130 1267 173.5 1339 c 128,-1,22
 217 1411 217 1411 287 1455 c 128,-1,23
 357 1499 357 1499 444.5 1518.5 c 128,-1,24
 532 1538 532 1538 621 1538 c 0,25,26
 693 1538 693 1538 750.5 1530 c 128,-1,27
 808 1522 808 1522 852.5 1510 c 128,-1,28
 897 1498 897 1498 929 1483.5 c 128,-1,29
 961 1469 961 1469 981 1456 c 1,30,-1
 946 1323 l 1,31,32
 918 1341 918 1341 885.5 1356 c 128,-1,33
 853 1371 853 1371 813.5 1382 c 128,-1,34
 774 1393 774 1393 726 1399 c 128,-1,35
 678 1405 678 1405 620 1405 c 0,36,37
 557 1405 557 1405 497.5 1392 c 128,-1,38
 438 1379 438 1379 392 1351.5 c 128,-1,39
 346 1324 346 1324 318.5 1282.5 c 128,-1,40
 291 1241 291 1241 291 1184 c 0,41,42
 291 1120 291 1120 313.5 1072.5 c 128,-1,43
 336 1025 336 1025 379 986 c 128,-1,44
 422 947 422 947 485 912 c 128,-1,45
 548 877 548 877 629 838 c 0,46,47
 705 802 705 802 781.5 760.5 c 128,-1,48
 858 719 858 719 919.5 665.5 c 128,-1,49
 981 612 981 612 1019.5 543.5 c 128,-1,50
 1058 475 1058 475 1058 385 c 0,51,52
 1058 284 1058 284 1021 209 c 128,-1,53
 984 134 984 134 918 84 c 128,-1,54
 852 34 852 34 760 9 c 128,-1,55
 668 -16 668 -16 558 -16 c 0,56,57
 483 -16 483 -16 414 -7 c 128,-1,58
 345 2 345 2 288 15.5 c 128,-1,59
 231 29 231 29 189 44.5 c 128,-1,60
 147 60 147 60 126 74 c 1,61,-1
 166 213 l 1,0,1
EndSplineSet
EndChar

StartChar: T
Encoding: 84 84 51
Width: 1269
Flags: W
LayerCount: 2
Fore
SplineSet
548 1390 m 1,0,-1
 57 1390 l 1,1,-1
 57 1522 l 1,2,-1
 1217 1522 l 1,3,-1
 1217 1390 l 1,4,-1
 719 1390 l 1,5,-1
 719 0 l 1,6,-1
 548 0 l 1,7,-1
 548 1390 l 1,0,-1
EndSplineSet
EndChar

StartChar: U
Encoding: 85 85 52
Width: 1461
Flags: W
LayerCount: 2
Fore
SplineSet
164 1523 m 1,0,-1
 333 1523 l 1,1,-1
 333 684 l 2,2,3
 333 518 333 518 361 409 c 128,-1,4
 389 300 389 300 442 235 c 128,-1,5
 495 170 495 170 571.5 143.5 c 128,-1,6
 648 117 648 117 744 117 c 0,7,8
 835 117 835 117 906.5 144.5 c 128,-1,9
 978 172 978 172 1027.5 237.5 c 128,-1,10
 1077 303 1077 303 1103.5 412 c 128,-1,11
 1130 521 1130 521 1130 685 c 2,12,-1
 1130 1522 l 1,13,-1
 1298 1522 l 1,14,-1
 1298 645 l 2,15,16
 1298 316 1298 316 1159 150 c 128,-1,17
 1020 -16 1020 -16 739 -16 c 0,18,19
 588 -16 588 -16 479.5 27 c 128,-1,20
 371 70 371 70 301 153.5 c 128,-1,21
 231 237 231 237 197.5 360 c 128,-1,22
 164 483 164 483 164 644 c 2,23,-1
 164 1523 l 1,0,-1
EndSplineSet
EndChar

StartChar: V
Encoding: 86 86 53
Width: 1321
Flags: W
LayerCount: 2
Fore
SplineSet
26 1522 m 1,0,-1
 205 1522 l 1,1,-1
 596 437 l 1,2,-1
 672 193 l 1,3,-1
 748 437 l 1,4,-1
 1118 1522 l 1,5,-1
 1296 1522 l 1,6,-1
 742 -16 l 1,7,-1
 600 -16 l 1,8,-1
 26 1522 l 1,0,-1
EndSplineSet
EndChar

StartChar: W
Encoding: 87 87 54
Width: 1894
Flags: W
LayerCount: 2
Fore
SplineSet
24 1522 m 1,0,-1
 198 1522 l 1,1,-1
 447 516 l 1,2,-1
 516 181 l 1,3,-1
 591 516 l 1,4,-1
 888 1522 l 1,5,-1
 1013 1522 l 1,6,-1
 1314 516 l 1,7,-1
 1400 184 l 1,8,-1
 1463 515 l 1,9,-1
 1700 1522 l 1,10,-1
 1870 1522 l 1,11,-1
 1479 -16 l 1,12,-1
 1312 -16 l 1,13,-1
 987 1080 l 1,14,-1
 950 1262 l 1,15,-1
 913 1080 l 1,16,-1
 585 -16 l 1,17,-1
 436 -16 l 1,18,-1
 24 1522 l 1,0,-1
EndSplineSet
EndChar

StartChar: X
Encoding: 88 88 55
Width: 1281
Flags: W
LayerCount: 2
Fore
SplineSet
541 782 m 1,0,-1
 57 1522 l 1,1,-1
 248 1523 l 1,2,-1
 650 881 l 1,3,-1
 1038 1522 l 1,4,-1
 1220 1522 l 1,5,-1
 740 758 l 1,6,-1
 1235 0 l 1,7,-1
 1042 0 l 1,8,-1
 634 655 l 1,9,-1
 233 0 l 1,10,-1
 51 0 l 1,11,-1
 541 782 l 1,0,-1
EndSplineSet
EndChar

StartChar: Y
Encoding: 89 89 56
Width: 1230
Flags: W
LayerCount: 2
Fore
SplineSet
538 584 m 1,0,-1
 21 1522 l 1,1,-1
 202 1522 l 1,2,-1
 576 821 l 1,3,-1
 627 707 l 1,4,-1
 671 821 l 1,5,-1
 1031 1522 l 1,6,-1
 1209 1522 l 1,7,-1
 710 585 l 1,8,-1
 710 0 l 1,9,-1
 538 0 l 1,10,-1
 538 584 l 1,0,-1
EndSplineSet
EndChar

StartChar: Z
Encoding: 90 90 57
Width: 1299
Flags: W
LayerCount: 2
Fore
SplineSet
909 1275 m 1,0,-1
 994 1387 l 1,1,-1
 184 1387 l 1,2,-1
 184 1522 l 1,3,-1
 1179 1522 l 1,4,-1
 1215 1458 l 1,5,-1
 410 239 l 1,6,-1
 324 133 l 1,7,-1
 1170 133 l 1,8,-1
 1170 0 l 1,9,-1
 137 0 l 1,10,-1
 101 66 l 1,11,-1
 909 1275 l 1,0,-1
EndSplineSet
EndChar

StartChar: bracketleft
Encoding: 91 91 58
Width: 841
Flags: W
LayerCount: 2
Fore
SplineSet
200 1544 m 2,0,1
 200 1601 200 1601 206.5 1638.5 c 128,-1,2
 213 1676 213 1676 229.5 1697.5 c 128,-1,3
 246 1719 246 1719 275 1728 c 128,-1,4
 304 1737 304 1737 350 1737 c 0,5,6
 389 1737 389 1737 430 1735 c 128,-1,7
 471 1733 471 1733 511 1730 c 128,-1,8
 551 1727 551 1727 589.5 1723.5 c 128,-1,9
 628 1720 628 1720 662 1717 c 1,10,-1
 662 1627 l 1,11,-1
 360 1627 l 1,12,-1
 360 -82 l 1,13,-1
 662 -84 l 1,14,-1
 662 -171 l 1,15,16
 593 -181 593 -181 510.5 -186 c 128,-1,17
 428 -191 428 -191 350 -191 c 0,18,19
 304 -191 304 -191 275 -182 c 128,-1,20
 246 -173 246 -173 229.5 -151.5 c 128,-1,21
 213 -130 213 -130 206.5 -92.5 c 128,-1,22
 200 -55 200 -55 200 2 c 2,23,-1
 200 1544 l 2,0,1
EndSplineSet
EndChar

StartChar: asciicircum
Encoding: 94 94 61
Width: 1363
Flags: W
LayerCount: 2
Fore
SplineSet
603 1531 m 1,0,-1
 757 1531 l 1,1,-1
 1174 509 l 1,2,-1
 1014 509 l 1,3,-1
 680 1348 l 1,4,-1
 349 509 l 1,5,-1
 189 509 l 1,6,-1
 603 1531 l 1,0,-1
EndSplineSet
EndChar

StartChar: underscore
Encoding: 95 95 62
Width: 1692
Flags: W
LayerCount: 2
Fore
SplineSet
1732 -297 m 1,0,-1
 1732 -402 l 1,1,-1
 -40 -402 l 1,2,-1
 -40 -297 l 1,3,-1
 1732 -297 l 1,0,-1
EndSplineSet
EndChar

StartChar: grave
Encoding: 96 96 63
Width: 557
Flags: W
LayerCount: 2
Fore
SplineSet
422 1315 m 1,0,1
 386 1339 386 1339 335 1382.5 c 128,-1,2
 284 1426 284 1426 230.5 1477 c 128,-1,3
 177 1528 177 1528 128.5 1581.5 c 128,-1,4
 80 1635 80 1635 50 1678 c 1,5,-1
 170 1781 l 1,6,7
 246 1682 246 1682 332.5 1582.5 c 128,-1,8
 419 1483 419 1483 507 1383 c 1,9,-1
 422 1315 l 1,10,-1
 422 1315 l 1,0,1
EndSplineSet
EndChar

StartChar: a
Encoding: 97 97 64
Width: 1134
Flags: W
LayerCount: 2
Fore
SplineSet
104 301 m 0,0,1
 104 414 104 414 167 492 c 128,-1,2
 230 570 230 570 350 615 c 0,3,4
 400 634 400 634 459 646.5 c 128,-1,5
 518 659 518 659 578 667 c 128,-1,6
 638 675 638 675 694 678.5 c 128,-1,7
 750 682 750 682 795 682 c 1,8,-1
 795 814 l 2,9,10
 795 883 795 883 778.5 925.5 c 128,-1,11
 762 968 762 968 729.5 991 c 128,-1,12
 697 1014 697 1014 650.5 1022 c 128,-1,13
 604 1030 604 1030 544 1030 c 0,14,15
 499 1030 499 1030 448 1021 c 128,-1,16
 397 1012 397 1012 349.5 997.5 c 128,-1,17
 302 983 302 983 262 966 c 128,-1,18
 222 949 222 949 198 933 c 1,19,-1
 156 1043 l 1,20,21
 171 1053 171 1053 213.5 1072 c 128,-1,22
 256 1091 256 1091 315 1110 c 128,-1,23
 374 1129 374 1129 444.5 1143 c 128,-1,24
 515 1157 515 1157 587 1157 c 0,25,26
 671 1157 671 1157 739.5 1142.5 c 128,-1,27
 808 1128 808 1128 857.5 1089 c 128,-1,28
 907 1050 907 1050 934 982 c 128,-1,29
 961 914 961 914 961 807 c 2,30,-1
 961 -16 l 1,31,-1
 893 -16 l 2,32,33
 871 -16 871 -16 854.5 -14 c 128,-1,34
 838 -12 838 -12 827 -4 c 128,-1,35
 816 4 816 4 810.5 20 c 128,-1,36
 805 36 805 36 805 64 c 2,37,-1
 804 106 l 1,38,39
 781 85 781 85 745.5 63.5 c 128,-1,40
 710 42 710 42 665 24 c 128,-1,41
 620 6 620 6 566 -5 c 128,-1,42
 512 -16 512 -16 451 -16 c 0,43,44
 375 -16 375 -16 311.5 5.5 c 128,-1,45
 248 27 248 27 202 68 c 128,-1,46
 156 109 156 109 130 168 c 128,-1,47
 104 227 104 227 104 301 c 0,0,1
269 314 m 0,48,49
 269 269 269 269 282 231.5 c 128,-1,50
 295 194 295 194 323 166.5 c 128,-1,51
 351 139 351 139 394.5 124 c 128,-1,52
 438 109 438 109 500 109 c 0,53,54
 554 109 554 109 603 120.5 c 128,-1,55
 652 132 652 132 691.5 148 c 128,-1,56
 731 164 731 164 758 180.5 c 128,-1,57
 785 197 785 197 795 208 c 1,58,-1
 795 575 l 1,59,60
 764 575 764 575 719 572.5 c 128,-1,61
 674 570 674 570 624.5 563.5 c 128,-1,62
 575 557 575 557 526.5 547 c 128,-1,63
 478 537 478 537 442 522 c 1,64,65
 356 490 356 490 312.5 440 c 128,-1,66
 269 390 269 390 269 314 c 0,48,49
EndSplineSet
Substitution2: "Single Substitution lookup 16 subtable" ordfeminine
Substitution2: "'aalt' Access All Alternates in Latin lookup 0 subtable" ordfeminine
EndChar

StartChar: b
Encoding: 98 98 65
Width: 1235
Flags: W
LayerCount: 2
Fore
SplineSet
182 1661 m 1,0,-1
 349 1661 l 1,1,-1
 349 1186 l 1,2,-1
 342 1016 l 1,3,4
 364 1037 364 1037 395.5 1061.5 c 128,-1,5
 427 1086 427 1086 470 1107 c 128,-1,6
 513 1128 513 1128 567.5 1142 c 128,-1,7
 622 1156 622 1156 690 1156 c 0,8,9
 783 1156 783 1156 865 1122.5 c 128,-1,10
 947 1089 947 1089 1008 1021 c 128,-1,11
 1069 953 1069 953 1104.5 851 c 128,-1,12
 1140 749 1140 749 1140 612 c 0,13,14
 1140 472 1140 472 1098 356.5 c 128,-1,15
 1056 241 1056 241 980.5 158 c 128,-1,16
 905 75 905 75 799 29 c 128,-1,17
 693 -17 693 -17 565 -17 c 0,18,19
 503 -17 503 -17 440.5 -8 c 128,-1,20
 378 1 378 1 325.5 13.5 c 128,-1,21
 273 26 273 26 235 40 c 128,-1,22
 197 54 197 54 182 64 c 1,23,-1
 182 1661 l 1,0,-1
349 155 m 1,24,25
 378 133 378 133 441.5 119.5 c 128,-1,26
 505 106 505 106 584 106 c 0,27,28
 659 106 659 106 728.5 136 c 128,-1,29
 798 166 798 166 851 226 c 128,-1,30
 904 286 904 286 936.5 377 c 128,-1,31
 969 468 969 468 970 590 c 0,32,33
 972 803 972 803 889 914 c 128,-1,34
 806 1025 806 1025 644 1025 c 0,35,36
 597 1025 597 1025 553 1014 c 128,-1,37
 509 1003 509 1003 470.5 986 c 128,-1,38
 432 969 432 969 401 948.5 c 128,-1,39
 370 928 370 928 349 909 c 1,40,-1
 349 155 l 1,24,25
EndSplineSet
EndChar

StartChar: c
Encoding: 99 99 66
Width: 999
Flags: W
LayerCount: 2
Fore
SplineSet
99 553 m 0,0,1
 99 682 99 682 133.5 792.5 c 128,-1,2
 168 903 168 903 236.5 984 c 128,-1,3
 305 1065 305 1065 405 1110.5 c 128,-1,4
 505 1156 505 1156 636 1156 c 0,5,6
 686 1156 686 1156 730 1150.5 c 128,-1,7
 774 1145 774 1145 810 1136.5 c 128,-1,8
 846 1128 846 1128 872 1117.5 c 128,-1,9
 898 1107 898 1107 913 1097 c 1,10,-1
 885 965 l 1,11,12
 843 996 843 996 776 1011.5 c 128,-1,13
 709 1027 709 1027 628 1027 c 0,14,15
 557 1027 557 1027 492 1000 c 128,-1,16
 427 973 427 973 377 918 c 128,-1,17
 327 863 327 863 295.5 780.5 c 128,-1,18
 264 698 264 698 261 586 c 0,19,20
 258 466 258 466 286 377 c 128,-1,21
 314 288 314 288 363 228.5 c 128,-1,22
 412 169 412 169 478 139.5 c 128,-1,23
 544 110 544 110 616 110 c 0,24,25
 665 110 665 110 709.5 118 c 128,-1,26
 754 126 754 126 791.5 137.5 c 128,-1,27
 829 149 829 149 858 163 c 128,-1,28
 887 177 887 177 905 189 c 1,29,-1
 939 93 l 1,30,31
 885 43 885 43 793 13.5 c 128,-1,32
 701 -16 701 -16 592 -16 c 0,33,34
 474 -16 474 -16 382.5 27 c 128,-1,35
 291 70 291 70 228 146.5 c 128,-1,36
 165 223 165 223 132 327 c 128,-1,37
 99 431 99 431 99 553 c 0,0,1
EndSplineSet
EndChar

StartChar: d
Encoding: 100 100 67
Width: 1230
Flags: W
LayerCount: 2
Fore
SplineSet
95 533 m 0,0,1
 95 669 95 669 136 783.5 c 128,-1,2
 177 898 177 898 252 981 c 128,-1,3
 327 1064 327 1064 432.5 1110 c 128,-1,4
 538 1156 538 1156 667 1156 c 0,5,6
 736 1156 736 1156 792.5 1144.5 c 128,-1,7
 849 1133 849 1133 888 1118 c 1,8,-1
 885 1186 l 1,9,-1
 885 1664 l 1,10,-1
 1052 1664 l 1,11,-1
 1052 -12 l 1,12,-1
 980 -12 l 2,13,14
 961 -12 961 -12 945 -10 c 128,-1,15
 929 -8 929 -8 918 -1 c 128,-1,16
 907 6 907 6 900.5 19.5 c 128,-1,17
 894 33 894 33 894 57 c 2,18,-1
 894 125 l 1,19,20
 873 104 873 104 841.5 79.5 c 128,-1,21
 810 55 810 55 767.5 34 c 128,-1,22
 725 13 725 13 669.5 -1.5 c 128,-1,23
 614 -16 614 -16 544 -16 c 0,24,25
 457 -16 457 -16 376 15.5 c 128,-1,26
 295 47 295 47 232.5 113.5 c 128,-1,27
 170 180 170 180 132.5 284 c 128,-1,28
 95 388 95 388 95 533 c 0,0,1
590 115 m 0,29,30
 639 115 639 115 683.5 126 c 128,-1,31
 728 137 728 137 765.5 154 c 128,-1,32
 803 171 803 171 833.5 191 c 128,-1,33
 864 211 864 211 885 229 c 1,34,-1
 885 978 l 1,35,36
 858 1001 858 1001 801 1017.5 c 128,-1,37
 744 1034 744 1034 651 1034 c 0,38,39
 569 1034 569 1034 499 1002 c 128,-1,40
 429 970 429 970 377.5 909 c 128,-1,41
 326 848 326 848 296.5 759 c 128,-1,42
 267 670 267 670 266 556 c 1,43,44
 264 445 264 445 286 362 c 128,-1,45
 308 279 308 279 350 224 c 128,-1,46
 392 169 392 169 452.5 142 c 128,-1,47
 513 115 513 115 590 115 c 0,29,30
EndSplineSet
EndChar

StartChar: e
Encoding: 101 101 68
Width: 1115
Flags: W
LayerCount: 2
Fore
SplineSet
98 565 m 0,0,1
 98 694 98 694 132 801.5 c 128,-1,2
 166 909 166 909 231 987.5 c 128,-1,3
 296 1066 296 1066 391 1110 c 128,-1,4
 486 1154 486 1154 609 1156 c 0,5,6
 700 1157 700 1157 774.5 1127 c 128,-1,7
 849 1097 849 1097 902 1040.5 c 128,-1,8
 955 984 955 984 985.5 904.5 c 128,-1,9
 1016 825 1016 825 1018 728 c 1,10,11
 1018 673 1018 673 1017.5 630.5 c 128,-1,12
 1017 588 1017 588 1010 553 c 1,13,-1
 262 553 l 1,14,15
 262 543 262 543 262 533 c 128,-1,16
 262 523 262 523 263 513 c 0,17,18
 266 403 266 403 295.5 326.5 c 128,-1,19
 325 250 325 250 374.5 202 c 128,-1,20
 424 154 424 154 491.5 132 c 128,-1,21
 559 110 559 110 638 110 c 0,22,23
 677 110 677 110 721.5 116.5 c 128,-1,24
 766 123 766 123 809 133.5 c 128,-1,25
 852 144 852 144 888.5 157.5 c 128,-1,26
 925 171 925 171 948 186 c 1,27,-1
 981 89 l 1,28,29
 952 66 952 66 908 46.5 c 128,-1,30
 864 27 864 27 812.5 13 c 128,-1,31
 761 -1 761 -1 704.5 -8.5 c 128,-1,32
 648 -16 648 -16 596 -16 c 0,33,34
 476 -16 476 -16 383 23.5 c 128,-1,35
 290 63 290 63 226.5 137.5 c 128,-1,36
 163 212 163 212 130.5 320 c 128,-1,37
 98 428 98 428 98 565 c 0,0,1
862 665 m 1,38,39
 866 743 866 743 854.5 811 c 128,-1,40
 843 879 843 879 812 929.5 c 128,-1,41
 781 980 781 980 729 1008.5 c 128,-1,42
 677 1037 677 1037 599 1037 c 0,43,44
 536 1037 536 1037 480.5 1016 c 128,-1,45
 425 995 425 995 381.5 950 c 128,-1,46
 338 905 338 905 309 834.5 c 128,-1,47
 280 764 280 764 269 665 c 1,48,-1
 862 665 l 1,38,39
EndSplineSet
EndChar

StartChar: f
Encoding: 102 102 69
Width: 795
Flags: W
LayerCount: 2
Fore
SplineSet
275 1014 m 1,0,-1
 79 1014 l 1,1,-1
 79 1106 l 1,2,-1
 275 1140 l 1,3,-1
 275 1232 l 2,4,5
 275 1359 275 1359 310.5 1445 c 128,-1,6
 346 1531 346 1531 402.5 1583.5 c 128,-1,7
 459 1636 459 1636 529 1659 c 128,-1,8
 599 1682 599 1682 667 1682 c 0,9,10
 713 1682 713 1682 750 1674.5 c 128,-1,11
 787 1667 787 1667 803 1661 c 1,12,-1
 803 1528 l 1,13,14
 776 1538 776 1538 740 1543 c 128,-1,15
 704 1548 704 1548 644 1548 c 0,16,17
 599 1548 599 1548 561.5 1530.5 c 128,-1,18
 524 1513 524 1513 497.5 1477.5 c 128,-1,19
 471 1442 471 1442 456 1389.5 c 128,-1,20
 441 1337 441 1337 441 1268 c 2,21,-1
 441 1140 l 1,22,-1
 745 1140 l 1,23,-1
 745 1014 l 1,24,-1
 441 1014 l 1,25,-1
 441 0 l 1,26,-1
 275 0 l 1,27,-1
 275 1014 l 1,0,-1
EndSplineSet
EndChar

StartChar: g
Encoding: 103 103 70
Width: 1213
Flags: W
LayerCount: 2
Fore
SplineSet
113 -194 m 0,0,1
 113 -151 113 -151 128 -113.5 c 128,-1,2
 143 -76 143 -76 166 -45.5 c 128,-1,3
 189 -15 189 -15 217 8 c 128,-1,4
 245 31 245 31 271 46 c 1,5,6
 244 61 244 61 227 80.5 c 128,-1,7
 210 100 210 100 200.5 122 c 128,-1,8
 191 144 191 144 188 168 c 128,-1,9
 185 192 185 192 185 217 c 0,10,11
 186 275 186 275 223 335.5 c 128,-1,12
 260 396 260 396 321 440 c 1,13,14
 234 488 234 488 183.5 569 c 128,-1,15
 133 650 133 650 133 758 c 0,16,17
 133 860 133 860 167.5 934 c 128,-1,18
 202 1008 202 1008 262 1056.5 c 128,-1,19
 322 1105 322 1105 402.5 1129.5 c 128,-1,20
 483 1154 483 1154 575 1156 c 0,21,22
 653 1158 653 1158 725 1141 c 128,-1,23
 797 1124 797 1124 856 1088 c 1,24,25
 874 1097 874 1097 899 1106 c 128,-1,26
 924 1115 924 1115 953 1122 c 128,-1,27
 982 1129 982 1129 1013 1133 c 128,-1,28
 1044 1137 1044 1137 1075 1137 c 2,29,-1
 1182 1137 l 1,30,-1
 1182 1003 l 1,31,-1
 950 1003 l 1,32,33
 982 959 982 959 1000.5 903 c 128,-1,34
 1019 847 1019 847 1019 778 c 0,35,36
 1019 681 1019 681 984 607 c 128,-1,37
 949 533 949 533 888 482.5 c 128,-1,38
 827 432 827 432 744.5 406 c 128,-1,39
 662 380 662 380 568 380 c 0,40,41
 484 380 484 380 414 401 c 1,42,43
 400 390 400 390 386 374.5 c 128,-1,44
 372 359 372 359 361.5 340.5 c 128,-1,45
 351 322 351 322 344.5 301 c 128,-1,46
 338 280 338 280 338 259 c 0,47,48
 338 223 338 223 346.5 198.5 c 128,-1,49
 355 174 355 174 374.5 159 c 128,-1,50
 394 144 394 144 425 138 c 128,-1,51
 456 132 456 132 502 132 c 2,52,-1
 749 132 l 2,53,54
 872 132 872 132 948 108 c 128,-1,55
 1024 84 1024 84 1067 44 c 128,-1,56
 1110 4 1110 4 1125 -46.5 c 128,-1,57
 1140 -97 1140 -97 1140 -151 c 0,58,59
 1140 -236 1140 -236 1097 -304 c 128,-1,60
 1054 -372 1054 -372 979 -419.5 c 128,-1,61
 904 -467 904 -467 804 -492 c 128,-1,62
 704 -517 704 -517 590 -517 c 0,63,64
 481 -517 481 -517 393 -498.5 c 128,-1,65
 305 -480 305 -480 242.5 -440.5 c 128,-1,66
 180 -401 180 -401 146.5 -340 c 128,-1,67
 113 -279 113 -279 113 -194 c 0,0,1
572 492 m 0,68,69
 634 492 634 492 685.5 507 c 128,-1,70
 737 522 737 522 774.5 555.5 c 128,-1,71
 812 589 812 589 832.5 642.5 c 128,-1,72
 853 696 853 696 853 772 c 0,73,74
 853 908 853 908 780.5 975.5 c 128,-1,75
 708 1043 708 1043 583 1042 c 0,76,77
 527 1042 527 1042 476 1028.5 c 128,-1,78
 425 1015 425 1015 386 983.5 c 128,-1,79
 347 952 347 952 323.5 899 c 128,-1,80
 300 846 300 846 300 766 c 0,81,82
 300 707 300 707 317.5 657 c 128,-1,83
 335 607 335 607 369 570.5 c 128,-1,84
 403 534 403 534 454 513 c 128,-1,85
 505 492 505 492 572 492 c 0,68,69
276 -174 m 0,86,87
 276 -294 276 -294 354.5 -348 c 128,-1,88
 433 -402 433 -402 596 -402 c 0,89,90
 669 -402 669 -402 738.5 -389 c 128,-1,91
 808 -376 808 -376 861.5 -349 c 128,-1,92
 915 -322 915 -322 947.5 -281.5 c 128,-1,93
 980 -241 980 -241 980 -186 c 0,94,95
 980 -137 980 -137 965 -101.5 c 128,-1,96
 950 -66 950 -66 915 -43.5 c 128,-1,97
 880 -21 880 -21 822.5 -10.5 c 128,-1,98
 765 0 765 0 680 0 c 2,99,-1
 526 0 l 2,100,101
 427 0 427 0 368 10 c 1,102,103
 351 -4 351 -4 334.5 -21.5 c 128,-1,104
 318 -39 318 -39 305 -61.5 c 128,-1,105
 292 -84 292 -84 284 -112 c 128,-1,106
 276 -140 276 -140 276 -174 c 0,86,87
EndSplineSet
EndChar

StartChar: h
Encoding: 104 104 71
Width: 1288
Flags: W
LayerCount: 2
Fore
SplineSet
190 1664 m 1,0,-1
 356 1664 l 1,1,-1
 356 1157 l 1,2,-1
 348 1001 l 1,3,4
 380 1026 380 1026 426 1053 c 128,-1,5
 472 1080 472 1080 527.5 1103 c 128,-1,6
 583 1126 583 1126 644 1141 c 128,-1,7
 705 1156 705 1156 767 1157 c 0,8,9
 861 1158 861 1158 927.5 1133.5 c 128,-1,10
 994 1109 994 1109 1037 1052 c 128,-1,11
 1080 995 1080 995 1099.5 902.5 c 128,-1,12
 1119 810 1119 810 1119 677 c 2,13,-1
 1119 0 l 1,14,-1
 952 0 l 1,15,-1
 953 689 l 2,16,17
 953 781 953 781 940.5 844.5 c 128,-1,18
 928 908 928 908 898.5 947 c 128,-1,19
 869 986 869 986 820.5 1002.5 c 128,-1,20
 772 1019 772 1019 699 1017 c 0,21,22
 657 1016 657 1016 610.5 1004 c 128,-1,23
 564 992 564 992 519 973 c 128,-1,24
 474 954 474 954 432 929.5 c 128,-1,25
 390 905 390 905 356 879 c 1,26,-1
 356 0 l 1,27,-1
 190 0 l 1,28,-1
 190 1664 l 1,0,-1
EndSplineSet
EndChar

StartChar: dotlessi
Encoding: 305 305 73
Width: 577
Flags: W
LayerCount: 2
Fore
SplineSet
205 1138 m 1,0,-1
 372 1138 l 1,1,-1
 372 0 l 1,2,-1
 205 0 l 1,3,-1
 205 1138 l 1,0,-1
EndSplineSet
EndChar

StartChar: dotaccent
Encoding: 729 729 74
Width: 330
Flags: W
LayerCount: 2
Fore
SplineSet
157 1396 m 0,0,1
 135 1396 135 1396 115.5 1403 c 128,-1,2
 96 1410 96 1410 81.5 1424 c 128,-1,3
 67 1438 67 1438 58.5 1458.5 c 128,-1,4
 50 1479 50 1479 50 1506 c 256,5,6
 50 1533 50 1533 60.5 1556 c 128,-1,7
 71 1579 71 1579 88.5 1595.5 c 128,-1,8
 106 1612 106 1612 128 1621 c 128,-1,9
 150 1630 150 1630 173 1630 c 0,10,11
 227 1630 227 1630 253.5 1599.5 c 128,-1,12
 280 1569 280 1569 280 1521 c 0,13,14
 280 1492 280 1492 270 1469 c 128,-1,15
 260 1446 260 1446 242.5 1429.5 c 128,-1,16
 225 1413 225 1413 203 1404.5 c 128,-1,17
 181 1396 181 1396 157 1396 c 0,0,1
EndSplineSet
EndChar

StartChar: dotlessj
Encoding: 567 567 76
Width: 551
Flags: W
LayerCount: 2
Fore
SplineSet
205 1138 m 1,0,-1
 372 1138 l 1,1,-1
 372 23 l 2,2,3
 372 -117 372 -117 351 -217 c 128,-1,4
 330 -317 330 -317 287.5 -381.5 c 128,-1,5
 245 -446 245 -446 181 -476.5 c 128,-1,6
 117 -507 117 -507 32 -507 c 0,7,8
 18 -507 18 -507 -2 -506 c 128,-1,9
 -22 -505 -22 -505 -42.5 -503.5 c 128,-1,10
 -63 -502 -63 -502 -79 -499.5 c 128,-1,11
 -95 -497 -95 -497 -101 -494 c 1,12,-1
 -101 -370 l 1,13,14
 -93 -373 -93 -373 -79 -376.5 c 128,-1,15
 -65 -380 -65 -380 -49 -383 c 128,-1,16
 -33 -386 -33 -386 -16 -387.5 c 128,-1,17
 1 -389 1 -389 16 -389 c 0,18,19
 116 -389 116 -389 160.5 -306.5 c 128,-1,20
 205 -224 205 -224 205 -41 c 2,21,-1
 205 1138 l 1,0,-1
EndSplineSet
EndChar

StartChar: k
Encoding: 107 107 77
Width: 1159
Flags: W
LayerCount: 2
Fore
SplineSet
186 1661 m 1,0,-1
 352 1661 l 1,1,-1
 352 708 l 1,2,-1
 348 585 l 1,3,-1
 886 1139 l 1,4,-1
 1083 1139 l 1,5,-1
 638 692 l 1,6,-1
 1132 0 l 1,7,-1
 942 0 l 1,8,-1
 528 582 l 1,9,-1
 348 401 l 1,10,-1
 352 224 l 1,11,-1
 352 0 l 1,12,-1
 186 0 l 1,13,-1
 186 1661 l 1,0,-1
EndSplineSet
EndChar

StartChar: l
Encoding: 108 108 78
Width: 583
Flags: W
LayerCount: 2
Fore
SplineSet
208 1664 m 1,0,-1
 375 1664 l 1,1,-1
 375 0 l 1,2,-1
 208 0 l 1,3,-1
 208 1664 l 1,0,-1
EndSplineSet
EndChar

StartChar: m
Encoding: 109 109 79
Width: 1967
Flags: W
LayerCount: 2
Fore
SplineSet
188 1138 m 1,0,-1
 337 1138 l 1,1,-1
 337 993 l 1,2,3
 369 1018 369 1018 416.5 1046.5 c 128,-1,4
 464 1075 464 1075 519.5 1099 c 128,-1,5
 575 1123 575 1123 636 1139.5 c 128,-1,6
 697 1156 697 1156 756 1157 c 0,7,8
 810 1158 810 1158 854 1150.5 c 128,-1,9
 898 1143 898 1143 933.5 1125 c 128,-1,10
 969 1107 969 1107 995 1077 c 128,-1,11
 1021 1047 1021 1047 1039 1004 c 1,12,13
 1071 1029 1071 1029 1117 1055.5 c 128,-1,14
 1163 1082 1163 1082 1217 1104.5 c 128,-1,15
 1271 1127 1271 1127 1331.5 1141.5 c 128,-1,16
 1392 1156 1392 1156 1453 1157 c 0,17,18
 1543 1158 1543 1158 1606.5 1135 c 128,-1,19
 1670 1112 1670 1112 1710 1058.5 c 128,-1,20
 1750 1005 1750 1005 1768.5 917.5 c 128,-1,21
 1787 830 1787 830 1787 703 c 2,22,-1
 1787 0 l 1,23,-1
 1620 0 l 1,24,-1
 1620 695 l 2,25,26
 1620 774 1620 774 1612 835.5 c 128,-1,27
 1604 897 1604 897 1579.5 938 c 128,-1,28
 1555 979 1555 979 1509.5 999 c 128,-1,29
 1464 1019 1464 1019 1389 1017 c 0,30,31
 1349 1016 1349 1016 1305.5 1005.5 c 128,-1,32
 1262 995 1262 995 1220 977.5 c 128,-1,33
 1178 960 1178 960 1139 938.5 c 128,-1,34
 1100 917 1100 917 1068 895 c 1,35,36
 1081 818 1081 818 1081 708 c 2,37,-1
 1081 0 l 1,38,-1
 914 0 l 1,39,-1
 914 697 l 2,40,41
 914 782 914 782 905.5 844 c 128,-1,42
 897 906 897 906 872.5 945 c 128,-1,43
 848 984 848 984 804 1001.5 c 128,-1,44
 760 1019 760 1019 690 1016 c 0,45,46
 652 1014 652 1014 607.5 1003 c 128,-1,47
 563 992 563 992 518 973.5 c 128,-1,48
 473 955 473 955 431 930.5 c 128,-1,49
 389 906 389 906 355 878 c 1,50,-1
 355 0 l 1,51,-1
 188 0 l 1,52,-1
 188 1138 l 1,0,-1
EndSplineSet
EndChar

StartChar: n
Encoding: 110 110 80
Width: 1277
Flags: W
LayerCount: 2
Fore
SplineSet
188 1138 m 1,0,-1
 337 1138 l 1,1,-1
 337 993 l 1,2,3
 368 1016 368 1016 414 1044 c 128,-1,4
 460 1072 460 1072 515.5 1096.5 c 128,-1,5
 571 1121 571 1121 632.5 1138.5 c 128,-1,6
 694 1156 694 1156 757 1157 c 0,7,8
 850 1158 850 1158 914.5 1135 c 128,-1,9
 979 1112 979 1112 1019.5 1058 c 128,-1,10
 1060 1004 1060 1004 1078.5 917.5 c 128,-1,11
 1097 831 1097 831 1097 705 c 2,12,-1
 1097 0 l 1,13,-1
 931 0 l 1,14,-1
 931 706 l 2,15,16
 931 791 931 791 920.5 851.5 c 128,-1,17
 910 912 910 912 882.5 950 c 128,-1,18
 855 988 855 988 808 1004.5 c 128,-1,19
 761 1021 761 1021 688 1018 c 0,20,21
 647 1017 647 1017 602 1005 c 128,-1,22
 557 993 557 993 513 973.5 c 128,-1,23
 469 954 469 954 428 929 c 128,-1,24
 387 904 387 904 355 878 c 1,25,-1
 355 0 l 1,26,-1
 188 0 l 1,27,-1
 188 1138 l 1,0,-1
EndSplineSet
EndChar

StartChar: o
Encoding: 111 111 81
Width: 1209
Flags: W
LayerCount: 2
Fore
SplineSet
595 -16 m 0,0,1
 459 -16 459 -16 364 33.5 c 128,-1,2
 269 83 269 83 209.5 166.5 c 128,-1,3
 150 250 150 250 123 360 c 128,-1,4
 96 470 96 470 98 591 c 0,5,6
 100 727 100 727 140.5 832.5 c 128,-1,7
 181 938 181 938 250.5 1010 c 128,-1,8
 320 1082 320 1082 413.5 1119 c 128,-1,9
 507 1156 507 1156 616 1156 c 0,10,11
 749 1156 749 1156 843.5 1107.5 c 128,-1,12
 938 1059 938 1059 998 976.5 c 128,-1,13
 1058 894 1058 894 1085 784.5 c 128,-1,14
 1112 675 1112 675 1111 554 c 0,15,16
 1109 418 1109 418 1069.5 312 c 128,-1,17
 1030 206 1030 206 961 133 c 128,-1,18
 892 60 892 60 798.5 22 c 128,-1,19
 705 -16 705 -16 595 -16 c 0,0,1
599 103 m 0,20,21
 680 102 680 102 744 133.5 c 128,-1,22
 808 165 808 165 851.5 224 c 128,-1,23
 895 283 895 283 918.5 368.5 c 128,-1,24
 942 454 942 454 942 561 c 0,25,26
 942 659 942 659 922.5 745 c 128,-1,27
 903 831 903 831 862.5 895.5 c 128,-1,28
 822 960 822 960 760 997 c 128,-1,29
 698 1034 698 1034 613 1035 c 0,30,31
 532 1036 532 1036 468 1006.5 c 128,-1,32
 404 977 404 977 359.5 920 c 128,-1,33
 315 863 315 863 291 779.5 c 128,-1,34
 267 696 267 696 267 589 c 0,35,36
 267 491 267 491 286 403.5 c 128,-1,37
 305 316 305 316 345.5 249.5 c 128,-1,38
 386 183 386 183 449 143.5 c 128,-1,39
 512 104 512 104 599 103 c 0,20,21
EndSplineSet
Substitution2: "Single Substitution lookup 16 subtable" ordmasculine
Substitution2: "'aalt' Access All Alternates in Latin lookup 0 subtable" ordmasculine
EndChar

StartChar: p
Encoding: 112 112 82
Width: 1235
Flags: W
LayerCount: 2
Fore
SplineSet
349 -139 m 1,0,-1
 349 -506 l 1,1,-1
 182 -506 l 1,2,-1
 182 1140 l 1,3,-1
 333 1140 l 1,4,-1
 333 1007 l 1,5,6
 353 1027 353 1027 384 1053 c 128,-1,7
 415 1079 415 1079 458.5 1102 c 128,-1,8
 502 1125 502 1125 559 1140.5 c 128,-1,9
 616 1156 616 1156 690 1156 c 0,10,11
 777 1156 777 1156 858.5 1124.5 c 128,-1,12
 940 1093 940 1093 1002.5 1026 c 128,-1,13
 1065 959 1065 959 1102.5 855.5 c 128,-1,14
 1140 752 1140 752 1140 607 c 0,15,16
 1140 470 1140 470 1099 356 c 128,-1,17
 1058 242 1058 242 983 159 c 128,-1,18
 908 76 908 76 802.5 30 c 128,-1,19
 697 -16 697 -16 568 -16 c 0,20,21
 497 -16 497 -16 440 -4.5 c 128,-1,22
 383 7 383 7 345 22 c 1,23,-1
 349 -139 l 1,0,-1
349 163 m 1,24,25
 376 139 376 139 433 122.5 c 128,-1,26
 490 106 490 106 583 106 c 0,27,28
 665 106 665 106 735.5 138 c 128,-1,29
 806 170 806 170 857.5 231 c 128,-1,30
 909 292 909 292 938.5 381 c 128,-1,31
 968 470 968 470 970 584 c 0,32,33
 971 695 971 695 949 778 c 128,-1,34
 927 861 927 861 885 916 c 128,-1,35
 843 971 843 971 782 998 c 128,-1,36
 721 1025 721 1025 644 1025 c 0,37,38
 594 1025 594 1025 550 1013.5 c 128,-1,39
 506 1002 506 1002 468 985 c 128,-1,40
 430 968 430 968 400 947.5 c 128,-1,41
 370 927 370 927 349 909 c 1,42,-1
 349 163 l 1,24,25
EndSplineSet
EndChar

StartChar: q
Encoding: 113 113 83
Width: 1231
Flags: W
LayerCount: 2
Fore
SplineSet
95 533 m 0,0,1
 95 669 95 669 136 783.5 c 128,-1,2
 177 898 177 898 252 981 c 128,-1,3
 327 1064 327 1064 432.5 1110 c 128,-1,4
 538 1156 538 1156 667 1156 c 0,5,6
 741 1156 741 1156 803 1143 c 128,-1,7
 865 1130 865 1130 907 1114 c 1,8,-1
 907 1116 l 1,9,-1
 1052 1144 l 1,10,-1
 1052 -506 l 1,11,-1
 886 -506 l 1,12,-1
 886 -139 l 1,13,-1
 890 121 l 1,14,15
 868 100 868 100 837 76 c 128,-1,16
 806 52 806 52 763.5 31.5 c 128,-1,17
 721 11 721 11 666.5 -2.5 c 128,-1,18
 612 -16 612 -16 544 -16 c 0,19,20
 457 -16 457 -16 376 15.5 c 128,-1,21
 295 47 295 47 232.5 113.5 c 128,-1,22
 170 180 170 180 132.5 284 c 128,-1,23
 95 388 95 388 95 533 c 0,0,1
590 115 m 0,24,25
 639 115 639 115 683.5 126 c 128,-1,26
 728 137 728 137 766 154 c 128,-1,27
 804 171 804 171 834.5 191 c 128,-1,28
 865 211 865 211 886 229 c 1,29,-1
 886 978 l 1,30,31
 859 1001 859 1001 801.5 1017.5 c 128,-1,32
 744 1034 744 1034 651 1034 c 0,33,34
 569 1034 569 1034 499 1002 c 128,-1,35
 429 970 429 970 377.5 909 c 128,-1,36
 326 848 326 848 296.5 759 c 128,-1,37
 267 670 267 670 266 556 c 1,38,39
 264 445 264 445 286 362 c 128,-1,40
 308 279 308 279 350 224 c 128,-1,41
 392 169 392 169 452.5 142 c 128,-1,42
 513 115 513 115 590 115 c 0,24,25
EndSplineSet
EndChar

StartChar: r
Encoding: 114 114 84
Width: 801
Flags: W
LayerCount: 2
Fore
SplineSet
182 1138 m 1,0,-1
 323 1138 l 1,1,-1
 333 986 l 1,2,3
 350 1008 350 1008 385.5 1037.5 c 128,-1,4
 421 1067 421 1067 468 1093.5 c 128,-1,5
 515 1120 515 1120 570 1138 c 128,-1,6
 625 1156 625 1156 681 1156 c 0,7,8
 758 1156 758 1156 789 1143 c 1,9,-1
 789 986 l 1,10,11
 775 993 775 993 744 1001 c 128,-1,12
 713 1009 713 1009 651 1009 c 0,13,14
 601 1009 601 1009 556 996.5 c 128,-1,15
 511 984 511 984 472 964.5 c 128,-1,16
 433 945 433 945 401.5 921.5 c 128,-1,17
 370 898 370 898 349 877 c 1,18,-1
 349 0 l 1,19,-1
 182 0 l 1,20,-1
 182 1138 l 1,0,-1
EndSplineSet
EndChar

StartChar: s
Encoding: 115 115 85
Width: 975
Flags: W
LayerCount: 2
Fore
SplineSet
147 192 m 1,0,1
 163 181 163 181 197 166.5 c 128,-1,2
 231 152 231 152 275.5 139.5 c 128,-1,3
 320 127 320 127 372 118 c 128,-1,4
 424 109 424 109 476 108 c 1,5,6
 531 108 531 108 576.5 119 c 128,-1,7
 622 130 622 130 655 152 c 128,-1,8
 688 174 688 174 706.5 207.5 c 128,-1,9
 725 241 725 241 725 285 c 0,10,11
 725 330 725 330 702 363.5 c 128,-1,12
 679 397 679 397 640.5 423.5 c 128,-1,13
 602 450 602 450 553.5 471 c 128,-1,14
 505 492 505 492 454 513 c 0,15,16
 388 540 388 540 329 572.5 c 128,-1,17
 270 605 270 605 225.5 647.5 c 128,-1,18
 181 690 181 690 155.5 744 c 128,-1,19
 130 798 130 798 131 868 c 0,20,21
 132 941 132 941 164.5 995.5 c 128,-1,22
 197 1050 197 1050 251 1085.5 c 128,-1,23
 305 1121 305 1121 376.5 1138.5 c 128,-1,24
 448 1156 448 1156 528 1156 c 0,25,26
 578 1156 578 1156 624.5 1150 c 128,-1,27
 671 1144 671 1144 709.5 1135 c 128,-1,28
 748 1126 748 1126 777 1116 c 128,-1,29
 806 1106 806 1106 821 1097 c 1,30,-1
 794 970 l 1,31,32
 779 981 779 981 752.5 992 c 128,-1,33
 726 1003 726 1003 691.5 1012 c 128,-1,34
 657 1021 657 1021 617 1026.5 c 128,-1,35
 577 1032 577 1032 535 1032 c 0,36,37
 473 1032 473 1032 427 1020.5 c 128,-1,38
 381 1009 381 1009 349.5 988.5 c 128,-1,39
 318 968 318 968 302 939.5 c 128,-1,40
 286 911 286 911 285 877 c 0,41,42
 284 832 284 832 302 798 c 128,-1,43
 320 764 320 764 353 736.5 c 128,-1,44
 386 709 386 709 432 686.5 c 128,-1,45
 478 664 478 664 534 643 c 0,46,47
 590 621 590 621 651.5 592 c 128,-1,48
 713 563 713 563 764 522 c 128,-1,49
 815 481 815 481 848 426 c 128,-1,50
 881 371 881 371 881 297 c 0,51,52
 881 222 881 222 853 163.5 c 128,-1,53
 825 105 825 105 773.5 65.5 c 128,-1,54
 722 26 722 26 648.5 5 c 128,-1,55
 575 -16 575 -16 484 -16 c 0,56,57
 429 -16 429 -16 375 -9 c 128,-1,58
 321 -2 321 -2 273 9 c 128,-1,59
 225 20 225 20 186 35 c 128,-1,60
 147 50 147 50 122 66 c 1,61,-1
 147 192 l 1,0,1
EndSplineSet
EndChar

StartChar: t
Encoding: 116 116 86
Width: 848
Flags: W
LayerCount: 2
Fore
SplineSet
240 1014 m 1,0,-1
 81 1014 l 1,1,-1
 81 1105 l 1,2,3
 112 1113 112 1113 139.5 1119 c 128,-1,4
 167 1125 167 1125 189 1132 c 128,-1,5
 211 1139 211 1139 228 1149.5 c 128,-1,6
 245 1160 245 1160 256 1178 c 1,7,8
 267 1224 267 1224 278 1277 c 128,-1,9
 289 1330 289 1330 306 1400 c 1,10,-1
 406 1400 l 1,11,-1
 406 1140 l 1,12,-1
 760 1140 l 1,13,-1
 760 1014 l 1,14,-1
 406 1014 l 1,15,-1
 406 364 l 2,16,17
 406 279 406 279 414 230 c 128,-1,18
 422 181 422 181 440 156 c 128,-1,19
 458 131 458 131 487 124.5 c 128,-1,20
 516 118 516 118 558 118 c 0,21,22
 583 118 583 118 614.5 123 c 128,-1,23
 646 128 646 128 676 136.5 c 128,-1,24
 706 145 706 145 732 155 c 128,-1,25
 758 165 758 165 772 175 c 1,26,-1
 801 78 l 1,27,28
 779 60 779 60 744 43.5 c 128,-1,29
 709 27 709 27 667.5 13.5 c 128,-1,30
 626 0 626 0 582.5 -8 c 128,-1,31
 539 -16 539 -16 500 -16 c 0,32,33
 447 -16 447 -16 400 -5.5 c 128,-1,34
 353 5 353 5 317.5 35.5 c 128,-1,35
 282 66 282 66 261 122 c 128,-1,36
 240 178 240 178 240 270 c 2,37,-1
 240 1014 l 1,0,-1
EndSplineSet
EndChar

StartChar: u
Encoding: 117 117 87
Width: 1238
Flags: W
LayerCount: 2
Fore
SplineSet
184 1139 m 1,0,-1
 351 1139 l 1,1,-1
 351 464 l 2,2,3
 351 357 351 357 362.5 290.5 c 128,-1,4
 374 224 374 224 401 186.5 c 128,-1,5
 428 149 428 149 473 135.5 c 128,-1,6
 518 122 518 122 585 122 c 0,7,8
 628 122 628 122 673.5 132 c 128,-1,9
 719 142 719 142 761 157.5 c 128,-1,10
 803 173 803 173 839 192 c 128,-1,11
 875 211 875 211 899 229 c 1,12,-1
 899 1139 l 1,13,-1
 1065 1139 l 1,14,-1
 1065 -12 l 1,15,-1
 1002 -12 l 2,16,17
 982 -12 982 -12 966 -10 c 128,-1,18
 950 -8 950 -8 939 -1 c 128,-1,19
 928 6 928 6 922.5 19.5 c 128,-1,20
 917 33 917 33 917 56 c 2,21,-1
 917 117 l 1,22,23
 877 89 877 89 828.5 65 c 128,-1,24
 780 41 780 41 728 23 c 128,-1,25
 676 5 676 5 622 -5.5 c 128,-1,26
 568 -16 568 -16 518 -16 c 0,27,28
 408 -16 408 -16 342 19.5 c 128,-1,29
 276 55 276 55 241 119 c 128,-1,30
 206 183 206 183 195 273 c 128,-1,31
 184 363 184 363 184 471 c 2,32,-1
 184 1139 l 1,0,-1
EndSplineSet
EndChar

StartChar: v
Encoding: 118 118 88
Width: 1127
Flags: W
LayerCount: 2
Fore
SplineSet
50 1140 m 1,0,-1
 229 1140 l 1,1,-1
 485 432 l 1,2,-1
 576 154 l 1,3,-1
 660 432 l 1,4,-1
 907 1140 l 1,5,-1
 1084 1140 l 1,6,-1
 645 -18 l 1,7,-1
 503 -18 l 1,8,-1
 50 1140 l 1,0,-1
EndSplineSet
EndChar

StartChar: w
Encoding: 119 119 89
Width: 1626
Flags: W
LayerCount: 2
Fore
SplineSet
33 1140 m 1,0,-1
 200 1140 l 1,1,-1
 429 357 l 1,2,-1
 472 177 l 1,3,-1
 512 357 l 1,4,-1
 733 1140 l 1,5,-1
 899 1140 l 1,6,-1
 1121 357 l 1,7,-1
 1164 173 l 1,8,-1
 1207 352 l 1,9,-1
 1427 1140 l 1,10,-1
 1590 1140 l 1,11,-1
 1236 -18 l 1,12,-1
 1081 -18 l 1,13,-1
 845 819 l 1,14,-1
 815 967 l 1,15,-1
 782 819 l 1,16,-1
 551 -18 l 1,17,-1
 393 -18 l 1,18,-1
 33 1140 l 1,0,-1
EndSplineSet
EndChar

StartChar: x
Encoding: 120 120 90
Width: 1131
Flags: W
LayerCount: 2
Fore
SplineSet
477 576 m 1,0,-1
 71 1140 l 1,1,-1
 260 1140 l 1,2,-1
 532 742 l 1,3,-1
 570 680 l 1,4,-1
 607 747 l 1,5,-1
 878 1140 l 1,6,-1
 1066 1140 l 1,7,-1
 657 579 l 1,8,-1
 1068 0 l 1,9,-1
 875 0 l 1,10,-1
 600 407 l 1,11,-1
 560 470 l 1,12,-1
 523 400 l 1,13,-1
 263 0 l 1,14,-1
 72 0 l 1,15,-1
 477 576 l 1,0,-1
EndSplineSet
EndChar

StartChar: y
Encoding: 121 121 91
Width: 1113
Flags: W
LayerCount: 2
Fore
SplineSet
134 -356 m 1,0,1
 151 -361 151 -361 181 -364.5 c 128,-1,2
 211 -368 211 -368 233 -368 c 0,3,4
 276 -368 276 -368 320 -352 c 128,-1,5
 364 -336 364 -336 405 -294.5 c 128,-1,6
 446 -253 446 -253 482.5 -181.5 c 128,-1,7
 519 -110 519 -110 547 0 c 1,8,-1
 498 0 l 1,9,-1
 70 1140 l 1,10,-1
 248 1140 l 1,11,-1
 522 358 l 1,12,-1
 598 134 l 1,13,-1
 664 358 l 1,14,-1
 901 1140 l 1,15,-1
 1081 1140 l 1,16,-1
 690 -29 l 2,17,18
 655 -131 655 -131 618.5 -210.5 c 128,-1,19
 582 -290 582 -290 540.5 -348 c 128,-1,20
 499 -406 499 -406 451.5 -442 c 128,-1,21
 404 -478 404 -478 348 -494 c 1,22,23
 326 -499 326 -499 297 -503 c 128,-1,24
 268 -507 268 -507 245 -507 c 0,25,26
 234 -507 234 -507 217 -506 c 128,-1,27
 200 -505 200 -505 183 -503 c 128,-1,28
 166 -501 166 -501 152 -498.5 c 128,-1,29
 138 -496 138 -496 134 -493 c 1,30,-1
 134 -356 l 1,31,-1
 134 -356 l 1,0,1
EndSplineSet
EndChar

StartChar: z
Encoding: 122 122 92
Width: 1061
Flags: W
LayerCount: 2
Fore
SplineSet
683 914 m 1,0,-1
 753 1012 l 1,1,-1
 137 1012 l 1,2,-1
 137 1140 l 1,3,-1
 948 1140 l 1,4,-1
 977 1066 l 1,5,-1
 383 220 l 1,6,-1
 312 122 l 1,7,-1
 968 122 l 1,8,-1
 968 0 l 1,9,-1
 121 0 l 1,10,-1
 87 65 l 1,11,-1
 683 914 l 1,0,-1
EndSplineSet
EndChar

StartChar: braceleft
Encoding: 123 123 93
Width: 986
Flags: W
LayerCount: 2
Fore
SplineSet
343 585 m 2,0,1
 343 602 343 602 322 621 c 128,-1,2
 301 640 301 640 265.5 658 c 128,-1,3
 230 676 230 676 185 693 c 128,-1,4
 140 710 140 710 92 724 c 1,5,-1
 92 834 l 1,6,7
 143 851 143 851 189 867 c 128,-1,8
 235 883 235 883 269 899.5 c 128,-1,9
 303 916 303 916 323 933.5 c 128,-1,10
 343 951 343 951 343 969 c 2,11,-1
 343 1544 l 2,12,13
 343 1601 343 1601 350 1639 c 128,-1,14
 357 1677 357 1677 375 1699.5 c 128,-1,15
 393 1722 393 1722 423.5 1731.5 c 128,-1,16
 454 1741 454 1741 500 1741 c 0,17,18
 582 1741 582 1741 659 1734.5 c 128,-1,19
 736 1728 736 1728 797 1721 c 1,20,-1
 797 1629 l 1,21,-1
 502 1629 l 1,22,-1
 502 972 l 2,23,24
 502 923 502 923 465 892 c 1,25,26
 453 880 453 880 428.5 865 c 128,-1,27
 404 850 404 850 374.5 834 c 128,-1,28
 345 818 345 818 313.5 803.5 c 128,-1,29
 282 789 282 789 257 778 c 1,30,31
 282 767 282 767 313.5 752 c 128,-1,32
 345 737 345 737 375 720.5 c 128,-1,33
 405 704 405 704 430 687.5 c 128,-1,34
 455 671 455 671 468 658 c 0,35,36
 502 624 502 624 502 582 c 2,37,-1
 502 -82 l 1,38,-1
 797 -82 l 1,39,-1
 797 -167 l 1,40,41
 732 -182 732 -182 657 -188.5 c 128,-1,42
 582 -195 582 -195 500 -195 c 0,43,44
 454 -195 454 -195 424 -185.5 c 128,-1,45
 394 -176 394 -176 376 -153.5 c 128,-1,46
 358 -131 358 -131 350.5 -93 c 128,-1,47
 343 -55 343 -55 343 2 c 2,48,-1
 343 585 l 2,0,1
EndSplineSet
EndChar

StartChar: bar
Encoding: 124 124 94
Width: 842
Flags: W
LayerCount: 2
Fore
SplineSet
344 1780 m 1,0,-1
 498 1780 l 1,1,-1
 498 -187 l 1,2,-1
 344 -187 l 1,3,-1
 344 1780 l 1,0,-1
EndSplineSet
EndChar

StartChar: asciitilde
Encoding: 126 126 96
Width: 1438
Flags: W
LayerCount: 2
Fore
SplineSet
222 776 m 1,0,1
 235 805 235 805 262.5 840 c 128,-1,2
 290 875 290 875 329.5 905 c 128,-1,3
 369 935 369 935 419.5 955 c 128,-1,4
 470 975 470 975 529 975 c 0,5,6
 577 975 577 975 614 962.5 c 128,-1,7
 651 950 651 950 681.5 930.5 c 128,-1,8
 712 911 712 911 738 889 c 128,-1,9
 764 867 764 867 791 847.5 c 128,-1,10
 818 828 818 828 848 815.5 c 128,-1,11
 878 803 878 803 916 803 c 256,12,13
 954 803 954 803 986.5 813 c 128,-1,14
 1019 823 1019 823 1046.5 840.5 c 128,-1,15
 1074 858 1074 858 1096 880.5 c 128,-1,16
 1118 903 1118 903 1136 928 c 1,17,-1
 1215 852 l 1,18,19
 1200 817 1200 817 1173 782.5 c 128,-1,20
 1146 748 1146 748 1107 721 c 128,-1,21
 1068 694 1068 694 1017.5 677 c 128,-1,22
 967 660 967 660 907 660 c 0,23,24
 858 660 858 660 822 673 c 128,-1,25
 786 686 786 686 756 705 c 128,-1,26
 726 724 726 724 700.5 746.5 c 128,-1,27
 675 769 675 769 648.5 788 c 128,-1,28
 622 807 622 807 592 820 c 128,-1,29
 562 833 562 833 523 833 c 0,30,31
 485 833 485 833 453.5 822.5 c 128,-1,32
 422 812 422 812 395.5 794.5 c 128,-1,33
 369 777 369 777 348 754 c 128,-1,34
 327 731 327 731 310 707 c 1,35,-1
 222 776 l 1,0,1
EndSplineSet
EndChar

StartChar: exclam
Encoding: 33 33 98
Width: 597
Flags: W
LayerCount: 2
Fore
SplineSet
208 1780 m 1,0,-1
 396 1780 l 1,1,-1
 378 473 l 1,2,-1
 229 473 l 1,3,-1
 208 1780 l 1,0,-1
182 106 m 0,4,5
 181 134 181 134 191 159 c 128,-1,6
 201 184 201 184 218 203 c 128,-1,7
 235 222 235 222 257 233 c 128,-1,8
 279 244 279 244 303 244 c 0,9,10
 330 244 330 244 350.5 234 c 128,-1,11
 371 224 371 224 385 207.5 c 128,-1,12
 399 191 399 191 406.5 169 c 128,-1,13
 414 147 414 147 415 123 c 1,14,15
 415 93 415 93 405.5 68 c 128,-1,16
 396 43 396 43 379 24 c 128,-1,17
 362 5 362 5 339.5 -5.5 c 128,-1,18
 317 -16 317 -16 292 -16 c 0,19,20
 247 -16 247 -16 215.5 18 c 128,-1,21
 184 52 184 52 182 106 c 0,4,5
EndSplineSet
EndChar

StartChar: sterling
Encoding: 163 163 99
Width: 1532
Flags: W
LayerCount: 2
Fore
SplineSet
143 54 m 0,0,1
 143 81 143 81 155.5 105 c 128,-1,2
 168 129 168 129 194 148 c 128,-1,3
 220 167 220 167 260 179 c 128,-1,4
 300 191 300 191 355 194 c 1,5,6
 363 209 363 209 378 232.5 c 128,-1,7
 393 256 393 256 407.5 290 c 128,-1,8
 422 324 422 324 433 367.5 c 128,-1,9
 444 411 444 411 444 465 c 2,10,-1
 444 764 l 1,11,-1
 261 764 l 1,12,-1
 261 880 l 1,13,-1
 444 880 l 1,14,-1
 444 1057 l 2,15,16
 444 1162 444 1162 476 1250.5 c 128,-1,17
 508 1339 508 1339 568 1403 c 128,-1,18
 628 1467 628 1467 713.5 1502.5 c 128,-1,19
 799 1538 799 1538 907 1538 c 0,20,21
 966 1538 966 1538 1015 1531 c 128,-1,22
 1064 1524 1064 1524 1104.5 1511.5 c 128,-1,23
 1145 1499 1145 1499 1177 1482 c 128,-1,24
 1209 1465 1209 1465 1235 1444 c 1,25,-1
 1156 1322 l 1,26,27
 1134 1341 1134 1341 1108.5 1357 c 128,-1,28
 1083 1373 1083 1373 1051 1385 c 128,-1,29
 1019 1397 1019 1397 979 1404 c 128,-1,30
 939 1411 939 1411 889 1411 c 0,31,32
 837 1411 837 1411 787 1393 c 128,-1,33
 737 1375 737 1375 697.5 1331.5 c 128,-1,34
 658 1288 658 1288 634 1215.5 c 128,-1,35
 610 1143 610 1143 611 1035 c 1,36,-1
 611 880 l 1,37,-1
 996 880 l 1,38,-1
 996 764 l 1,39,-1
 612 764 l 1,40,-1
 612 659 l 1,41,42
 613 553 613 553 605 472.5 c 128,-1,43
 597 392 597 392 582.5 332.5 c 128,-1,44
 568 273 568 273 548.5 233 c 128,-1,45
 529 193 529 193 506 169 c 1,46,47
 563 171 563 171 613.5 160 c 128,-1,48
 664 149 664 149 717 134.5 c 128,-1,49
 770 120 770 120 829.5 108 c 128,-1,50
 889 96 889 96 964 96 c 256,51,52
 1039 96 1039 96 1091 112.5 c 128,-1,53
 1143 129 1143 129 1175.5 159.5 c 128,-1,54
 1208 190 1208 190 1222.5 232.5 c 128,-1,55
 1237 275 1237 275 1237 327 c 0,56,57
 1237 351 1237 351 1230.5 377 c 128,-1,58
 1224 403 1224 403 1212.5 427 c 128,-1,59
 1201 451 1201 451 1184.5 470.5 c 128,-1,60
 1168 490 1168 490 1148 500 c 1,61,-1
 1267 561 l 1,62,63
 1290 547 1290 547 1313 522 c 128,-1,64
 1336 497 1336 497 1354 465 c 128,-1,65
 1372 433 1372 433 1383.5 395 c 128,-1,66
 1395 357 1395 357 1395 317 c 0,67,68
 1395 242 1395 242 1372 179 c 128,-1,69
 1349 116 1349 116 1299.5 71 c 128,-1,70
 1250 26 1250 26 1172 1 c 128,-1,71
 1094 -24 1094 -24 984 -24 c 0,72,73
 913 -24 913 -24 851 -14.5 c 128,-1,74
 789 -5 789 -5 734.5 9 c 128,-1,75
 680 23 680 23 632.5 38 c 128,-1,76
 585 53 585 53 543 63 c 128,-1,77
 501 73 501 73 464 75.5 c 128,-1,78
 427 78 427 78 393 68 c 1,79,80
 380 53 380 53 362 39 c 128,-1,81
 344 25 344 25 322.5 14 c 128,-1,82
 301 3 301 3 277 -3.5 c 128,-1,83
 253 -10 253 -10 229 -10 c 0,84,85
 215 -10 215 -10 200 -5.5 c 128,-1,86
 185 -1 185 -1 172 7.5 c 128,-1,87
 159 16 159 16 151 27.5 c 128,-1,88
 143 39 143 39 143 54 c 0,0,1
EndSplineSet
EndChar

StartChar: brokenbar
Encoding: 166 166 100
Width: 842
Flags: W
LayerCount: 2
Fore
SplineSet
344 1780 m 1,0,-1
 498 1780 l 1,1,-1
 498 946 l 1,2,-1
 344 946 l 1,3,-1
 344 1780 l 1,0,-1
344 645 m 1,4,-1
 498 645 l 1,5,-1
 498 -186 l 1,6,-1
 344 -186 l 1,7,-1
 344 645 l 1,4,-1
EndSplineSet
EndChar

StartChar: dieresis
Encoding: 168 168 101
Width: 782
Flags: W
LayerCount: 2
Fore
SplineSet
608 1408 m 0,0,1
 566 1408 566 1408 537.5 1435.5 c 128,-1,2
 509 1463 509 1463 509 1514 c 0,3,4
 509 1540 509 1540 519 1562 c 128,-1,5
 529 1584 529 1584 545.5 1599.5 c 128,-1,6
 562 1615 562 1615 583 1624 c 128,-1,7
 604 1633 604 1633 626 1633 c 0,8,9
 678 1633 678 1633 701.5 1604 c 128,-1,10
 725 1575 725 1575 725 1528 c 0,11,12
 725 1500 725 1500 715.5 1478 c 128,-1,13
 706 1456 706 1456 690 1440.5 c 128,-1,14
 674 1425 674 1425 652.5 1416.5 c 128,-1,15
 631 1408 631 1408 608 1408 c 0,0,1
157 1408 m 0,16,17
 115 1408 115 1408 86 1435.5 c 128,-1,18
 57 1463 57 1463 57 1514 c 0,19,20
 57 1540 57 1540 67 1562 c 128,-1,21
 77 1584 77 1584 93.5 1599.5 c 128,-1,22
 110 1615 110 1615 131.5 1624 c 128,-1,23
 153 1633 153 1633 175 1633 c 0,24,25
 228 1633 228 1633 251 1604 c 128,-1,26
 274 1575 274 1575 274 1528 c 0,27,28
 274 1500 274 1500 264.5 1478 c 128,-1,29
 255 1456 255 1456 239 1440.5 c 128,-1,30
 223 1425 223 1425 201.5 1416.5 c 128,-1,31
 180 1408 180 1408 157 1408 c 0,16,17
EndSplineSet
EndChar

StartChar: copyright
Encoding: 169 169 102
Width: 2133
Flags: W
LayerCount: 2
Fore
SplineSet
1066 255 m 256,0,1
 946 255 946 255 835.5 286 c 128,-1,2
 725 317 725 317 629 373.5 c 128,-1,3
 533 430 533 430 455 509.5 c 128,-1,4
 377 589 377 589 321 685.5 c 128,-1,5
 265 782 265 782 234.5 893 c 128,-1,6
 204 1004 204 1004 204 1125 c 0,7,8
 204 1245 204 1245 234.5 1356 c 128,-1,9
 265 1467 265 1467 321 1563 c 128,-1,10
 377 1659 377 1659 455 1738 c 128,-1,11
 533 1817 533 1817 629 1873 c 128,-1,12
 725 1929 725 1929 835.5 1960 c 128,-1,13
 946 1991 946 1991 1066 1991 c 256,14,15
 1186 1991 1186 1991 1296.5 1960 c 128,-1,16
 1407 1929 1407 1929 1503 1873 c 128,-1,17
 1599 1817 1599 1817 1677.5 1738 c 128,-1,18
 1756 1659 1756 1659 1812 1563 c 128,-1,19
 1868 1467 1868 1467 1898.5 1356 c 128,-1,20
 1929 1245 1929 1245 1929 1125 c 256,21,22
 1929 1005 1929 1005 1898.5 893.5 c 128,-1,23
 1868 782 1868 782 1812 685.5 c 128,-1,24
 1756 589 1756 589 1677.5 509.5 c 128,-1,25
 1599 430 1599 430 1503 373.5 c 128,-1,26
 1407 317 1407 317 1296.5 286 c 128,-1,27
 1186 255 1186 255 1066 255 c 256,0,1
1066 354 m 256,28,29
 1173 354 1173 354 1270.5 381.5 c 128,-1,30
 1368 409 1368 409 1451.5 459 c 128,-1,31
 1535 509 1535 509 1603 579.5 c 128,-1,32
 1671 650 1671 650 1719 735.5 c 128,-1,33
 1767 821 1767 821 1793 919.5 c 128,-1,34
 1819 1018 1819 1018 1819 1125 c 0,35,36
 1819 1231 1819 1231 1793 1329 c 128,-1,37
 1767 1427 1767 1427 1719 1512.5 c 128,-1,38
 1671 1598 1671 1598 1603 1668.5 c 128,-1,39
 1535 1739 1535 1739 1451.5 1789 c 128,-1,40
 1368 1839 1368 1839 1270.5 1866.5 c 128,-1,41
 1173 1894 1173 1894 1066 1894 c 256,42,43
 959 1894 959 1894 861.5 1866.5 c 128,-1,44
 764 1839 764 1839 680.5 1789 c 128,-1,45
 597 1739 597 1739 529 1668.5 c 128,-1,46
 461 1598 461 1598 413 1512.5 c 128,-1,47
 365 1427 365 1427 339 1329 c 128,-1,48
 313 1231 313 1231 313 1125 c 256,49,50
 313 1019 313 1019 339 920 c 128,-1,51
 365 821 365 821 413 735.5 c 128,-1,52
 461 650 461 650 529 579.5 c 128,-1,53
 597 509 597 509 680.5 459 c 128,-1,54
 764 409 764 409 861.5 381.5 c 128,-1,55
 959 354 959 354 1066 354 c 256,28,29
1070 640 m 0,56,57
 966 640 966 640 884 679 c 128,-1,58
 802 718 802 718 745 784.5 c 128,-1,59
 688 851 688 851 657.5 938 c 128,-1,60
 627 1025 627 1025 627 1121 c 0,61,62
 627 1226 627 1226 659 1316 c 128,-1,63
 691 1406 691 1406 752.5 1471.5 c 128,-1,64
 814 1537 814 1537 905 1574.5 c 128,-1,65
 996 1612 996 1612 1115 1612 c 0,66,67
 1166 1612 1166 1612 1206 1605.5 c 128,-1,68
 1246 1599 1246 1599 1275 1589 c 128,-1,69
 1304 1579 1304 1579 1324.5 1568 c 128,-1,70
 1345 1557 1345 1557 1357 1548 c 1,71,-1
 1331 1424 l 1,72,73
 1288 1459 1288 1459 1228.5 1475.5 c 128,-1,74
 1169 1492 1169 1492 1102 1492 c 0,75,76
 1025 1492 1025 1492 964 1465.5 c 128,-1,77
 903 1439 903 1439 861 1391 c 128,-1,78
 819 1343 819 1343 797 1277 c 128,-1,79
 775 1211 775 1211 775 1132 c 0,80,81
 775 1049 775 1049 797 980.5 c 128,-1,82
 819 912 819 912 860 863 c 128,-1,83
 901 814 901 814 959.5 787 c 128,-1,84
 1018 760 1018 760 1090 760 c 0,85,86
 1132 760 1132 760 1169 766 c 128,-1,87
 1206 772 1206 772 1237.5 781.5 c 128,-1,88
 1269 791 1269 791 1295 802.5 c 128,-1,89
 1321 814 1321 814 1340 826 c 1,90,-1
 1376 730 l 1,91,92
 1329 693 1329 693 1249.5 666.5 c 128,-1,93
 1170 640 1170 640 1070 640 c 0,56,57
EndSplineSet
EndChar

StartChar: guilsinglleft
Encoding: 8249 8249 104
Width: 1204
Flags: W
LayerCount: 2
Fore
SplineSet
245 683 m 1,0,-1
 898 1131 l 1,1,-1
 942 1006 l 1,2,-1
 408 615 l 1,3,-1
 942 227 l 1,4,-1
 898 106 l 1,5,-1
 245 542 l 1,6,-1
 245 683 l 1,0,-1
EndSplineSet
EndChar

StartChar: registered
Encoding: 174 174 105
Width: 2133
Flags: W
LayerCount: 2
Fore
SplineSet
422 907 m 256,0,1
 392 997 392 997 387 1088 c 128,-1,2
 382 1179 382 1179 399 1265 c 128,-1,3
 416 1351 416 1351 455 1430 c 128,-1,4
 494 1509 494 1509 551 1575.5 c 128,-1,5
 608 1642 608 1642 683 1693 c 128,-1,6
 758 1744 758 1744 848 1774 c 256,7,8
 938 1804 938 1804 1028.5 1808.5 c 128,-1,9
 1119 1813 1119 1813 1204.5 1795 c 128,-1,10
 1290 1777 1290 1777 1368.5 1738 c 128,-1,11
 1447 1699 1447 1699 1513 1641 c 128,-1,12
 1579 1583 1579 1583 1629.5 1507.5 c 128,-1,13
 1680 1432 1680 1432 1710 1342 c 256,14,15
 1740 1252 1740 1252 1745 1161 c 128,-1,16
 1750 1070 1750 1070 1733 983.5 c 128,-1,17
 1716 897 1716 897 1677 818 c 128,-1,18
 1638 739 1638 739 1581 672.5 c 128,-1,19
 1524 606 1524 606 1449 554.5 c 128,-1,20
 1374 503 1374 503 1284 473 c 256,21,22
 1194 443 1194 443 1103.5 438.5 c 128,-1,23
 1013 434 1013 434 927.5 452 c 128,-1,24
 842 470 842 470 763.5 509.5 c 128,-1,25
 685 549 685 549 619 607.5 c 128,-1,26
 553 666 553 666 502.5 741.5 c 128,-1,27
 452 817 452 817 422 907 c 256,0,1
752 1604 m 1,28,-1
 826 1604 l 2,29,30
 889 1604 889 1604 950.5 1607 c 128,-1,31
 1012 1610 1012 1610 1076 1610 c 0,32,33
 1169 1610 1169 1610 1236.5 1589 c 128,-1,34
 1304 1568 1304 1568 1347.5 1531.5 c 128,-1,35
 1391 1495 1391 1495 1412 1446 c 128,-1,36
 1433 1397 1433 1397 1433 1341 c 0,37,38
 1433 1286 1433 1286 1421.5 1238 c 128,-1,39
 1410 1190 1410 1190 1384 1151 c 128,-1,40
 1358 1112 1358 1112 1316 1084.5 c 128,-1,41
 1274 1057 1274 1057 1213 1043 c 1,42,43
 1246 1022 1246 1022 1271 988.5 c 128,-1,44
 1296 955 1296 955 1317 917 c 128,-1,45
 1338 879 1338 879 1356 840 c 128,-1,46
 1374 801 1374 801 1393 768 c 0,47,48
 1404 747 1404 747 1417.5 727 c 128,-1,49
 1431 707 1431 707 1454 673 c 1,50,51
 1522 733 1522 733 1567 810.5 c 128,-1,52
 1612 888 1612 888 1632 975.5 c 128,-1,53
 1652 1063 1652 1063 1645.5 1156 c 128,-1,54
 1639 1249 1639 1249 1605 1339 c 0,55,56
 1561 1453 1561 1453 1481.5 1537.5 c 128,-1,57
 1402 1622 1402 1622 1300.5 1668.5 c 128,-1,58
 1199 1715 1199 1715 1083.5 1720 c 128,-1,59
 968 1725 968 1725 852 1680 c 256,60,61
 736 1635 736 1635 654 1552.5 c 128,-1,62
 572 1470 572 1470 529 1365.5 c 128,-1,63
 486 1261 486 1261 484.5 1143 c 128,-1,64
 483 1025 483 1025 527 911 c 0,65,66
 571 796 571 796 650.5 711 c 128,-1,67
 730 626 730 626 831.5 579.5 c 128,-1,68
 933 533 933 533 1048.5 528 c 128,-1,69
 1164 523 1164 523 1280 568 c 0,70,71
 1354 596 1354 596 1415 642 c 1,72,-1
 1320 643 l 1,73,74
 1301 666 1301 666 1287 691.5 c 128,-1,75
 1273 717 1273 717 1258 748 c 1,76,77
 1240 781 1240 781 1222 823.5 c 128,-1,78
 1204 866 1204 866 1181 906.5 c 128,-1,79
 1158 947 1158 947 1128.5 979 c 128,-1,80
 1099 1011 1099 1011 1059 1023 c 1,81,-1
 887 1023 l 1,82,-1
 887 642 l 1,83,-1
 752 642 l 1,84,-1
 752 1604 l 1,28,-1
887 1124 m 1,85,86
 895 1123 895 1123 920 1122.5 c 128,-1,87
 945 1122 945 1122 973 1121.5 c 128,-1,88
 1001 1121 1001 1121 1026.5 1121 c 128,-1,89
 1052 1121 1052 1121 1061 1121 c 0,90,91
 1174 1123 1174 1123 1233.5 1170.5 c 128,-1,92
 1293 1218 1293 1218 1293 1324 c 0,93,94
 1293 1367 1293 1367 1279.5 1402 c 128,-1,95
 1266 1437 1266 1437 1236 1461.5 c 128,-1,96
 1206 1486 1206 1486 1157.5 1498 c 128,-1,97
 1109 1510 1109 1510 1039 1509 c 0,98,99
 1004 1508 1004 1508 970.5 1506 c 128,-1,100
 937 1504 937 1504 887 1499 c 1,101,-1
 887 1124 l 1,85,86
EndSplineSet
EndChar

StartChar: macron
Encoding: 175 175 106
Width: 643
Flags: W
LayerCount: 2
Fore
SplineSet
50 1576 m 1,0,-1
 593 1576 l 1,1,-1
 593 1452 l 1,2,-1
 50 1452 l 1,3,-1
 50 1576 l 1,0,-1
EndSplineSet
EndChar

StartChar: degree
Encoding: 176 176 107
Width: 909
Flags: W
LayerCount: 2
Fore
SplineSet
454 947 m 0,0,1
 385 947 385 947 324.5 972.5 c 128,-1,2
 264 998 264 998 218.5 1042 c 128,-1,3
 173 1086 173 1086 147 1146.5 c 128,-1,4
 121 1207 121 1207 121 1278 c 0,5,6
 121 1350 121 1350 146.5 1410.5 c 128,-1,7
 172 1471 172 1471 217 1515 c 128,-1,8
 262 1559 262 1559 322.5 1584 c 128,-1,9
 383 1609 383 1609 454 1609 c 0,10,11
 524 1609 524 1609 584.5 1584 c 128,-1,12
 645 1559 645 1559 690 1514.5 c 128,-1,13
 735 1470 735 1470 761 1409.5 c 128,-1,14
 787 1349 787 1349 787 1278 c 0,15,16
 787 1206 787 1206 761.5 1145.5 c 128,-1,17
 736 1085 736 1085 691.5 1040.5 c 128,-1,18
 647 996 647 996 586 971.5 c 128,-1,19
 525 947 525 947 454 947 c 0,0,1
454 1050 m 0,20,21
 501 1050 501 1050 542 1067 c 128,-1,22
 583 1084 583 1084 613 1114.5 c 128,-1,23
 643 1145 643 1145 660 1186.5 c 128,-1,24
 677 1228 677 1228 677 1278 c 0,25,26
 677 1326 677 1326 659.5 1367.5 c 128,-1,27
 642 1409 642 1409 612 1439.5 c 128,-1,28
 582 1470 582 1470 541 1487.5 c 128,-1,29
 500 1505 500 1505 454 1505 c 0,30,31
 407 1505 407 1505 366.5 1488 c 128,-1,32
 326 1471 326 1471 296 1440.5 c 128,-1,33
 266 1410 266 1410 249 1368.5 c 128,-1,34
 232 1327 232 1327 232 1278 c 0,35,36
 232 1230 232 1230 249.5 1188 c 128,-1,37
 267 1146 267 1146 297 1115.5 c 128,-1,38
 327 1085 327 1085 367.5 1067.5 c 128,-1,39
 408 1050 408 1050 454 1050 c 0,20,21
EndSplineSet
EndChar

StartChar: plusminus
Encoding: 177 177 108
Width: 1393
Flags: W
LayerCount: 2
Fore
SplineSet
251 126 m 1,0,-1
 1141 126 l 1,1,-1
 1141 0 l 1,2,-1
 251 0 l 1,3,-1
 251 126 l 1,0,-1
627 539 m 1,4,-1
 632 711 l 1,5,-1
 469 706 l 1,6,-1
 232 706 l 1,7,-1
 232 840 l 1,8,-1
 469 840 l 1,9,-1
 632 832 l 1,10,-1
 627 1003 l 1,11,-1
 627 1247 l 1,12,-1
 763 1247 l 1,13,-1
 763 1003 l 1,14,-1
 757 832 l 1,15,-1
 906 840 l 1,16,-1
 1161 840 l 1,17,-1
 1161 706 l 1,18,-1
 906 706 l 1,19,-1
 757 711 l 1,20,-1
 763 539 l 1,21,-1
 763 288 l 1,22,-1
 627 288 l 1,23,-1
 627 539 l 1,4,-1
EndSplineSet
EndChar

StartChar: acute
Encoding: 180 180 109
Width: 557
Flags: W
LayerCount: 2
Fore
SplineSet
50 1383 m 1,0,1
 140 1481 140 1481 224.5 1577.5 c 128,-1,2
 309 1674 309 1674 387 1781 c 1,3,-1
 507 1678 l 1,4,5
 490 1653 490 1653 462 1620 c 128,-1,6
 434 1587 434 1587 400 1551.5 c 128,-1,7
 366 1516 366 1516 329 1480 c 128,-1,8
 292 1444 292 1444 256.5 1412 c 128,-1,9
 221 1380 221 1380 189.5 1354.5 c 128,-1,10
 158 1329 158 1329 136 1315 c 1,11,-1
 50 1383 l 1,0,1
EndSplineSet
EndChar

StartChar: paragraph
Encoding: 182 182 110
Width: 1309
Flags: W
LayerCount: 2
Fore
SplineSet
541 777 m 1,0,1
 318 777 318 777 208.5 891 c 128,-1,2
 99 1005 99 1005 99 1251 c 0,3,4
 99 1355 99 1355 134 1440 c 128,-1,5
 169 1525 169 1525 239 1585 c 128,-1,6
 309 1645 309 1645 414 1678 c 128,-1,7
 519 1711 519 1711 658 1711 c 0,8,9
 693 1711 693 1711 751 1708 c 128,-1,10
 809 1705 809 1705 872.5 1701 c 128,-1,11
 936 1697 936 1697 998 1693.5 c 128,-1,12
 1060 1690 1060 1690 1103 1689 c 1,13,-1
 1103 0 l 1,14,-1
 963 0 l 1,15,-1
 963 1579 l 1,16,17
 958 1579 958 1579 937.5 1579.5 c 128,-1,18
 917 1580 917 1580 888 1581 c 128,-1,19
 859 1582 859 1582 825.5 1583 c 128,-1,20
 792 1584 792 1584 762.5 1585 c 128,-1,21
 733 1586 733 1586 710.5 1586 c 128,-1,22
 688 1586 688 1586 681 1586 c 1,23,-1
 681 0 l 1,24,-1
 541 0 l 1,25,-1
 541 777 l 1,0,1
EndSplineSet
EndChar

StartChar: cedilla
Encoding: 184 184 112
Width: 468
Flags: W
LayerCount: 2
Fore
SplineSet
332 25 m 1,0,-1
 366 21 l 1,1,2
 395 -17 395 -17 408.5 -82 c 128,-1,3
 422 -147 422 -147 417 -232 c 0,4,5
 413 -295 413 -295 393 -339.5 c 128,-1,6
 373 -384 373 -384 342 -411.5 c 128,-1,7
 311 -439 311 -439 271 -451.5 c 128,-1,8
 231 -464 231 -464 188 -464 c 0,9,10
 170 -464 170 -464 149 -462 c 128,-1,11
 128 -460 128 -460 108.5 -456 c 128,-1,12
 89 -452 89 -452 73 -447 c 128,-1,13
 57 -442 57 -442 48 -436 c 1,14,-1
 60 -327 l 1,15,16
 73 -335 73 -335 97.5 -340 c 128,-1,17
 122 -345 122 -345 150 -345 c 0,18,19
 210 -345 210 -345 249 -307 c 128,-1,20
 288 -269 288 -269 293 -180 c 1,21,22
 300 -103 300 -103 291 -56.5 c 128,-1,23
 282 -10 282 -10 268 21 c 1,24,-1
 332 25 l 1,0,-1
EndSplineSet
EndChar

StartChar: multiply
Encoding: 215 215 115
Width: 1370
Flags: W
LayerCount: 2
Fore
SplineSet
250 424 m 1,0,-1
 598 771 l 1,1,-1
 250 1127 l 1,2,-1
 349 1224 l 1,3,-1
 686 862 l 1,4,-1
 1022 1224 l 1,5,-1
 1121 1127 l 1,6,-1
 773 774 l 1,7,-1
 1121 424 l 1,8,-1
 1022 326 l 1,9,-1
 686 680 l 1,10,-1
 349 326 l 1,11,-1
 250 424 l 1,0,-1
EndSplineSet
EndChar

StartChar: germandbls
Encoding: 223 223 116
Width: 1260
Flags: W
LayerCount: 2
Fore
SplineSet
189 986 m 1,0,-1
 189 1014 l 1,1,-1
 41 1014 l 1,2,-1
 41 1113 l 1,3,-1
 202 1143 l 1,4,5
 222 1257 222 1257 269.5 1339.5 c 128,-1,6
 317 1422 317 1422 384.5 1475 c 128,-1,7
 452 1528 452 1528 536.5 1553.5 c 128,-1,8
 621 1579 621 1579 714 1579 c 0,9,10
 784 1579 784 1579 850 1562.5 c 128,-1,11
 916 1546 916 1546 967 1512.5 c 128,-1,12
 1018 1479 1018 1479 1048.5 1428 c 128,-1,13
 1079 1377 1079 1377 1079 1308 c 0,14,15
 1079 1249 1079 1249 1062.5 1203.5 c 128,-1,16
 1046 1158 1046 1158 1020.5 1121.5 c 128,-1,17
 995 1085 995 1085 966 1055 c 128,-1,18
 937 1025 937 1025 911.5 996.5 c 128,-1,19
 886 968 886 968 869.5 938.5 c 128,-1,20
 853 909 853 909 853 874 c 0,21,22
 853 823 853 823 880.5 784.5 c 128,-1,23
 908 746 908 746 949 711 c 128,-1,24
 990 676 990 676 1038.5 640.5 c 128,-1,25
 1087 605 1087 605 1128 559.5 c 128,-1,26
 1169 514 1169 514 1196.5 454 c 128,-1,27
 1224 394 1224 394 1224 311 c 0,28,29
 1224 221 1224 221 1188.5 158.5 c 128,-1,30
 1153 96 1153 96 1096.5 57.5 c 128,-1,31
 1040 19 1040 19 970 1.5 c 128,-1,32
 900 -16 900 -16 830 -16 c 0,33,34
 792 -16 792 -16 757 -13 c 128,-1,35
 722 -10 722 -10 692 -5.5 c 128,-1,36
 662 -1 662 -1 638 5 c 128,-1,37
 614 11 614 11 599 17 c 1,38,-1
 599 149 l 1,39,40
 628 134 628 134 686.5 118 c 128,-1,41
 745 102 745 102 836 102 c 0,42,43
 878 102 878 102 917 113 c 128,-1,44
 956 124 956 124 987 147.5 c 128,-1,45
 1018 171 1018 171 1036.5 207 c 128,-1,46
 1055 243 1055 243 1055 293 c 0,47,48
 1055 355 1055 355 1028.5 400.5 c 128,-1,49
 1002 446 1002 446 962.5 484.5 c 128,-1,50
 923 523 923 523 877 558.5 c 128,-1,51
 831 594 831 594 791.5 636 c 128,-1,52
 752 678 752 678 725.5 730.5 c 128,-1,53
 699 783 699 783 699 855 c 0,54,55
 699 900 699 900 715 936 c 128,-1,56
 731 972 731 972 755 1003.5 c 128,-1,57
 779 1035 779 1035 806.5 1064.5 c 128,-1,58
 834 1094 834 1094 858 1127 c 128,-1,59
 882 1160 882 1160 898 1198.5 c 128,-1,60
 914 1237 914 1237 914 1287 c 0,61,62
 914 1335 914 1335 895.5 1368 c 128,-1,63
 877 1401 877 1401 845.5 1421.5 c 128,-1,64
 814 1442 814 1442 773 1451 c 128,-1,65
 732 1460 732 1460 686 1460 c 0,66,67
 614 1460 614 1460 553.5 1434 c 128,-1,68
 493 1408 493 1408 449 1350 c 128,-1,69
 405 1292 405 1292 380.5 1200 c 128,-1,70
 356 1108 356 1108 356 975 c 2,71,-1
 356 0 l 1,72,-1
 189 0 l 1,73,-1
 189 986 l 1,0,-1
EndSplineSet
EndChar

StartChar: eth
Encoding: 240 240 117
Width: 1210
Flags: W
LayerCount: 2
Fore
SplineSet
103 557 m 0,0,1
 103 699 103 699 141 810 c 128,-1,2
 179 921 179 921 246.5 998 c 128,-1,3
 314 1075 314 1075 408 1115 c 128,-1,4
 502 1155 502 1155 613 1155 c 1,5,6
 691 1154 691 1154 759 1124 c 128,-1,7
 827 1094 827 1094 878 1042 c 1,8,9
 834 1176 834 1176 752.5 1288.5 c 128,-1,10
 671 1401 671 1401 564 1483 c 1,11,-1
 423 1323 l 1,12,-1
 334 1393 l 1,13,-1
 475 1546 l 1,14,15
 418 1582 418 1582 355 1613.5 c 128,-1,16
 292 1645 292 1645 238 1662 c 1,17,-1
 278 1759 l 1,18,19
 352 1736 352 1736 424 1702.5 c 128,-1,20
 496 1669 496 1669 556 1634 c 1,21,22
 576 1656 576 1656 599.5 1683 c 128,-1,23
 623 1710 623 1710 643 1735 c 1,24,25
 667 1763 667 1763 691 1793 c 1,26,-1
 781 1724 l 1,27,28
 758 1697 758 1697 734 1671 c 0,29,30
 714 1648 714 1648 690.5 1621.5 c 128,-1,31
 667 1595 667 1595 646 1573 c 1,32,-1
 656 1567 l 1,33,34
 764 1486 764 1486 848.5 1383.5 c 128,-1,35
 933 1281 933 1281 991 1160 c 128,-1,36
 1049 1039 1049 1039 1079 901 c 128,-1,37
 1109 763 1109 763 1109 612 c 0,38,39
 1109 451 1109 451 1072 331.5 c 128,-1,40
 1035 212 1035 212 969 133 c 128,-1,41
 903 54 903 54 811 14 c 128,-1,42
 719 -26 719 -26 609 -27 c 0,43,44
 494 -29 494 -29 400.5 11 c 128,-1,45
 307 51 307 51 241 127 c 128,-1,46
 175 203 175 203 139 312 c 128,-1,47
 103 421 103 421 103 557 c 0,0,1
615 88 m 0,48,49
 679 88 679 88 738 117 c 128,-1,50
 797 146 797 146 842.5 206 c 128,-1,51
 888 266 888 266 915 357.5 c 128,-1,52
 942 449 942 449 942 574 c 0,53,54
 942 635 942 635 941.5 706 c 128,-1,55
 941 777 941 777 933 851 c 1,56,57
 922 887 922 887 896 919.5 c 128,-1,58
 870 952 870 952 830 976.5 c 128,-1,59
 790 1001 790 1001 736.5 1015.5 c 128,-1,60
 683 1030 683 1030 619 1030 c 0,61,62
 536 1030 536 1030 470.5 996.5 c 128,-1,63
 405 963 405 963 360 902 c 128,-1,64
 315 841 315 841 291.5 755 c 128,-1,65
 268 669 268 669 268 563 c 0,66,67
 268 449 268 449 294 360.5 c 128,-1,68
 320 272 320 272 366 211.5 c 128,-1,69
 412 151 412 151 475.5 119.5 c 128,-1,70
 539 88 539 88 615 88 c 0,48,49
EndSplineSet
EndChar

StartChar: endash
Encoding: 8211 8211 118
Width: 1692
Flags: W
LayerCount: 2
Fore
SplineSet
240 840 m 1,0,-1
 1452 840 l 1,1,-1
 1452 705 l 1,2,-1
 240 705 l 1,3,-1
 240 840 l 1,0,-1
EndSplineSet
EndChar

StartChar: emdash
Encoding: 8212 8212 119
Width: 2343
Flags: W
LayerCount: 2
Fore
SplineSet
240 840 m 1,0,-1
 2103 840 l 1,1,-1
 2103 705 l 1,2,-1
 240 705 l 1,3,-1
 240 840 l 1,0,-1
EndSplineSet
EndChar

StartChar: quoteleft
Encoding: 8216 8216 120
Width: 498
Flags: W
LayerCount: 2
Fore
SplineSet
289 963 m 1,0,1
 244 978 244 978 208.5 1011.5 c 128,-1,2
 173 1045 173 1045 148 1090.5 c 128,-1,3
 123 1136 123 1136 109.5 1191.5 c 128,-1,4
 96 1247 96 1247 96 1307 c 0,5,6
 96 1389 96 1389 118 1459 c 128,-1,7
 140 1529 140 1529 172 1583.5 c 128,-1,8
 204 1638 204 1638 241.5 1677 c 128,-1,9
 279 1716 279 1716 311 1737 c 1,10,-1
 383 1690 l 1,11,-1
 383 1665 l 1,12,13
 361 1648 361 1648 338 1615 c 128,-1,14
 315 1582 315 1582 296 1538.5 c 128,-1,15
 277 1495 277 1495 265 1443.5 c 128,-1,16
 253 1392 253 1392 253 1338 c 0,17,18
 253 1300 253 1300 263 1263 c 128,-1,19
 273 1226 273 1226 289.5 1194.5 c 128,-1,20
 306 1163 306 1163 328 1139.5 c 128,-1,21
 350 1116 350 1116 375 1106 c 1,22,-1
 375 1059 l 1,23,-1
 289 963 l 1,24,-1
 289 963 l 1,0,1
EndSplineSet
EndChar

StartChar: quoteright
Encoding: 8217 8217 121
Width: 498
Flags: W
LayerCount: 2
Fore
SplineSet
126 1010 m 1,0,-1
 126 1035 l 1,1,2
 144 1053 144 1053 163.5 1086 c 128,-1,3
 183 1119 183 1119 199 1162.5 c 128,-1,4
 215 1206 215 1206 225.5 1257 c 128,-1,5
 236 1308 236 1308 236 1362 c 0,6,7
 236 1401 236 1401 227.5 1439.5 c 128,-1,8
 219 1478 219 1478 204.5 1510.5 c 128,-1,9
 190 1543 190 1543 170.5 1567 c 128,-1,10
 151 1591 151 1591 129 1602 c 1,11,-1
 129 1649 l 1,12,-1
 237 1737 l 1,13,14
 310 1706 310 1706 351.5 1624.5 c 128,-1,15
 393 1543 393 1543 393 1424 c 0,16,17
 393 1329 393 1329 373 1253 c 128,-1,18
 353 1177 353 1177 324 1119.5 c 128,-1,19
 295 1062 295 1062 260.5 1023 c 128,-1,20
 226 984 226 984 198 963 c 1,21,-1
 126 1010 l 1,0,-1
EndSplineSet
EndChar

StartChar: dagger
Encoding: 8224 8224 126
Width: 1026
Flags: W
LayerCount: 2
Fore
SplineSet
438 1150 m 1,0,-1
 126 1147 l 1,1,-1
 127 1272 l 1,2,-1
 438 1268 l 1,3,-1
 435 1658 l 1,4,-1
 591 1658 l 1,5,-1
 588 1268 l 1,6,-1
 900 1272 l 1,7,-1
 900 1147 l 1,8,-1
 588 1150 l 1,9,-1
 579 200 l 1,10,-1
 446 200 l 1,11,-1
 438 1150 l 1,0,-1
EndSplineSet
EndChar

StartChar: bullet
Encoding: 8226 8226 127
Width: 842
Flags: W
LayerCount: 2
Fore
SplineSet
413 548 m 256,0,1
 378 548 378 548 347.5 562 c 128,-1,2
 317 576 317 576 294.5 600 c 128,-1,3
 272 624 272 624 260 656 c 128,-1,4
 248 688 248 688 250 724 c 0,5,6
 252 761 252 761 267 793.5 c 128,-1,7
 282 826 282 826 306 850 c 128,-1,8
 330 874 330 874 362 888 c 128,-1,9
 394 902 394 902 429 902 c 256,10,11
 464 902 464 902 494.5 888.5 c 128,-1,12
 525 875 525 875 547.5 851.5 c 128,-1,13
 570 828 570 828 582 796.5 c 128,-1,14
 594 765 594 765 592 728 c 256,15,16
 590 691 590 691 575 658 c 128,-1,17
 560 625 560 625 536 600.5 c 128,-1,18
 512 576 512 576 480 562 c 128,-1,19
 448 548 448 548 413 548 c 256,0,1
EndSplineSet
EndChar

StartChar: logicalnot
Encoding: 172 172 130
Width: 1470
Flags: W
LayerCount: 2
Fore
SplineSet
240 852 m 1,0,-1
 1230 852 l 1,1,-1
 1230 323 l 1,2,-1
 1078 323 l 1,3,-1
 1078 726 l 1,4,-1
 240 726 l 1,5,-1
 240 852 l 1,0,-1
EndSplineSet
EndChar

StartChar: yen
Encoding: 165 165 131
Width: 1532
Flags: W
LayerCount: 2
Fore
SplineSet
278 431 m 1,0,-1
 684 431 l 1,1,-1
 684 689 l 1,2,-1
 278 689 l 1,3,-1
 278 799 l 1,4,-1
 653 799 l 1,5,-1
 186 1522 l 1,6,-1
 367 1522 l 1,7,-1
 695 988 l 1,8,-1
 768 849 l 1,9,-1
 837 993 l 1,10,-1
 1170 1522 l 1,11,-1
 1349 1522 l 1,12,-1
 875 799 l 1,13,-1
 1240 799 l 1,14,-1
 1240 689 l 1,15,-1
 850 689 l 1,16,-1
 850 431 l 1,17,-1
 1240 431 l 1,18,-1
 1240 321 l 1,19,-1
 850 321 l 1,20,-1
 850 0 l 1,21,-1
 684 0 l 1,22,-1
 684 321 l 1,23,-1
 278 321 l 1,24,-1
 278 431 l 1,0,-1
EndSplineSet
EndChar

StartChar: divide
Encoding: 247 247 132
Width: 1393
Flags: W
LayerCount: 2
Fore
SplineSet
694 1058 m 0,0,1
 649 1058 649 1058 618 1087 c 128,-1,2
 587 1116 587 1116 587 1170 c 0,3,4
 587 1198 587 1198 597.5 1222 c 128,-1,5
 608 1246 608 1246 625.5 1263 c 128,-1,6
 643 1280 643 1280 665 1289.5 c 128,-1,7
 687 1299 687 1299 711 1299 c 0,8,9
 766 1299 766 1299 792.5 1267.5 c 128,-1,10
 819 1236 819 1236 819 1186 c 0,11,12
 819 1156 819 1156 808.5 1132.5 c 128,-1,13
 798 1109 798 1109 781 1092.5 c 128,-1,14
 764 1076 764 1076 741 1067 c 128,-1,15
 718 1058 718 1058 694 1058 c 0,0,1
232 839 m 1,16,-1
 1161 839 l 1,17,-1
 1161 709 l 1,18,-1
 232 709 l 1,19,-1
 232 839 l 1,16,-1
586 373 m 0,20,21
 586 401 586 401 596.5 424.5 c 128,-1,22
 607 448 607 448 624.5 465 c 128,-1,23
 642 482 642 482 664 491.5 c 128,-1,24
 686 501 686 501 710 501 c 0,25,26
 765 501 765 501 791.5 469.5 c 128,-1,27
 818 438 818 438 818 389 c 0,28,29
 818 359 818 359 807.5 335.5 c 128,-1,30
 797 312 797 312 780 295.5 c 128,-1,31
 763 279 763 279 740.5 270 c 128,-1,32
 718 261 718 261 693 261 c 0,33,34
 649 261 649 261 617.5 290 c 128,-1,35
 586 319 586 319 586 373 c 0,20,21
EndSplineSet
EndChar

StartChar: daggerdbl
Encoding: 8225 8225 133
Width: 1026
Flags: W
LayerCount: 2
Fore
SplineSet
126 622 m 1,0,-1
 437 619 l 1,1,-1
 437 1150 l 1,2,-1
 126 1147 l 1,3,-1
 127 1272 l 1,4,-1
 437 1269 l 1,5,-1
 434 1658 l 1,6,-1
 591 1658 l 1,7,-1
 587 1269 l 1,8,-1
 900 1272 l 1,9,-1
 900 1147 l 1,10,-1
 587 1150 l 1,11,-1
 587 619 l 1,12,-1
 899 622 l 1,13,-1
 899 497 l 1,14,-1
 587 500 l 1,15,-1
 575 -356 l 1,16,-1
 449 -356 l 1,17,-1
 437 500 l 1,18,-1
 126 497 l 1,19,-1
 126 622 l 1,0,-1
EndSplineSet
EndChar

StartChar: cent
Encoding: 162 162 134
Width: 1184
Flags: W
LayerCount: 2
Fore
SplineSet
165 553 m 0,0,1
 165 674 165 674 195 778 c 128,-1,2
 225 882 225 882 284.5 961 c 128,-1,3
 344 1040 344 1040 432 1090 c 128,-1,4
 520 1140 520 1140 634 1152 c 1,5,-1
 640 1373 l 1,6,-1
 754 1373 l 1,7,-1
 748 1154 l 1,8,9
 833 1149 833 1149 893 1132 c 128,-1,10
 953 1115 953 1115 979 1097 c 1,11,-1
 951 965 l 1,12,13
 909 996 909 996 842 1011.5 c 128,-1,14
 775 1027 775 1027 694 1027 c 0,15,16
 623 1027 623 1027 558 1000 c 128,-1,17
 493 973 493 973 443 918 c 128,-1,18
 393 863 393 863 361.5 780.5 c 128,-1,19
 330 698 330 698 327 586 c 0,20,21
 324 466 324 466 352 377 c 128,-1,22
 380 288 380 288 429 228.5 c 128,-1,23
 478 169 478 169 544 139.5 c 128,-1,24
 610 110 610 110 682 110 c 0,25,26
 731 110 731 110 775.5 118 c 128,-1,27
 820 126 820 126 857.5 137.5 c 128,-1,28
 895 149 895 149 924 163 c 128,-1,29
 953 177 953 177 971 189 c 1,30,-1
 1005 93 l 1,31,32
 957 49 957 49 880 21 c 128,-1,33
 803 -7 803 -7 710 -14 c 1,34,-1
 707 -216 l 1,35,-1
 592 -216 l 1,36,-1
 595 -12 l 1,37,38
 492 -1 492 -1 412 46 c 128,-1,39
 332 93 332 93 277 168 c 128,-1,40
 222 243 222 243 193.5 341 c 128,-1,41
 165 439 165 439 165 553 c 0,0,1
EndSplineSet
EndChar

StartChar: circumflex
Encoding: 710 710 135
Width: 833
Flags: W
LayerCount: 2
Fore
SplineSet
48 1345 m 1,0,-1
 345 1692 l 1,1,-1
 494 1692 l 1,2,-1
 785 1346 l 1,3,-1
 682 1302 l 1,4,-1
 419 1565 l 1,5,-1
 145 1302 l 1,6,-1
 48 1345 l 1,0,-1
EndSplineSet
EndChar

StartChar: caron
Encoding: 711 711 136
Width: 824
Flags: W
LayerCount: 2
Fore
SplineSet
48 1648 m 1,0,-1
 145 1691 l 1,1,-1
 419 1428 l 1,2,-1
 682 1691 l 1,3,-1
 785 1647 l 1,4,-1
 494 1301 l 1,5,-1
 345 1301 l 1,6,-1
 48 1648 l 1,0,-1
EndSplineSet
EndChar

StartChar: breve
Encoding: 728 728 137
Width: 775
Flags: W
LayerCount: 2
Fore
SplineSet
387 1335 m 0,0,1
 304 1335 304 1335 239 1366 c 128,-1,2
 174 1397 174 1397 130.5 1447.5 c 128,-1,3
 87 1498 87 1498 65.5 1562.5 c 128,-1,4
 44 1627 44 1627 49 1694 c 1,5,-1
 167 1694 l 1,6,7
 167 1681 167 1681 170 1659 c 128,-1,8
 173 1637 173 1637 181 1611.5 c 128,-1,9
 189 1586 189 1586 204 1560 c 128,-1,10
 219 1534 219 1534 243.5 1513 c 128,-1,11
 268 1492 268 1492 303.5 1478.5 c 128,-1,12
 339 1465 339 1465 388 1465 c 0,13,14
 436 1465 436 1465 471 1478.5 c 128,-1,15
 506 1492 506 1492 531 1513.5 c 128,-1,16
 556 1535 556 1535 571.5 1561 c 128,-1,17
 587 1587 587 1587 596 1612.5 c 128,-1,18
 605 1638 605 1638 608 1660 c 128,-1,19
 611 1682 611 1682 611 1694 c 1,20,-1
 725 1694 l 1,21,22
 730 1627 730 1627 707.5 1562.5 c 128,-1,23
 685 1498 685 1498 640 1447.5 c 128,-1,24
 595 1397 595 1397 530.5 1366 c 128,-1,25
 466 1335 466 1335 387 1335 c 0,0,1
EndSplineSet
EndChar

StartChar: ring
Encoding: 730 730 138
Width: 713
Flags: W
LayerCount: 2
Fore
SplineSet
353 1332 m 0,0,1
 282 1332 282 1332 224.5 1351 c 128,-1,2
 167 1370 167 1370 127.5 1405.5 c 128,-1,3
 88 1441 88 1441 67 1490.5 c 128,-1,4
 46 1540 46 1540 47 1601 c 0,5,6
 48 1670 48 1670 75.5 1719 c 128,-1,7
 103 1768 103 1768 147 1798.5 c 128,-1,8
 191 1829 191 1829 246 1843.5 c 128,-1,9
 301 1858 301 1858 358 1858 c 0,10,11
 429 1858 429 1858 486 1840.5 c 128,-1,12
 543 1823 543 1823 583 1790 c 128,-1,13
 623 1757 623 1757 644.5 1709 c 128,-1,14
 666 1661 666 1661 666 1600 c 0,15,16
 665 1531 665 1531 639 1480.5 c 128,-1,17
 613 1430 613 1430 570 1397 c 128,-1,18
 527 1364 527 1364 470.5 1348 c 128,-1,19
 414 1332 414 1332 353 1332 c 0,0,1
354 1429 m 0,20,21
 394 1429 394 1429 429.5 1439 c 128,-1,22
 465 1449 465 1449 491.5 1469.5 c 128,-1,23
 518 1490 518 1490 533 1522 c 128,-1,24
 548 1554 548 1554 548 1599 c 0,25,26
 548 1638 548 1638 534 1668.5 c 128,-1,27
 520 1699 520 1699 494.5 1720 c 128,-1,28
 469 1741 469 1741 434 1752 c 128,-1,29
 399 1763 399 1763 357 1763 c 0,30,31
 322 1763 322 1763 288 1754.5 c 128,-1,32
 254 1746 254 1746 227 1727 c 128,-1,33
 200 1708 200 1708 183 1677 c 128,-1,34
 166 1646 166 1646 166 1601 c 0,35,36
 165 1524 165 1524 214.5 1477.5 c 128,-1,37
 264 1431 264 1431 354 1429 c 0,20,21
EndSplineSet
EndChar

StartChar: tilde
Encoding: 732 732 139
Width: 917
Flags: W
LayerCount: 2
Fore
SplineSet
48 1462 m 1,0,1
 63 1494 63 1494 89 1525.5 c 128,-1,2
 115 1557 115 1557 148.5 1582 c 128,-1,3
 182 1607 182 1607 222 1622.5 c 128,-1,4
 262 1638 262 1638 307 1638 c 0,5,6
 349 1638 349 1638 379.5 1627 c 128,-1,7
 410 1616 410 1616 433.5 1599.5 c 128,-1,8
 457 1583 457 1583 476.5 1564 c 128,-1,9
 496 1545 496 1545 515.5 1528.5 c 128,-1,10
 535 1512 535 1512 557.5 1501 c 128,-1,11
 580 1490 580 1490 611 1490 c 0,12,13
 646 1490 646 1490 675 1500 c 128,-1,14
 704 1510 704 1510 728 1525 c 128,-1,15
 752 1540 752 1540 770.5 1558.5 c 128,-1,16
 789 1577 789 1577 803 1594 c 1,17,-1
 870 1538 l 1,18,19
 853 1504 853 1504 827 1472.5 c 128,-1,20
 801 1441 801 1441 768 1416.5 c 128,-1,21
 735 1392 735 1392 695.5 1377.5 c 128,-1,22
 656 1363 656 1363 611 1363 c 0,23,24
 567 1363 567 1363 536 1374 c 128,-1,25
 505 1385 505 1385 481 1401.5 c 128,-1,26
 457 1418 457 1418 438 1437.5 c 128,-1,27
 419 1457 419 1457 400 1473.5 c 128,-1,28
 381 1490 381 1490 358.5 1501 c 128,-1,29
 336 1512 336 1512 305 1512 c 0,30,31
 273 1512 273 1512 244.5 1502 c 128,-1,32
 216 1492 216 1492 191.5 1476.5 c 128,-1,33
 167 1461 167 1461 147.5 1442.5 c 128,-1,34
 128 1424 128 1424 114 1408 c 1,35,-1
 48 1462 l 1,0,1
EndSplineSet
EndChar

StartChar: hungarumlaut
Encoding: 733 733 140
Width: 1017
Flags: W
LayerCount: 2
Fore
SplineSet
47 1387 m 1,0,1
 54 1396 54 1396 74.5 1427.5 c 128,-1,2
 95 1459 95 1459 122.5 1501 c 128,-1,3
 150 1543 150 1543 180.5 1590.5 c 128,-1,4
 211 1638 211 1638 238 1680.5 c 128,-1,5
 265 1723 265 1723 285 1754.5 c 128,-1,6
 305 1786 305 1786 311 1796 c 1,7,-1
 435 1711 l 1,8,9
 409 1667 409 1667 369.5 1612.5 c 128,-1,10
 330 1558 330 1558 286.5 1505.5 c 128,-1,11
 243 1453 243 1453 200.5 1407 c 128,-1,12
 158 1361 158 1361 126 1333 c 1,13,-1
 47 1387 l 1,0,1
539 1387 m 1,14,15
 546 1396 546 1396 567.5 1427 c 128,-1,16
 589 1458 589 1458 617 1499 c 128,-1,17
 645 1540 645 1540 677 1586.5 c 128,-1,18
 709 1633 709 1633 736.5 1674 c 128,-1,19
 764 1715 764 1715 785 1746 c 128,-1,20
 806 1777 806 1777 812 1787 c 1,21,-1
 930 1702 l 1,22,23
 906 1660 906 1660 866.5 1607 c 128,-1,24
 827 1554 827 1554 783 1502.5 c 128,-1,25
 739 1451 739 1451 694.5 1405.5 c 128,-1,26
 650 1360 650 1360 617 1333 c 1,27,-1
 539 1387 l 1,14,15
EndSplineSet
EndChar

StartChar: ogonek
Encoding: 731 731 141
Width: 619
Flags: W
LayerCount: 2
Fore
SplineSet
51 -307 m 0,0,1
 51 -259 51 -259 76 -212 c 128,-1,2
 101 -165 101 -165 141 -124.5 c 128,-1,3
 181 -84 181 -84 231 -51.5 c 128,-1,4
 281 -19 281 -19 330 1 c 1,5,-1
 404 7 l 1,6,-1
 477 4 l 1,7,8
 440 -10 440 -10 392 -40 c 128,-1,9
 344 -70 344 -70 301 -108.5 c 128,-1,10
 258 -147 258 -147 229 -191.5 c 128,-1,11
 200 -236 200 -236 200 -279 c 0,12,13
 200 -339 200 -339 239.5 -370 c 128,-1,14
 279 -401 279 -401 351 -401 c 0,15,16
 378 -401 378 -401 406 -395.5 c 128,-1,17
 434 -390 434 -390 460.5 -382 c 128,-1,18
 487 -374 487 -374 509.5 -364.5 c 128,-1,19
 532 -355 532 -355 549 -347 c 1,20,-1
 564 -438 l 1,21,22
 546 -450 546 -450 519 -463 c 128,-1,23
 492 -476 492 -476 458 -486.5 c 128,-1,24
 424 -497 424 -497 383 -504 c 128,-1,25
 342 -511 342 -511 295 -511 c 256,26,27
 248 -511 248 -511 204 -498 c 128,-1,28
 160 -485 160 -485 126.5 -459.5 c 128,-1,29
 93 -434 93 -434 72.5 -395.5 c 128,-1,30
 52 -357 52 -357 51 -307 c 0,0,1
EndSplineSet
EndChar

StartChar: twosuperior
Encoding: 178 178 143
Width: 1194
Flags: W
LayerCount: 2
Fore
SplineSet
198 765 m 1,0,1
 254 792 254 792 319 831 c 128,-1,2
 384 870 384 870 448.5 917 c 128,-1,3
 513 964 513 964 572.5 1018 c 128,-1,4
 632 1072 632 1072 677.5 1129.5 c 128,-1,5
 723 1187 723 1187 750.5 1247 c 128,-1,6
 778 1307 778 1307 778 1367 c 0,7,8
 778 1472 778 1472 718.5 1524 c 128,-1,9
 659 1576 659 1576 552 1576 c 0,10,11
 463 1576 463 1576 386.5 1536.5 c 128,-1,12
 310 1497 310 1497 247 1417 c 1,13,-1
 177 1501 l 1,14,15
 200 1537 200 1537 239.5 1572 c 128,-1,16
 279 1607 279 1607 331 1634.5 c 128,-1,17
 383 1662 383 1662 446 1679.5 c 128,-1,18
 509 1697 509 1697 580 1697 c 0,19,20
 674 1697 674 1697 742.5 1671.5 c 128,-1,21
 811 1646 811 1646 855 1603.5 c 128,-1,22
 899 1561 899 1561 920 1506.5 c 128,-1,23
 941 1452 941 1452 940 1394 c 0,24,25
 939 1307 939 1307 902.5 1225.5 c 128,-1,26
 866 1144 866 1144 801.5 1069.5 c 128,-1,27
 737 995 737 995 649.5 927.5 c 128,-1,28
 562 860 562 860 460 801 c 1,29,-1
 1005 805 l 1,30,-1
 1005 679 l 1,31,-1
 231 679 l 1,32,-1
 198 765 l 1,0,1
EndSplineSet
EndChar

StartChar: onesuperior
Encoding: 185 185 144
Width: 1026
Flags: W
LayerCount: 2
Fore
SplineSet
496 1487 m 1,0,1
 469 1480 469 1480 442.5 1469 c 128,-1,2
 416 1458 416 1458 387.5 1446 c 128,-1,3
 359 1434 359 1434 327 1422 c 128,-1,4
 295 1410 295 1410 257 1402 c 1,5,-1
 225 1494 l 1,6,7
 270 1507 270 1507 324 1533.5 c 128,-1,8
 378 1560 378 1560 428 1589.5 c 128,-1,9
 478 1619 478 1619 517.5 1646 c 128,-1,10
 557 1673 557 1673 575 1688 c 1,11,-1
 657 1667 l 1,12,-1
 657 662 l 1,13,-1
 496 662 l 1,14,-1
 496 1487 l 1,0,1
EndSplineSet
EndChar

StartChar: fraction
Encoding: 8260 8260 145
Width: 1026
Flags: W
LayerCount: 2
Fore
SplineSet
699 1530 m 1,0,-1
 851 1530 l 1,1,-1
 310 0 l 1,2,-1
 160 0 l 1,3,-1
 699 1530 l 1,0,-1
EndSplineSet
EndChar

StartChar: onequarter
Encoding: 188 188 146
Width: 2428
Flags: W
LayerCount: 2
Fore
SplineSet
1807 1135 m 1,0,-1
 1859 1135 l 1,1,-1
 1958 1076 l 1,2,-1
 1559 444 l 1,3,-1
 1503 348 l 1,4,-1
 1916 348 l 1,5,-1
 1921 626 l 1,6,-1
 2063 642 l 1,7,-1
 2063 348 l 1,8,-1
 2263 348 l 1,9,-1
 2263 228 l 1,10,-1
 2063 228 l 1,11,-1
 2063 -55 l 1,12,-1
 1914 -55 l 1,13,-1
 1915 228 l 1,14,-1
 1359 228 l 1,15,-1
 1318 300 l 1,16,-1
 1807 1135 l 1,0,-1
1301 1530 m 1,17,-1
 1453 1530 l 1,18,-1
 912 0 l 1,19,-1
 762 0 l 1,20,-1
 1301 1530 l 1,17,-1
488 1487 m 1,21,22
 461 1480 461 1480 434.5 1469 c 128,-1,23
 408 1458 408 1458 379.5 1446 c 128,-1,24
 351 1434 351 1434 319 1422 c 128,-1,25
 287 1410 287 1410 249 1402 c 1,26,-1
 217 1494 l 1,27,28
 262 1507 262 1507 316 1533.5 c 128,-1,29
 370 1560 370 1560 420 1589.5 c 128,-1,30
 470 1619 470 1619 509.5 1646 c 128,-1,31
 549 1673 549 1673 567 1688 c 1,32,-1
 649 1667 l 1,33,-1
 649 662 l 1,34,-1
 488 662 l 1,35,-1
 488 1487 l 1,21,22
EndSplineSet
Ligature2: "'frac' Diagonal Fractions in Latin lookup 10 subtable" one slash four
EndChar

StartChar: threequarters
Encoding: 190 190 147
Width: 2428
Flags: W
LayerCount: 2
Fore
SplineSet
1807 1135 m 1,0,-1
 1859 1135 l 1,1,-1
 1958 1076 l 1,2,-1
 1559 444 l 1,3,-1
 1503 349 l 1,4,-1
 1917 349 l 1,5,-1
 1922 626 l 1,6,-1
 2063 642 l 1,7,-1
 2063 349 l 1,8,-1
 2263 349 l 1,9,-1
 2263 228 l 1,10,-1
 2063 228 l 1,11,-1
 2063 -55 l 1,12,-1
 1915 -55 l 1,13,-1
 1916 228 l 1,14,-1
 1359 228 l 1,15,-1
 1318 300 l 1,16,-1
 1807 1135 l 1,0,-1
165 736 m 1,17,18
 221 719 221 719 271.5 710 c 128,-1,19
 322 701 322 701 390 702 c 0,20,21
 479 703 479 703 538.5 720.5 c 128,-1,22
 598 738 598 738 634.5 768 c 128,-1,23
 671 798 671 798 686.5 838.5 c 128,-1,24
 702 879 702 879 702 926 c 0,25,26
 702 970 702 970 684.5 1006.5 c 128,-1,27
 667 1043 667 1043 634 1069 c 128,-1,28
 601 1095 601 1095 554.5 1110 c 128,-1,29
 508 1125 508 1125 450 1126 c 1,30,-1
 332 1093 l 1,31,-1
 303 1191 l 1,32,33
 343 1199 343 1199 389 1214 c 128,-1,34
 435 1229 435 1229 470 1243 c 0,35,36
 549 1275 549 1275 594.5 1325.5 c 128,-1,37
 640 1376 640 1376 638 1445 c 0,38,39
 637 1474 637 1474 622.5 1501.5 c 128,-1,40
 608 1529 608 1529 580 1549 c 128,-1,41
 552 1569 552 1569 511 1580 c 128,-1,42
 470 1591 470 1591 416 1588 c 0,43,44
 385 1586 385 1586 352 1579 c 128,-1,45
 319 1572 319 1572 287 1560.5 c 128,-1,46
 255 1549 255 1549 224.5 1533 c 128,-1,47
 194 1517 194 1517 169 1499 c 1,48,-1
 122 1591 l 1,49,50
 152 1616 152 1616 193.5 1635.5 c 128,-1,51
 235 1655 235 1655 278 1669 c 128,-1,52
 321 1683 321 1683 361.5 1690.5 c 128,-1,53
 402 1698 402 1698 432 1699 c 0,54,55
 520 1702 520 1702 586 1683.5 c 128,-1,56
 652 1665 652 1665 696 1632.5 c 128,-1,57
 740 1600 740 1600 761.5 1555.5 c 128,-1,58
 783 1511 783 1511 783 1462 c 0,59,60
 783 1374 783 1374 729.5 1304.5 c 128,-1,61
 676 1235 676 1235 567 1190 c 1,62,63
 645 1188 645 1188 699.5 1163.5 c 128,-1,64
 754 1139 754 1139 788.5 1102 c 128,-1,65
 823 1065 823 1065 839 1020.5 c 128,-1,66
 855 976 855 976 855 933 c 0,67,68
 855 861 855 861 827.5 798 c 128,-1,69
 800 735 800 735 744.5 688.5 c 128,-1,70
 689 642 689 642 604 615 c 128,-1,71
 519 588 519 588 404 588 c 0,72,73
 348 588 348 588 287 599 c 128,-1,74
 226 610 226 610 175 626 c 1,75,-1
 165 736 l 1,17,18
1301 1530 m 1,76,-1
 1453 1530 l 1,77,-1
 912 0 l 1,78,-1
 762 0 l 1,79,-1
 1301 1530 l 1,76,-1
EndSplineSet
Ligature2: "'frac' Diagonal Fractions in Latin lookup 10 subtable" three slash four
EndChar

StartChar: threesuperior
Encoding: 179 179 148
Width: 1194
Flags: W
LayerCount: 2
Fore
SplineSet
313 736 m 1,0,1
 369 719 369 719 419.5 710 c 128,-1,2
 470 701 470 701 538 702 c 0,3,4
 627 703 627 703 686.5 720.5 c 128,-1,5
 746 738 746 738 782.5 768 c 128,-1,6
 819 798 819 798 834.5 838.5 c 128,-1,7
 850 879 850 879 850 926 c 0,8,9
 850 970 850 970 832.5 1006.5 c 128,-1,10
 815 1043 815 1043 782 1069 c 128,-1,11
 749 1095 749 1095 702.5 1110 c 128,-1,12
 656 1125 656 1125 598 1126 c 1,13,-1
 480 1093 l 1,14,-1
 451 1191 l 1,15,16
 491 1199 491 1199 537 1214 c 128,-1,17
 583 1229 583 1229 618 1243 c 0,18,19
 697 1275 697 1275 742.5 1325.5 c 128,-1,20
 788 1376 788 1376 786 1445 c 0,21,22
 785 1474 785 1474 770.5 1501.5 c 128,-1,23
 756 1529 756 1529 728 1549 c 128,-1,24
 700 1569 700 1569 659 1580 c 128,-1,25
 618 1591 618 1591 564 1588 c 0,26,27
 533 1586 533 1586 500 1579 c 128,-1,28
 467 1572 467 1572 435 1560.5 c 128,-1,29
 403 1549 403 1549 372.5 1533 c 128,-1,30
 342 1517 342 1517 317 1499 c 1,31,-1
 270 1591 l 1,32,33
 300 1616 300 1616 341.5 1635.5 c 128,-1,34
 383 1655 383 1655 426 1669 c 128,-1,35
 469 1683 469 1683 509.5 1690.5 c 128,-1,36
 550 1698 550 1698 580 1699 c 0,37,38
 668 1702 668 1702 734 1683.5 c 128,-1,39
 800 1665 800 1665 844 1632.5 c 128,-1,40
 888 1600 888 1600 909.5 1555.5 c 128,-1,41
 931 1511 931 1511 931 1462 c 0,42,43
 931 1374 931 1374 877.5 1304.5 c 128,-1,44
 824 1235 824 1235 715 1190 c 1,45,46
 793 1188 793 1188 847.5 1163.5 c 128,-1,47
 902 1139 902 1139 936.5 1102 c 128,-1,48
 971 1065 971 1065 987 1020.5 c 128,-1,49
 1003 976 1003 976 1003 933 c 0,50,51
 1003 861 1003 861 975.5 798 c 128,-1,52
 948 735 948 735 892.5 688.5 c 128,-1,53
 837 642 837 642 752 615 c 128,-1,54
 667 588 667 588 552 588 c 0,55,56
 496 588 496 588 435 599 c 128,-1,57
 374 610 374 610 323 626 c 1,58,-1
 313 736 l 1,0,1
EndSplineSet
EndChar

StartChar: grave.cap
Encoding: 65537 -1 149
Width: 564
Flags: W
LayerCount: 2
Fore
SplineSet
437 1614 m 1,0,1
 395 1635 395 1635 342.5 1668 c 128,-1,2
 290 1701 290 1701 237 1740 c 128,-1,3
 184 1779 184 1779 134.5 1820 c 128,-1,4
 85 1861 85 1861 50 1898 c 1,5,-1
 161 2000 l 1,6,7
 171 1989 171 1989 197.5 1963.5 c 128,-1,8
 224 1938 224 1938 259 1906.5 c 128,-1,9
 294 1875 294 1875 333 1839.5 c 128,-1,10
 372 1804 372 1804 407 1773 c 128,-1,11
 442 1742 442 1742 469.5 1718 c 128,-1,12
 497 1694 497 1694 508 1685 c 1,13,-1
 437 1614 l 1,14,-1
 437 1614 l 1,0,1
EndSplineSet
EndChar

StartChar: dieresis.cap
Encoding: 65538 -1 150
Width: 805
Flags: W
LayerCount: 2
Fore
SplineSet
634 1718 m 0,0,1
 590 1718 590 1718 559.5 1745.5 c 128,-1,2
 529 1773 529 1773 529 1826 c 0,3,4
 529 1853 529 1853 539.5 1876 c 128,-1,5
 550 1899 550 1899 567 1915.5 c 128,-1,6
 584 1932 584 1932 605.5 1941 c 128,-1,7
 627 1950 627 1950 650 1950 c 0,8,9
 704 1950 704 1950 729.5 1919.5 c 128,-1,10
 755 1889 755 1889 755 1841 c 0,11,12
 755 1812 755 1812 745 1789 c 128,-1,13
 735 1766 735 1766 718.5 1750.5 c 128,-1,14
 702 1735 702 1735 680 1726.5 c 128,-1,15
 658 1718 658 1718 634 1718 c 0,0,1
154 1718 m 0,16,17
 111 1718 111 1718 80.5 1745.5 c 128,-1,18
 50 1773 50 1773 50 1826 c 0,19,20
 50 1853 50 1853 60 1876 c 128,-1,21
 70 1899 70 1899 87 1915.5 c 128,-1,22
 104 1932 104 1932 126 1941 c 128,-1,23
 148 1950 148 1950 171 1950 c 0,24,25
 225 1950 225 1950 250 1919.5 c 128,-1,26
 275 1889 275 1889 275 1841 c 0,27,28
 275 1812 275 1812 265 1789 c 128,-1,29
 255 1766 255 1766 238.5 1750.5 c 128,-1,30
 222 1735 222 1735 200 1726.5 c 128,-1,31
 178 1718 178 1718 154 1718 c 0,16,17
EndSplineSet
EndChar

StartChar: commaaccent
Encoding: 63171 63171 151
Width: 335
Flags: W
LayerCount: 2
Fore
SplineSet
177 -97 m 1,0,1
 195 -105 195 -105 212.5 -123.5 c 128,-1,2
 230 -142 230 -142 243 -169 c 128,-1,3
 256 -196 256 -196 264 -230.5 c 128,-1,4
 272 -265 272 -265 272 -305 c 0,5,6
 272 -355 272 -355 258 -398 c 128,-1,7
 244 -441 244 -441 223.5 -474 c 128,-1,8
 203 -507 203 -507 179 -529 c 128,-1,9
 155 -551 155 -551 134 -560 c 1,10,-1
 76 -528 l 1,11,-1
 76 -508 l 1,12,13
 86 -499 86 -499 95.5 -483 c 128,-1,14
 105 -467 105 -467 112.5 -446 c 128,-1,15
 120 -425 120 -425 124.5 -399 c 128,-1,16
 129 -373 129 -373 129 -345 c 0,17,18
 129 -319 129 -319 123 -295 c 128,-1,19
 117 -271 117 -271 107 -252.5 c 128,-1,20
 97 -234 97 -234 84 -221.5 c 128,-1,21
 71 -209 71 -209 57 -205 c 1,22,-1
 57 -167 l 1,23,-1
 177 -97 l 1,0,1
EndSplineSet
EndChar

StartChar: circumflex.cap
Encoding: 65539 -1 152
Width: 804
Flags: W
LayerCount: 2
Fore
SplineSet
49 1683 m 1,0,-1
 326 1982 l 1,1,-1
 475 1982 l 1,2,-1
 755 1685 l 1,3,-1
 645 1639 l 1,4,-1
 401 1862 l 1,5,-1
 153 1639 l 1,6,-1
 49 1683 l 1,0,-1
EndSplineSet
EndChar

StartChar: caron.cap
Encoding: 65540 -1 153
Width: 762
Flags: W
LayerCount: 2
Fore
SplineSet
49 1954 m 1,0,-1
 146 2000 l 1,1,-1
 390 1798 l 1,2,-1
 638 2000 l 1,3,-1
 730 1956 l 1,4,-1
 465 1685 l 1,5,-1
 317 1685 l 1,6,-1
 49 1954 l 1,0,-1
EndSplineSet
EndChar

StartChar: breve.cap
Encoding: 65541 -1 154
Width: 772
Flags: W
LayerCount: 2
Fore
SplineSet
387 1652 m 0,0,1
 303 1652 303 1652 238 1682 c 128,-1,2
 173 1712 173 1712 129.5 1761 c 128,-1,3
 86 1810 86 1810 65 1872.5 c 128,-1,4
 44 1935 44 1935 49 2000 c 1,5,-1
 166 2000 l 1,6,7
 166 1987 166 1987 169.5 1966 c 128,-1,8
 173 1945 173 1945 181 1921 c 128,-1,9
 189 1897 189 1897 204.5 1872.5 c 128,-1,10
 220 1848 220 1848 244 1828.5 c 128,-1,11
 268 1809 268 1809 303 1796.5 c 128,-1,12
 338 1784 338 1784 387 1784 c 0,13,14
 434 1784 434 1784 469 1796.5 c 128,-1,15
 504 1809 504 1809 529 1829.5 c 128,-1,16
 554 1850 554 1850 569.5 1874.5 c 128,-1,17
 585 1899 585 1899 594 1923 c 128,-1,18
 603 1947 603 1947 606.5 1967.5 c 128,-1,19
 610 1988 610 1988 610 2000 c 1,20,-1
 724 2000 l 1,21,22
 728 1935 728 1935 706 1872.5 c 128,-1,23
 684 1810 684 1810 639.5 1761 c 128,-1,24
 595 1712 595 1712 530.5 1682 c 128,-1,25
 466 1652 466 1652 387 1652 c 0,0,1
EndSplineSet
EndChar

StartChar: ring.cap
Encoding: 65542 -1 155
Width: 713
Flags: W
LayerCount: 2
Fore
SplineSet
353 1474 m 0,0,1
 282 1474 282 1474 224.5 1493 c 128,-1,2
 167 1512 167 1512 127.5 1547.5 c 128,-1,3
 88 1583 88 1583 67 1632.5 c 128,-1,4
 46 1682 46 1682 47 1743 c 0,5,6
 48 1812 48 1812 75.5 1860.5 c 128,-1,7
 103 1909 103 1909 147 1940 c 128,-1,8
 191 1971 191 1971 246 1985 c 128,-1,9
 301 1999 301 1999 358 1999 c 0,10,11
 429 1999 429 1999 486 1982 c 128,-1,12
 543 1965 543 1965 583 1932 c 128,-1,13
 623 1899 623 1899 644.5 1851 c 128,-1,14
 666 1803 666 1803 666 1741 c 0,15,16
 665 1672 665 1672 639 1621.5 c 128,-1,17
 613 1571 613 1571 570 1538.5 c 128,-1,18
 527 1506 527 1506 470.5 1490 c 128,-1,19
 414 1474 414 1474 353 1474 c 0,0,1
354 1571 m 0,20,21
 394 1571 394 1571 429.5 1580.5 c 128,-1,22
 465 1590 465 1590 491.5 1610.5 c 128,-1,23
 518 1631 518 1631 533 1663 c 128,-1,24
 548 1695 548 1695 548 1740 c 0,25,26
 548 1779 548 1779 534 1809.5 c 128,-1,27
 520 1840 520 1840 494.5 1861 c 128,-1,28
 469 1882 469 1882 434 1893 c 128,-1,29
 399 1904 399 1904 357 1904 c 0,30,31
 322 1904 322 1904 288 1896 c 128,-1,32
 254 1888 254 1888 227 1869 c 128,-1,33
 200 1850 200 1850 183 1819 c 128,-1,34
 166 1788 166 1788 166 1743 c 0,35,36
 165 1667 165 1667 215 1619.5 c 128,-1,37
 265 1572 265 1572 354 1571 c 0,20,21
EndSplineSet
EndChar

StartChar: tilde.cap
Encoding: 65543 -1 156
Width: 917
Flags: W
LayerCount: 2
Fore
SplineSet
48 1775 m 1,0,1
 64 1811 64 1811 92.5 1843 c 128,-1,2
 121 1875 121 1875 157 1899 c 128,-1,3
 193 1923 193 1923 234 1937 c 128,-1,4
 275 1951 275 1951 315 1951 c 0,5,6
 357 1951 357 1951 387 1940 c 128,-1,7
 417 1929 417 1929 440.5 1912.5 c 128,-1,8
 464 1896 464 1896 483 1876.5 c 128,-1,9
 502 1857 502 1857 522 1840.5 c 128,-1,10
 542 1824 542 1824 564.5 1813 c 128,-1,11
 587 1802 587 1802 617 1802 c 256,12,13
 647 1802 647 1802 674.5 1812 c 128,-1,14
 702 1822 702 1822 726 1837.5 c 128,-1,15
 750 1853 750 1853 769.5 1871.5 c 128,-1,16
 789 1890 789 1890 803 1907 c 1,17,-1
 870 1851 l 1,18,19
 854 1815 854 1815 825 1783 c 128,-1,20
 796 1751 796 1751 760 1727 c 128,-1,21
 724 1703 724 1703 683.5 1689 c 128,-1,22
 643 1675 643 1675 603 1675 c 0,23,24
 562 1675 562 1675 531.5 1686.5 c 128,-1,25
 501 1698 501 1698 477.5 1715 c 128,-1,26
 454 1732 454 1732 435 1752 c 128,-1,27
 416 1772 416 1772 396 1789 c 128,-1,28
 376 1806 376 1806 353 1817.5 c 128,-1,29
 330 1829 330 1829 299 1829 c 0,30,31
 269 1829 269 1829 241.5 1818.5 c 128,-1,32
 214 1808 214 1808 190.5 1792 c 128,-1,33
 167 1776 167 1776 147.5 1757 c 128,-1,34
 128 1738 128 1738 114 1721 c 1,35,-1
 48 1775 l 1,0,1
EndSplineSet
EndChar

StartChar: hungarumlaut.cap
Encoding: 65544 -1 157
Width: 955
Flags: W
LayerCount: 2
Fore
SplineSet
54 1699 m 1,0,1
 63 1709 63 1709 81.5 1732.5 c 128,-1,2
 100 1756 100 1756 123 1786 c 128,-1,3
 146 1816 146 1816 171 1849.5 c 128,-1,4
 196 1883 196 1883 218 1913 c 128,-1,5
 240 1943 240 1943 256.5 1966.5 c 128,-1,6
 273 1990 273 1990 280 2000 c 1,7,-1
 410 1933 l 1,8,9
 348 1847 348 1847 280.5 1772 c 128,-1,10
 213 1697 213 1697 149 1646 c 1,11,-1
 54 1699 l 1,0,1
521 1699 m 1,12,13
 530 1709 530 1709 549.5 1732 c 128,-1,14
 569 1755 569 1755 593 1784.5 c 128,-1,15
 617 1814 617 1814 643 1847 c 128,-1,16
 669 1880 669 1880 691.5 1909 c 128,-1,17
 714 1938 714 1938 731 1960 c 128,-1,18
 748 1982 748 1982 754 1991 c 1,19,-1
 878 1923 l 1,20,21
 851 1885 851 1885 819 1846 c 128,-1,22
 787 1807 787 1807 753.5 1771 c 128,-1,23
 720 1735 720 1735 685 1703 c 128,-1,24
 650 1671 650 1671 617 1646 c 1,25,-1
 521 1699 l 1,12,13
EndSplineSet
EndChar

StartChar: percent
Encoding: 37 37 158
Width: 1941
Flags: W
LayerCount: 2
Fore
SplineSet
1223 1530 m 1,0,-1
 1368 1530 l 1,1,-1
 711 0 l 1,2,-1
 565 0 l 1,3,-1
 1223 1530 l 1,0,-1
430 686 m 0,4,5
 348 684 348 684 284 716 c 128,-1,6
 220 748 220 748 175.5 802.5 c 128,-1,7
 131 857 131 857 107.5 929.5 c 128,-1,8
 84 1002 84 1002 84 1083 c 0,9,10
 84 1181 84 1181 115 1256 c 128,-1,11
 146 1331 146 1331 198 1383 c 128,-1,12
 250 1435 250 1435 317.5 1462.5 c 128,-1,13
 385 1490 385 1490 459 1492 c 0,14,15
 549 1494 549 1494 614.5 1463 c 128,-1,16
 680 1432 680 1432 722 1377.5 c 128,-1,17
 764 1323 764 1323 784 1249 c 128,-1,18
 804 1175 804 1175 804 1091 c 0,19,20
 804 994 804 994 773 919 c 128,-1,21
 742 844 742 844 690.5 793 c 128,-1,22
 639 742 639 742 571 715 c 128,-1,23
 503 688 503 688 430 686 c 0,4,5
440 798 m 1,24,25
 488 799 488 799 527.5 818.5 c 128,-1,26
 567 838 567 838 595.5 875 c 128,-1,27
 624 912 624 912 640 965 c 128,-1,28
 656 1018 656 1018 656 1086 c 0,29,30
 656 1151 656 1151 643 1205.5 c 128,-1,31
 630 1260 630 1260 604 1299 c 128,-1,32
 578 1338 578 1338 539.5 1359.5 c 128,-1,33
 501 1381 501 1381 450 1380 c 0,34,35
 401 1379 401 1379 361 1358.5 c 128,-1,36
 321 1338 321 1338 292.5 1300.5 c 128,-1,37
 264 1263 264 1263 248.5 1209.5 c 128,-1,38
 233 1156 233 1156 233 1089 c 0,39,40
 233 1028 233 1028 247 974.5 c 128,-1,41
 261 921 261 921 287.5 882 c 128,-1,42
 314 843 314 843 352.5 820.5 c 128,-1,43
 391 798 391 798 440 798 c 1,24,25
1136 452 m 0,44,45
 1136 550 1136 550 1167 625 c 128,-1,46
 1198 700 1198 700 1250 752 c 128,-1,47
 1302 804 1302 804 1370 831.5 c 128,-1,48
 1438 859 1438 859 1512 861 c 0,49,50
 1602 864 1602 864 1667 833 c 128,-1,51
 1732 802 1732 802 1774.5 747 c 128,-1,52
 1817 692 1817 692 1837 618.5 c 128,-1,53
 1857 545 1857 545 1857 461 c 0,54,55
 1857 363 1857 363 1826 288.5 c 128,-1,56
 1795 214 1795 214 1743 163 c 128,-1,57
 1691 112 1691 112 1623 85 c 128,-1,58
 1555 58 1555 58 1482 56 c 0,59,60
 1401 54 1401 54 1336.5 85.5 c 128,-1,61
 1272 117 1272 117 1227.5 171.5 c 128,-1,62
 1183 226 1183 226 1159.5 298.5 c 128,-1,63
 1136 371 1136 371 1136 452 c 0,44,45
1286 458 m 0,64,65
 1286 397 1286 397 1300 344 c 128,-1,66
 1314 291 1314 291 1340.5 251.5 c 128,-1,67
 1367 212 1367 212 1405 190 c 128,-1,68
 1443 168 1443 168 1492 168 c 0,69,70
 1540 168 1540 168 1580 188 c 128,-1,71
 1620 208 1620 208 1648.5 244.5 c 128,-1,72
 1677 281 1677 281 1692.5 334.5 c 128,-1,73
 1708 388 1708 388 1708 456 c 0,74,75
 1708 521 1708 521 1695 575.5 c 128,-1,76
 1682 630 1682 630 1656 669 c 128,-1,77
 1630 708 1630 708 1592 729.5 c 128,-1,78
 1554 751 1554 751 1503 750 c 0,79,80
 1454 749 1454 749 1414 728.5 c 128,-1,81
 1374 708 1374 708 1345.5 670.5 c 128,-1,82
 1317 633 1317 633 1301.5 579 c 128,-1,83
 1286 525 1286 525 1286 458 c 0,64,65
EndSplineSet
Ligature2: "'frac' Diagonal Fractions in Latin lookup 10 subtable" zero slash zero
EndChar

StartChar: oslash
Encoding: 248 248 159
Width: 1213
Flags: W
LayerCount: 2
Fore
SplineSet
372 30 m 1,0,1
 298 65 298 65 245 122.5 c 128,-1,2
 192 180 192 180 159 253.5 c 128,-1,3
 126 327 126 327 111 413 c 128,-1,4
 96 499 96 499 97 591 c 0,5,6
 99 727 99 727 139.5 832.5 c 128,-1,7
 180 938 180 938 250 1010 c 128,-1,8
 320 1082 320 1082 414 1119 c 128,-1,9
 508 1156 508 1156 618 1156 c 0,10,11
 685 1156 685 1156 746 1142 c 1,12,-1
 811 1336 l 1,13,-1
 907 1308 l 1,14,-1
 840 1110 l 1,15,16
 913 1075 913 1075 966 1018.5 c 128,-1,17
 1019 962 1019 962 1052.5 889.5 c 128,-1,18
 1086 817 1086 817 1101.5 731.5 c 128,-1,19
 1117 646 1117 646 1116 554 c 0,20,21
 1114 418 1114 418 1074 312 c 128,-1,22
 1034 206 1034 206 965 133 c 128,-1,23
 896 60 896 60 802 22 c 128,-1,24
 708 -16 708 -16 597 -16 c 0,25,26
 529 -16 529 -16 467 -2 c 1,27,-1
 402 -195 l 1,28,-1
 306 -168 l 1,29,-1
 372 30 l 1,0,1
705 1021 m 1,30,31
 685 1028 685 1028 662 1031 c 128,-1,32
 639 1034 639 1034 615 1035 c 0,33,34
 534 1036 534 1036 469.5 1006.5 c 128,-1,35
 405 977 405 977 360 920 c 128,-1,36
 315 863 315 863 291 779.5 c 128,-1,37
 267 696 267 696 267 589 c 0,38,39
 267 522 267 522 275.5 459.5 c 128,-1,40
 284 397 284 397 302.5 342 c 128,-1,41
 321 287 321 287 350 242 c 128,-1,42
 379 197 379 197 418 166 c 1,43,-1
 705 1021 l 1,30,31
507 117 m 1,44,45
 551 103 551 103 601 103 c 0,46,47
 683 102 683 102 747 133.5 c 128,-1,48
 811 165 811 165 855 224 c 128,-1,49
 899 283 899 283 922.5 368.5 c 128,-1,50
 946 454 946 454 946 561 c 0,51,52
 946 628 946 628 937 689.5 c 128,-1,53
 928 751 928 751 909 804.5 c 128,-1,54
 890 858 890 858 862 901.5 c 128,-1,55
 834 945 834 945 795 975 c 1,56,-1
 507 117 l 1,44,45
EndSplineSet
EndChar

StartChar: aogonek
Encoding: 261 261 160
Width: 1129
Flags: W
LayerCount: 2
Fore
SplineSet
99 301 m 0,0,1
 99 414 99 414 162 492 c 128,-1,2
 225 570 225 570 345 615 c 0,3,4
 395 634 395 634 454 646.5 c 128,-1,5
 513 659 513 659 573 667 c 128,-1,6
 633 675 633 675 689 678.5 c 128,-1,7
 745 682 745 682 790 682 c 1,8,-1
 790 814 l 2,9,10
 790 883 790 883 773.5 925.5 c 128,-1,11
 757 968 757 968 724.5 991 c 128,-1,12
 692 1014 692 1014 645.5 1022 c 128,-1,13
 599 1030 599 1030 539 1030 c 0,14,15
 494 1030 494 1030 443 1021 c 128,-1,16
 392 1012 392 1012 344.5 997.5 c 128,-1,17
 297 983 297 983 257 966 c 128,-1,18
 217 949 217 949 193 933 c 1,19,-1
 151 1043 l 1,20,21
 166 1053 166 1053 208.5 1072 c 128,-1,22
 251 1091 251 1091 310 1110 c 128,-1,23
 369 1129 369 1129 439.5 1143 c 128,-1,24
 510 1157 510 1157 582 1157 c 0,25,26
 666 1157 666 1157 734.5 1142.5 c 128,-1,27
 803 1128 803 1128 852.5 1089 c 128,-1,28
 902 1050 902 1050 929 982 c 128,-1,29
 956 914 956 914 956 807 c 2,30,-1
 956 -16 l 1,31,-1
 941 -16 l 1,32,33
 909 -37 909 -37 872 -64 c 128,-1,34
 835 -91 835 -91 803.5 -124 c 128,-1,35
 772 -157 772 -157 751.5 -196 c 128,-1,36
 731 -235 731 -235 731 -280 c 1,37,38
 732 -315 732 -315 743.5 -338 c 128,-1,39
 755 -361 755 -361 775 -374.5 c 128,-1,40
 795 -388 795 -388 822 -393.5 c 128,-1,41
 849 -399 849 -399 881 -399 c 0,42,43
 919 -398 919 -398 960.5 -388 c 128,-1,44
 1002 -378 1002 -378 1042 -358 c 1,45,-1
 1042 -450 l 1,46,47
 1022 -465 1022 -465 994.5 -477 c 128,-1,48
 967 -489 967 -489 936 -496.5 c 128,-1,49
 905 -504 905 -504 872 -508 c 128,-1,50
 839 -512 839 -512 808 -512 c 0,51,52
 758 -512 758 -512 714.5 -500 c 128,-1,53
 671 -488 671 -488 638 -463 c 128,-1,54
 605 -438 605 -438 586 -400.5 c 128,-1,55
 567 -363 567 -363 567 -312 c 1,56,57
 566 -262 566 -262 589.5 -215.5 c 128,-1,58
 613 -169 613 -169 650 -128.5 c 128,-1,59
 687 -88 687 -88 732.5 -55.5 c 128,-1,60
 778 -23 778 -23 820 -2 c 1,61,62
 800 12 800 12 800 64 c 1,63,-1
 799 106 l 1,64,65
 776 85 776 85 740.5 63.5 c 128,-1,66
 705 42 705 42 660 24 c 128,-1,67
 615 6 615 6 561 -5 c 128,-1,68
 507 -16 507 -16 446 -16 c 0,69,70
 370 -16 370 -16 306.5 5.5 c 128,-1,71
 243 27 243 27 197 68 c 128,-1,72
 151 109 151 109 125 168 c 128,-1,73
 99 227 99 227 99 301 c 0,0,1
264 314 m 0,74,75
 264 269 264 269 277 231.5 c 128,-1,76
 290 194 290 194 318 166.5 c 128,-1,77
 346 139 346 139 389.5 124 c 128,-1,78
 433 109 433 109 495 109 c 0,79,80
 549 109 549 109 598 120.5 c 128,-1,81
 647 132 647 132 686.5 148 c 128,-1,82
 726 164 726 164 753 180.5 c 128,-1,83
 780 197 780 197 790 208 c 1,84,-1
 790 575 l 1,85,86
 759 575 759 575 714 572.5 c 128,-1,87
 669 570 669 570 619.5 563.5 c 128,-1,88
 570 557 570 557 521.5 547 c 128,-1,89
 473 537 473 537 437 522 c 1,90,91
 351 490 351 490 307.5 440 c 128,-1,92
 264 390 264 390 264 314 c 0,74,75
EndSplineSet
EndChar

StartChar: Thorn
Encoding: 222 222 161
Width: 1262
Flags: W
LayerCount: 2
Fore
SplineSet
201 1522 m 1,0,-1
 370 1522 l 1,1,-1
 370 1230 l 1,2,3
 437 1235 437 1235 515 1241.5 c 128,-1,4
 593 1248 593 1248 663 1248 c 0,5,6
 783 1248 783 1248 879 1221.5 c 128,-1,7
 975 1195 975 1195 1042 1139 c 128,-1,8
 1109 1083 1109 1083 1144.5 997 c 128,-1,9
 1180 911 1180 911 1180 792 c 0,10,11
 1180 668 1180 668 1141 574.5 c 128,-1,12
 1102 481 1102 481 1028.5 418 c 128,-1,13
 955 355 955 355 849.5 323.5 c 128,-1,14
 744 292 744 292 612 292 c 0,15,16
 576 292 576 292 540.5 293.5 c 128,-1,17
 505 295 505 295 473 297 c 128,-1,18
 441 299 441 299 414.5 301 c 128,-1,19
 388 303 388 303 370 304 c 1,20,-1
 370 0 l 1,21,-1
 201 0 l 1,22,-1
 201 1522 l 1,0,-1
370 429 m 1,23,24
 395 426 395 426 424.5 423 c 128,-1,25
 454 420 454 420 484 418.5 c 128,-1,26
 514 417 514 417 542.5 416 c 128,-1,27
 571 415 571 415 595 415 c 0,28,29
 687 415 687 415 763.5 433.5 c 128,-1,30
 840 452 840 452 895 495.5 c 128,-1,31
 950 539 950 539 980.5 611 c 128,-1,32
 1011 683 1011 683 1011 790 c 0,33,34
 1011 965 1011 965 909.5 1047.5 c 128,-1,35
 808 1130 808 1130 608 1126 c 0,36,37
 581 1125 581 1125 549.5 1123 c 128,-1,38
 518 1121 518 1121 486 1118 c 128,-1,39
 454 1115 454 1115 424 1111.5 c 128,-1,40
 394 1108 394 1108 370 1104 c 1,41,-1
 370 429 l 1,23,24
EndSplineSet
EndChar

StartChar: ordfeminine
Encoding: 170 170 162
Width: 1032
Flags: W
LayerCount: 2
Fore
SplineSet
438 678 m 0,0,1
 370 678 370 678 314 694 c 128,-1,2
 258 710 258 710 217 741 c 128,-1,3
 176 772 176 772 153.5 818 c 128,-1,4
 131 864 131 864 131 924 c 0,5,6
 131 973 131 973 144 1011 c 128,-1,7
 157 1049 157 1049 180.5 1078.5 c 128,-1,8
 204 1108 204 1108 237 1129 c 128,-1,9
 270 1150 270 1150 310 1165 c 0,10,11
 355 1182 355 1182 409 1193 c 128,-1,12
 463 1204 463 1204 518 1210.5 c 128,-1,13
 573 1217 573 1217 624.5 1219.5 c 128,-1,14
 676 1222 676 1222 717 1222 c 1,15,-1
 717 1301 l 2,16,17
 717 1355 717 1355 704 1389.5 c 128,-1,18
 691 1424 691 1424 664 1444 c 128,-1,19
 637 1464 637 1464 595 1471.5 c 128,-1,20
 553 1479 553 1479 495 1479 c 0,21,22
 454 1479 454 1479 408.5 1470 c 128,-1,23
 363 1461 363 1461 321.5 1447.5 c 128,-1,24
 280 1434 280 1434 247 1419.5 c 128,-1,25
 214 1405 214 1405 198 1393 c 1,26,-1
 155 1486 l 1,27,28
 169 1499 169 1499 207 1518 c 128,-1,29
 245 1537 245 1537 296.5 1554.5 c 128,-1,30
 348 1572 348 1572 408.5 1584.5 c 128,-1,31
 469 1597 469 1597 527 1597 c 0,32,33
 605 1597 605 1597 668 1583 c 128,-1,34
 731 1569 731 1569 775.5 1535 c 128,-1,35
 820 1501 820 1501 844 1445 c 128,-1,36
 868 1389 868 1389 868 1304 c 2,37,-1
 868 685 l 1,38,-1
 814 685 l 2,39,40
 793 685 793 685 776.5 685.5 c 128,-1,41
 760 686 760 686 749 691 c 128,-1,42
 738 696 738 696 732 707.5 c 128,-1,43
 726 719 726 719 726 741 c 2,44,-1
 726 772 l 1,45,46
 705 755 705 755 672.5 738.5 c 128,-1,47
 640 722 640 722 602 708.5 c 128,-1,48
 564 695 564 695 522 686.5 c 128,-1,49
 480 678 480 678 438 678 c 0,0,1
464 790 m 0,50,51
 498 790 498 790 535 797 c 128,-1,52
 572 804 572 804 606.5 814.5 c 128,-1,53
 641 825 641 825 670 837.5 c 128,-1,54
 699 850 699 850 717 861 c 1,55,-1
 717 1128 l 1,56,57
 673 1128 673 1128 626.5 1127 c 128,-1,58
 580 1126 580 1126 536.5 1121.5 c 128,-1,59
 493 1117 493 1117 454.5 1109 c 128,-1,60
 416 1101 416 1101 387 1088 c 0,61,62
 364 1077 364 1077 344.5 1064 c 128,-1,63
 325 1051 325 1051 310.5 1033.5 c 128,-1,64
 296 1016 296 1016 287.5 991.5 c 128,-1,65
 279 967 279 967 279 934 c 0,66,67
 279 866 279 866 328 828 c 128,-1,68
 377 790 377 790 464 790 c 0,50,51
EndSplineSet
EndChar

StartChar: ordmasculine
Encoding: 186 186 163
Width: 1031
Flags: W
LayerCount: 2
Fore
SplineSet
510 675 m 0,0,1
 415 675 415 675 341 708.5 c 128,-1,2
 267 742 267 742 216 804 c 128,-1,3
 165 866 165 866 138.5 953 c 128,-1,4
 112 1040 112 1040 113 1148 c 0,5,6
 115 1270 115 1270 153.5 1355.5 c 128,-1,7
 192 1441 192 1441 252 1494.5 c 128,-1,8
 312 1548 312 1548 386 1572.5 c 128,-1,9
 460 1597 460 1597 532 1597 c 0,10,11
 626 1597 626 1597 698.5 1563.5 c 128,-1,12
 771 1530 771 1530 820.5 1468.5 c 128,-1,13
 870 1407 870 1407 894.5 1321 c 128,-1,14
 919 1235 919 1235 918 1130 c 0,15,16
 916 1007 916 1007 880 921 c 128,-1,17
 844 835 844 835 786.5 780 c 128,-1,18
 729 725 729 725 657 700 c 128,-1,19
 585 675 585 675 510 675 c 0,0,1
518 789 m 0,20,21
 571 789 571 789 615 808.5 c 128,-1,22
 659 828 659 828 691 869 c 128,-1,23
 723 910 723 910 741 974 c 128,-1,24
 759 1038 759 1038 759 1129 c 0,25,26
 759 1212 759 1212 744 1278 c 128,-1,27
 729 1344 729 1344 699 1390 c 128,-1,28
 669 1436 669 1436 625 1460.5 c 128,-1,29
 581 1485 581 1485 524 1485 c 1,30,31
 473 1484 473 1484 427.5 1465.5 c 128,-1,32
 382 1447 382 1447 347.5 1407 c 128,-1,33
 313 1367 313 1367 292.5 1303 c 128,-1,34
 272 1239 272 1239 271 1148 c 0,35,36
 271 1065 271 1065 287.5 998.5 c 128,-1,37
 304 932 304 932 336 885 c 128,-1,38
 368 838 368 838 414 813 c 128,-1,39
 460 788 460 788 518 789 c 0,20,21
EndSplineSet
EndChar

StartChar: section
Encoding: 167 167 164
Width: 1358
Flags: W
LayerCount: 2
Fore
SplineSet
263 27 m 1,0,1
 283 12 283 12 319.5 -4.5 c 128,-1,2
 356 -21 356 -21 406 -35 c 128,-1,3
 456 -49 456 -49 519 -58 c 128,-1,4
 582 -67 582 -67 654 -67 c 0,5,6
 718 -67 718 -67 777.5 -56.5 c 128,-1,7
 837 -46 837 -46 883 -23.5 c 128,-1,8
 929 -1 929 -1 956.5 35.5 c 128,-1,9
 984 72 984 72 984 125 c 0,10,11
 984 180 984 180 951 220 c 128,-1,12
 918 260 918 260 864 292.5 c 128,-1,13
 810 325 810 325 741.5 353 c 128,-1,14
 673 381 673 381 601 409.5 c 128,-1,15
 529 438 529 438 460.5 471.5 c 128,-1,16
 392 505 392 505 338 548.5 c 128,-1,17
 284 592 284 592 251 649 c 128,-1,18
 218 706 218 706 218 783 c 0,19,20
 218 874 218 874 257.5 951 c 128,-1,21
 297 1028 297 1028 358 1086 c 1,22,23
 300 1133 300 1133 265 1194 c 128,-1,24
 230 1255 230 1255 230 1342 c 0,25,26
 230 1408 230 1408 250.5 1458 c 128,-1,27
 271 1508 271 1508 305.5 1544.5 c 128,-1,28
 340 1581 340 1581 386.5 1606 c 128,-1,29
 433 1631 433 1631 485.5 1645.5 c 128,-1,30
 538 1660 538 1660 592.5 1666.5 c 128,-1,31
 647 1673 647 1673 699 1673 c 0,32,33
 768 1673 768 1673 825 1666.5 c 128,-1,34
 882 1660 882 1660 927 1649.5 c 128,-1,35
 972 1639 972 1639 1005.5 1626 c 128,-1,36
 1039 1613 1039 1613 1060 1600 c 1,37,-1
 1027 1473 l 1,38,39
 1010 1485 1010 1485 981 1498 c 128,-1,40
 952 1511 952 1511 911 1522 c 128,-1,41
 870 1533 870 1533 816.5 1540 c 128,-1,42
 763 1547 763 1547 696 1547 c 0,43,44
 636 1547 636 1547 579.5 1537 c 128,-1,45
 523 1527 523 1527 479.5 1505.5 c 128,-1,46
 436 1484 436 1484 409.5 1448 c 128,-1,47
 383 1412 383 1412 383 1360 c 0,48,49
 383 1298 383 1298 415.5 1251.5 c 128,-1,50
 448 1205 448 1205 501.5 1167.5 c 128,-1,51
 555 1130 555 1130 623.5 1099 c 128,-1,52
 692 1068 692 1068 763.5 1036 c 128,-1,53
 835 1004 835 1004 903.5 967.5 c 128,-1,54
 972 931 972 931 1025.5 884 c 128,-1,55
 1079 837 1079 837 1111.5 775.5 c 128,-1,56
 1144 714 1144 714 1144 632 c 0,57,58
 1144 551 1144 551 1112 481.5 c 128,-1,59
 1080 412 1080 412 1028 356 c 1,60,61
 1077 315 1077 315 1106.5 263 c 128,-1,62
 1136 211 1136 211 1136 140 c 0,63,64
 1136 75 1136 75 1115 25.5 c 128,-1,65
 1094 -24 1094 -24 1058 -61 c 128,-1,66
 1022 -98 1022 -98 974 -123.5 c 128,-1,67
 926 -149 926 -149 872 -164.5 c 128,-1,68
 818 -180 818 -180 761 -186.5 c 128,-1,69
 704 -193 704 -193 650 -193 c 0,70,71
 576 -193 576 -193 510.5 -184.5 c 128,-1,72
 445 -176 445 -176 390.5 -162.5 c 128,-1,73
 336 -149 336 -149 294.5 -132.5 c 128,-1,74
 253 -116 253 -116 229 -100 c 1,75,-1
 263 27 l 1,0,1
371 810 m 0,76,77
 371 753 371 753 397 710 c 128,-1,78
 423 667 423 667 467 633.5 c 128,-1,79
 511 600 511 600 568 573.5 c 128,-1,80
 625 547 625 547 688 522 c 128,-1,81
 751 497 751 497 814.5 472 c 128,-1,82
 878 447 878 447 935 417 c 1,83,84
 958 460 958 460 975 510 c 128,-1,85
 992 560 992 560 992 605 c 0,86,87
 992 666 992 666 967.5 712 c 128,-1,88
 943 758 943 758 901 794.5 c 128,-1,89
 859 831 859 831 804 860 c 128,-1,90
 749 889 749 889 688 916 c 128,-1,91
 627 943 627 943 564.5 969.5 c 128,-1,92
 502 996 502 996 446 1028 c 1,93,94
 433 1007 433 1007 419.5 981 c 128,-1,95
 406 955 406 955 395.5 926.5 c 128,-1,96
 385 898 385 898 378 868.5 c 128,-1,97
 371 839 371 839 371 810 c 0,76,77
EndSplineSet
EndChar

StartChar: acute.cap
Encoding: 65545 -1 165
Width: 564
Flags: W
LayerCount: 2
Fore
SplineSet
56 1685 m 1,0,1
 67 1694 67 1694 94.5 1718 c 128,-1,2
 122 1742 122 1742 157 1773 c 128,-1,3
 192 1804 192 1804 231 1839.5 c 128,-1,4
 270 1875 270 1875 305 1906.5 c 128,-1,5
 340 1938 340 1938 366.5 1963.5 c 128,-1,6
 393 1989 393 1989 403 2000 c 1,7,-1
 514 1898 l 1,8,9
 475 1859 475 1859 427 1818 c 128,-1,10
 379 1777 379 1777 328 1739.5 c 128,-1,11
 277 1702 277 1702 225.5 1669.5 c 128,-1,12
 174 1637 174 1637 128 1614 c 1,13,-1
 56 1685 l 1,0,1
EndSplineSet
EndChar

StartChar: AE
Encoding: 198 198 166
Width: 1841
Flags: W
LayerCount: 2
Fore
SplineSet
671 1522 m 1,0,-1
 1705 1522 l 1,1,-1
 1705 1391 l 1,2,-1
 1003 1391 l 1,3,-1
 1003 850 l 1,4,-1
 1529 850 l 1,5,-1
 1529 719 l 1,6,-1
 1003 719 l 1,7,-1
 1003 133 l 1,8,-1
 1779 133 l 1,9,-1
 1779 0 l 1,10,-1
 834 0 l 1,11,-1
 834 417 l 1,12,-1
 320 417 l 1,13,-1
 129 0 l 1,14,-1
 -59 0 l 1,15,-1
 671 1522 l 1,0,-1
834 544 m 1,16,-1
 834 1410 l 1,17,-1
 775 1410 l 1,18,-1
 378 544 l 1,19,-1
 834 544 l 1,16,-1
EndSplineSet
EndChar

StartChar: dollar
Encoding: 36 36 167
Width: 1373
Flags: W
LayerCount: 2
Fore
SplineSet
278 213 m 1,0,1
 308 194 308 194 351.5 177 c 128,-1,2
 395 160 395 160 445 147 c 128,-1,3
 495 134 495 134 550 126.5 c 128,-1,4
 605 119 605 119 659 119 c 0,5,6
 738 119 738 119 802 134 c 128,-1,7
 866 149 866 149 911 179.5 c 128,-1,8
 956 210 956 210 980 256.5 c 128,-1,9
 1004 303 1004 303 1004 366 c 0,10,11
 1004 431 1004 431 977 479 c 128,-1,12
 950 527 950 527 902 565 c 128,-1,13
 854 603 854 603 787 636.5 c 128,-1,14
 720 670 720 670 640 706 c 0,15,16
 566 740 566 740 494.5 783.5 c 128,-1,17
 423 827 423 827 367 883 c 128,-1,18
 311 939 311 939 276.5 1008.5 c 128,-1,19
 242 1078 242 1078 242 1162 c 0,20,21
 242 1255 242 1255 276.5 1322 c 128,-1,22
 311 1389 311 1389 368 1433.5 c 128,-1,23
 425 1478 425 1478 499 1502 c 128,-1,24
 573 1526 573 1526 651 1534 c 1,25,-1
 654 1752 l 1,26,-1
 779 1752 l 1,27,-1
 775 1537 l 1,28,29
 838 1535 838 1535 888.5 1526.5 c 128,-1,30
 939 1518 939 1518 978 1506.5 c 128,-1,31
 1017 1495 1017 1495 1045.5 1481.5 c 128,-1,32
 1074 1468 1074 1468 1093 1456 c 1,33,-1
 1058 1323 l 1,34,35
 1030 1341 1030 1341 997.5 1356 c 128,-1,36
 965 1371 965 1371 925.5 1382 c 128,-1,37
 886 1393 886 1393 838 1399 c 128,-1,38
 790 1405 790 1405 732 1405 c 0,39,40
 669 1405 669 1405 609.5 1392 c 128,-1,41
 550 1379 550 1379 504 1351.5 c 128,-1,42
 458 1324 458 1324 430.5 1282.5 c 128,-1,43
 403 1241 403 1241 403 1184 c 0,44,45
 403 1120 403 1120 425.5 1072.5 c 128,-1,46
 448 1025 448 1025 491 986 c 128,-1,47
 534 947 534 947 597 912 c 128,-1,48
 660 877 660 877 741 838 c 0,49,50
 817 802 817 802 893.5 760.5 c 128,-1,51
 970 719 970 719 1031.5 665.5 c 128,-1,52
 1093 612 1093 612 1131.5 543.5 c 128,-1,53
 1170 475 1170 475 1170 385 c 0,54,55
 1170 292 1170 292 1138.5 220.5 c 128,-1,56
 1107 149 1107 149 1049 99 c 128,-1,57
 991 49 991 49 910.5 21 c 128,-1,58
 830 -7 830 -7 733 -14 c 1,59,-1
 731 -235 l 1,60,-1
 606 -235 l 1,61,-1
 608 -14 l 1,62,63
 543 -11 543 -11 484 -1.5 c 128,-1,64
 425 8 425 8 376.5 21 c 128,-1,65
 328 34 328 34 292 48 c 128,-1,66
 256 62 256 62 238 74 c 1,67,-1
 278 213 l 1,0,1
EndSplineSet
EndChar

StartChar: Oslash
Encoding: 216 216 168
Width: 1566
Flags: W
LayerCount: 2
Fore
SplineSet
471 48 m 1,0,1
 382 92 382 92 313 163 c 128,-1,2
 244 234 244 234 197 326.5 c 128,-1,3
 150 419 150 419 126.5 531 c 128,-1,4
 103 643 103 643 106 769 c 0,5,6
 110 959 110 959 165.5 1102.5 c 128,-1,7
 221 1246 221 1246 314.5 1342.5 c 128,-1,8
 408 1439 408 1439 534 1488 c 128,-1,9
 660 1537 660 1537 804 1538 c 0,10,11
 906 1538 906 1538 998 1512 c 1,12,-1
 1076 1730 l 1,13,-1
 1172 1702 l 1,14,-1
 1091 1477 l 1,15,16
 1178 1435 1178 1435 1247 1366.5 c 128,-1,17
 1316 1298 1316 1298 1363 1207 c 128,-1,18
 1410 1116 1410 1116 1434 1004 c 128,-1,19
 1458 892 1458 892 1456 764 c 0,20,21
 1452 575 1452 575 1399.5 430.5 c 128,-1,22
 1347 286 1347 286 1256 187.5 c 128,-1,23
 1165 89 1165 89 1042 38 c 128,-1,24
 919 -13 919 -13 774 -16 c 0,25,26
 660 -18 660 -18 564 11 c 1,27,-1
 490 -194 l 1,28,-1
 394 -167 l 1,29,-1
 471 48 l 1,0,1
952 1384 m 1,30,31
 879 1409 879 1409 799 1409 c 0,32,33
 690 1408 690 1408 595 1367 c 128,-1,34
 500 1326 500 1326 429.5 1245 c 128,-1,35
 359 1164 359 1164 318.5 1042 c 128,-1,36
 278 920 278 920 277 758 c 0,37,38
 276 667 276 667 291 582 c 128,-1,39
 306 497 306 497 337 423 c 128,-1,40
 368 349 368 349 414 289 c 128,-1,41
 460 229 460 229 522 188 c 1,42,-1
 952 1384 l 1,30,31
611 142 m 1,43,44
 649 128 649 128 691 120.5 c 128,-1,45
 733 113 733 113 780 114 c 0,46,47
 892 115 892 115 984.5 158 c 128,-1,48
 1077 201 1077 201 1143.5 284 c 128,-1,49
 1210 367 1210 367 1246.5 489.5 c 128,-1,50
 1283 612 1283 612 1284 772 c 0,51,52
 1284 864 1284 864 1269 949.5 c 128,-1,53
 1254 1035 1254 1035 1223.5 1108.5 c 128,-1,54
 1193 1182 1193 1182 1147.5 1241.5 c 128,-1,55
 1102 1301 1102 1301 1042 1340 c 1,56,-1
 611 142 l 1,43,44
EndSplineSet
EndChar

StartChar: Lslash
Encoding: 321 321 169
Width: 1057
Flags: W
LayerCount: 2
Fore
SplineSet
201 624 m 1,0,-1
 48 568 l 1,1,-1
 7 672 l 1,2,-1
 201 743 l 1,3,-1
 201 1522 l 1,4,-1
 373 1522 l 1,5,-1
 373 807 l 1,6,-1
 801 965 l 1,7,-1
 842 859 l 1,8,-1
 373 687 l 1,9,-1
 373 133 l 1,10,-1
 1002 133 l 1,11,-1
 1002 0 l 1,12,-1
 201 0 l 1,13,-1
 201 624 l 1,0,-1
EndSplineSet
EndChar

StartChar: Euro
Encoding: 8364 8364 170
Width: 1512
Flags: W
LayerCount: 2
Fore
SplineSet
114 637 m 1,0,-1
 309 637 l 1,1,2
 308 657 308 657 307.5 678 c 128,-1,3
 307 699 307 699 307 720 c 0,4,5
 307 814 307 814 319 898 c 1,6,-1
 145 898 l 1,7,-1
 145 1008 l 1,8,-1
 339 1008 l 1,9,10
 370 1131 370 1131 427.5 1228 c 128,-1,11
 485 1325 485 1325 566 1393 c 128,-1,12
 647 1461 647 1461 750.5 1498 c 128,-1,13
 854 1535 854 1535 976 1538 c 0,14,15
 1053 1540 1053 1540 1109.5 1533.5 c 128,-1,16
 1166 1527 1166 1527 1209 1516.5 c 128,-1,17
 1252 1506 1252 1506 1285.5 1494.5 c 128,-1,18
 1319 1483 1319 1483 1350 1475 c 1,19,-1
 1309 1341 l 1,20,21
 1279 1357 1279 1357 1246.5 1369.5 c 128,-1,22
 1214 1382 1214 1382 1173.5 1391 c 128,-1,23
 1133 1400 1133 1400 1083.5 1405.5 c 128,-1,24
 1034 1411 1034 1411 971 1411 c 0,25,26
 891 1411 891 1411 819 1386.5 c 128,-1,27
 747 1362 747 1362 687.5 1312 c 128,-1,28
 628 1262 628 1262 583 1186.5 c 128,-1,29
 538 1111 538 1111 514 1008 c 1,30,-1
 1100 1008 l 1,31,-1
 1100 898 l 1,32,-1
 495 898 l 1,33,34
 491 867 491 867 489.5 834.5 c 128,-1,35
 488 802 488 802 488 767 c 0,36,37
 488 733 488 733 489.5 701 c 128,-1,38
 491 669 491 669 493 637 c 1,39,-1
 1067 637 l 1,40,-1
 1067 527 l 1,41,-1
 506 527 l 1,42,43
 522 430 522 430 555 350.5 c 128,-1,44
 588 271 588 271 640.5 214 c 128,-1,45
 693 157 693 157 768 126 c 128,-1,46
 843 95 843 95 943 95 c 0,47,48
 1011 95 1011 95 1069.5 103.5 c 128,-1,49
 1128 112 1128 112 1177 125.5 c 128,-1,50
 1226 139 1226 139 1265 155 c 128,-1,51
 1304 171 1304 171 1333 187 c 1,52,-1
 1379 61 l 1,53,54
 1346 56 1346 56 1311.5 41.5 c 128,-1,55
 1277 27 1277 27 1227 11.5 c 128,-1,56
 1177 -4 1177 -4 1104 -16 c 128,-1,57
 1031 -28 1031 -28 922 -28 c 0,58,59
 791 -28 791 -28 688.5 11.5 c 128,-1,60
 586 51 586 51 511 123.5 c 128,-1,61
 436 196 436 196 388.5 298.5 c 128,-1,62
 341 401 341 401 321 527 c 1,63,-1
 114 527 l 1,64,-1
 114 637 l 1,0,-1
EndSplineSet
EndChar

StartChar: mu
Encoding: 181 181 171
Width: 1360
Flags: W
LayerCount: 2
Fore
SplineSet
376 -371 m 1,0,-1
 220 -371 l 1,1,-1
 220 1140 l 1,2,-1
 386 1140 l 1,3,-1
 386 384 l 2,4,5
 386 245 386 245 452.5 180.5 c 128,-1,6
 519 116 519 116 649 115 c 0,7,8
 692 115 692 115 736 128.5 c 128,-1,9
 780 142 780 142 819 161 c 128,-1,10
 858 180 858 180 888.5 200.5 c 128,-1,11
 919 221 919 221 937 235 c 1,12,-1
 937 1140 l 1,13,-1
 1104 1140 l 1,14,-1
 1104 228 l 2,15,16
 1104 195 1104 195 1106.5 174 c 128,-1,17
 1109 153 1109 153 1114 141.5 c 128,-1,18
 1119 130 1119 130 1126.5 125.5 c 128,-1,19
 1134 121 1134 121 1144 121 c 0,20,21
 1157 121 1157 121 1180 129 c 128,-1,22
 1203 137 1203 137 1234 163 c 1,23,-1
 1258 87 l 1,24,25
 1252 76 1252 76 1234 59 c 128,-1,26
 1216 42 1216 42 1190.5 26 c 128,-1,27
 1165 10 1165 10 1133 -1.5 c 128,-1,28
 1101 -13 1101 -13 1067 -13 c 0,29,30
 1041 -13 1041 -13 1020.5 -5 c 128,-1,31
 1000 3 1000 3 986 21 c 128,-1,32
 972 39 972 39 964.5 68 c 128,-1,33
 957 97 957 97 959 138 c 1,34,35
 940 118 940 118 909.5 91.5 c 128,-1,36
 879 65 879 65 838.5 41 c 128,-1,37
 798 17 798 17 747 0.5 c 128,-1,38
 696 -16 696 -16 635 -16 c 0,39,40
 591 -16 591 -16 550.5 -10 c 128,-1,41
 510 -4 510 -4 474 10.5 c 128,-1,42
 438 25 438 25 407 50 c 128,-1,43
 376 75 376 75 352 114 c 1,44,-1
 376 -371 l 1,0,-1
EndSplineSet
EndChar

StartChar: eogonek
Encoding: 281 281 172
Width: 1120
Flags: W
LayerCount: 2
Fore
SplineSet
97 565 m 0,0,1
 97 694 97 694 131 801.5 c 128,-1,2
 165 909 165 909 230 987.5 c 128,-1,3
 295 1066 295 1066 390 1110 c 128,-1,4
 485 1154 485 1154 608 1156 c 0,5,6
 699 1157 699 1157 773.5 1127 c 128,-1,7
 848 1097 848 1097 901 1040.5 c 128,-1,8
 954 984 954 984 984.5 904.5 c 128,-1,9
 1015 825 1015 825 1017 728 c 1,10,11
 1017 673 1017 673 1016.5 630.5 c 128,-1,12
 1016 588 1016 588 1009 553 c 1,13,-1
 261 553 l 1,14,15
 261 543 261 543 261 533 c 128,-1,16
 261 523 261 523 262 513 c 0,17,18
 265 403 265 403 294.5 326.5 c 128,-1,19
 324 250 324 250 373.5 202 c 128,-1,20
 423 154 423 154 490.5 132 c 128,-1,21
 558 110 558 110 637 110 c 0,22,23
 676 110 676 110 720.5 116.5 c 128,-1,24
 765 123 765 123 808 133.5 c 128,-1,25
 851 144 851 144 887.5 157.5 c 128,-1,26
 924 171 924 171 947 186 c 1,27,-1
 980 89 l 1,28,29
 974 84 974 84 968 80 c 128,-1,30
 962 76 962 76 954 71 c 1,31,-1
 956 70 l 1,32,33
 914 44 914 44 866.5 3 c 128,-1,34
 819 -38 819 -38 778.5 -85.5 c 128,-1,35
 738 -133 738 -133 712 -183.5 c 128,-1,36
 686 -234 686 -234 686 -280 c 1,37,38
 687 -315 687 -315 699 -338 c 128,-1,39
 711 -361 711 -361 731.5 -374.5 c 128,-1,40
 752 -388 752 -388 779.5 -393.5 c 128,-1,41
 807 -399 807 -399 838 -399 c 0,42,43
 877 -398 877 -398 919 -388 c 128,-1,44
 961 -378 961 -378 1001 -358 c 1,45,-1
 1001 -450 l 1,46,47
 981 -465 981 -465 953.5 -477 c 128,-1,48
 926 -489 926 -489 895 -496.5 c 128,-1,49
 864 -504 864 -504 830.5 -508 c 128,-1,50
 797 -512 797 -512 766 -512 c 0,51,52
 716 -512 716 -512 671.5 -500 c 128,-1,53
 627 -488 627 -488 594 -463 c 128,-1,54
 561 -438 561 -438 541.5 -400.5 c 128,-1,55
 522 -363 522 -363 522 -312 c 1,56,57
 521 -272 521 -272 539.5 -228.5 c 128,-1,58
 558 -185 558 -185 588 -143.5 c 128,-1,59
 618 -102 618 -102 657 -66 c 128,-1,60
 696 -30 696 -30 737 -3 c 1,61,62
 702 -9 702 -9 666 -12.5 c 128,-1,63
 630 -16 630 -16 595 -16 c 0,64,65
 475 -16 475 -16 382 23.5 c 128,-1,66
 289 63 289 63 225.5 137.5 c 128,-1,67
 162 212 162 212 129.5 320 c 128,-1,68
 97 428 97 428 97 565 c 0,0,1
861 665 m 1,69,70
 865 743 865 743 853.5 811 c 128,-1,71
 842 879 842 879 811 929.5 c 128,-1,72
 780 980 780 980 728 1008.5 c 128,-1,73
 676 1037 676 1037 598 1037 c 0,74,75
 535 1037 535 1037 479.5 1016 c 128,-1,76
 424 995 424 995 380.5 950 c 128,-1,77
 337 905 337 905 308 834.5 c 128,-1,78
 279 764 279 764 268 665 c 1,79,-1
 861 665 l 1,69,70
EndSplineSet
EndChar

StartChar: thorn
Encoding: 254 254 173
Width: 1233
Flags: W
LayerCount: 2
Fore
SplineSet
339 -151 m 1,0,-1
 339 -507 l 1,1,-1
 172 -507 l 1,2,-1
 172 1661 l 1,3,-1
 339 1661 l 1,4,-1
 339 1186 l 1,5,-1
 332 1016 l 1,6,7
 354 1037 354 1037 385.5 1061.5 c 128,-1,8
 417 1086 417 1086 460 1107 c 128,-1,9
 503 1128 503 1128 557.5 1142 c 128,-1,10
 612 1156 612 1156 680 1156 c 0,11,12
 773 1156 773 1156 855 1122.5 c 128,-1,13
 937 1089 937 1089 998 1021 c 128,-1,14
 1059 953 1059 953 1094.5 851 c 128,-1,15
 1130 749 1130 749 1130 612 c 0,16,17
 1130 472 1130 472 1088 356.5 c 128,-1,18
 1046 241 1046 241 970.5 158 c 128,-1,19
 895 75 895 75 789 29 c 128,-1,20
 683 -17 683 -17 555 -17 c 0,21,22
 496 -17 496 -17 438.5 -9 c 128,-1,23
 381 -1 381 -1 330 10 c 1,24,-1
 339 -151 l 1,0,-1
339 155 m 1,25,26
 368 133 368 133 431.5 119.5 c 128,-1,27
 495 106 495 106 574 106 c 0,28,29
 649 106 649 106 718.5 136 c 128,-1,30
 788 166 788 166 841 226 c 128,-1,31
 894 286 894 286 926.5 377 c 128,-1,32
 959 468 959 468 960 590 c 0,33,34
 962 803 962 803 879 914 c 128,-1,35
 796 1025 796 1025 634 1025 c 0,36,37
 587 1025 587 1025 543 1014 c 128,-1,38
 499 1003 499 1003 460.5 986 c 128,-1,39
 422 969 422 969 391 948.5 c 128,-1,40
 360 928 360 928 339 909 c 1,41,-1
 339 155 l 1,25,26
EndSplineSet
EndChar

StartChar: lslash
Encoding: 322 322 174
Width: 612
Flags: W
LayerCount: 2
Fore
SplineSet
221 761 m 1,0,-1
 52 696 l 1,1,-1
 52 811 l 1,2,-1
 221 878 l 1,3,-1
 221 1664 l 1,4,-1
 388 1664 l 1,5,-1
 388 945 l 1,6,-1
 610 1034 l 1,7,-1
 610 911 l 1,8,-1
 388 825 l 1,9,-1
 388 0 l 1,10,-1
 221 0 l 1,11,-1
 221 761 l 1,0,-1
EndSplineSet
EndChar

StartChar: oe
Encoding: 339 339 175
Width: 1964
Flags: W
LayerCount: 2
Fore
SplineSet
595 -16 m 0,0,1
 459 -16 459 -16 364 33.5 c 128,-1,2
 269 83 269 83 209.5 166.5 c 128,-1,3
 150 250 150 250 123 360 c 128,-1,4
 96 470 96 470 98 591 c 0,5,6
 100 727 100 727 141 832.5 c 128,-1,7
 182 938 182 938 251.5 1010 c 128,-1,8
 321 1082 321 1082 415.5 1119 c 128,-1,9
 510 1156 510 1156 619 1156 c 0,10,11
 696 1156 696 1156 760 1139 c 128,-1,12
 824 1122 824 1122 875 1091 c 128,-1,13
 926 1060 926 1060 965.5 1016.5 c 128,-1,14
 1005 973 1005 973 1033 920 c 1,15,16
 1096 1029 1096 1029 1202.5 1091.5 c 128,-1,17
 1309 1154 1309 1154 1458 1156 c 0,18,19
 1549 1157 1549 1157 1623 1127 c 128,-1,20
 1697 1097 1697 1097 1750.5 1040.5 c 128,-1,21
 1804 984 1804 984 1834 904.5 c 128,-1,22
 1864 825 1864 825 1867 728 c 1,23,24
 1867 673 1867 673 1866 630.5 c 128,-1,25
 1865 588 1865 588 1858 553 c 1,26,-1
 1110 553 l 1,27,28
 1110 543 1110 543 1110 533 c 128,-1,29
 1110 523 1110 523 1111 513 c 0,30,31
 1115 403 1115 403 1144 326.5 c 128,-1,32
 1173 250 1173 250 1222.5 202 c 128,-1,33
 1272 154 1272 154 1339 132.5 c 128,-1,34
 1406 111 1406 111 1485 111 c 0,35,36
 1524 111 1524 111 1569 117 c 128,-1,37
 1614 123 1614 123 1657.5 133.5 c 128,-1,38
 1701 144 1701 144 1738 157.5 c 128,-1,39
 1775 171 1775 171 1798 186 c 1,40,-1
 1831 89 l 1,41,42
 1802 66 1802 66 1758 46.5 c 128,-1,43
 1714 27 1714 27 1662 13 c 128,-1,44
 1610 -1 1610 -1 1553.5 -8.5 c 128,-1,45
 1497 -16 1497 -16 1444 -16 c 0,46,47
 1295 -16 1295 -16 1189.5 43.5 c 128,-1,48
 1084 103 1084 103 1023 215 c 1,49,50
 955 102 955 102 844.5 43 c 128,-1,51
 734 -16 734 -16 595 -16 c 0,0,1
1709 665 m 1,52,53
 1713 743 1713 743 1702 811 c 128,-1,54
 1691 879 1691 879 1660 929.5 c 128,-1,55
 1629 980 1629 980 1577 1008.5 c 128,-1,56
 1525 1037 1525 1037 1447 1037 c 0,57,58
 1384 1037 1384 1037 1329 1016 c 128,-1,59
 1274 995 1274 995 1230.5 950 c 128,-1,60
 1187 905 1187 905 1157.5 834.5 c 128,-1,61
 1128 764 1128 764 1117 665 c 1,62,-1
 1709 665 l 1,52,53
599 103 m 0,63,64
 681 102 681 102 745.5 133.5 c 128,-1,65
 810 165 810 165 855 224 c 128,-1,66
 900 283 900 283 924 368.5 c 128,-1,67
 948 454 948 454 948 561 c 0,68,69
 948 659 948 659 928 745 c 128,-1,70
 908 831 908 831 867 895.5 c 128,-1,71
 826 960 826 960 763 997 c 128,-1,72
 700 1034 700 1034 614 1035 c 0,73,74
 534 1036 534 1036 470 1006.5 c 128,-1,75
 406 977 406 977 361 920 c 128,-1,76
 316 863 316 863 291.5 779.5 c 128,-1,77
 267 696 267 696 267 589 c 0,78,79
 267 491 267 491 286 403.5 c 128,-1,80
 305 316 305 316 346 249.5 c 128,-1,81
 387 183 387 183 449.5 143.5 c 128,-1,82
 512 104 512 104 599 103 c 0,63,64
EndSplineSet
EndChar

StartChar: OE
Encoding: 338 338 177
Width: 2046
Flags: W
LayerCount: 2
Fore
SplineSet
104 764 m 0,0,1
 108 953 108 953 162 1095.5 c 128,-1,2
 216 1238 216 1238 310 1334.5 c 128,-1,3
 404 1431 404 1431 531.5 1482 c 128,-1,4
 659 1533 659 1533 810 1538 c 0,5,6
 877 1540 877 1540 950.5 1525 c 128,-1,7
 1024 1510 1024 1510 1089 1472 c 1,8,-1
 1089 1522 l 1,9,-1
 1911 1522 l 1,10,-1
 1911 1391 l 1,11,-1
 1258 1391 l 1,12,-1
 1258 852 l 1,13,-1
 1742 852 l 1,14,-1
 1742 720 l 1,15,-1
 1258 720 l 1,16,-1
 1258 134 l 1,17,-1
 1985 134 l 1,18,-1
 1985 0 l 1,19,-1
 1089 0 l 1,20,-1
 1089 75 l 1,21,22
 1025 32 1025 32 951 9 c 128,-1,23
 877 -14 877 -14 780 -16 c 0,24,25
 622 -19 622 -19 495.5 38.5 c 128,-1,26
 369 96 369 96 281 200.5 c 128,-1,27
 193 305 193 305 147 449.5 c 128,-1,28
 101 594 101 594 104 764 c 0,0,1
787 112 m 0,29,30
 884 112 884 112 960 142 c 128,-1,31
 1036 172 1036 172 1089 219 c 1,32,-1
 1089 1323 l 1,33,34
 1040 1361 1040 1361 970.5 1385 c 128,-1,35
 901 1409 901 1409 807 1409 c 0,36,37
 706 1409 706 1409 610.5 1371 c 128,-1,38
 515 1333 515 1333 440 1253 c 128,-1,39
 365 1173 365 1173 319.5 1049.5 c 128,-1,40
 274 926 274 926 274 755 c 0,41,42
 274 626 274 626 306.5 509 c 128,-1,43
 339 392 339 392 403.5 304 c 128,-1,44
 468 216 468 216 564 164 c 128,-1,45
 660 112 660 112 787 112 c 0,29,30
EndSplineSet
EndChar

StartChar: hbar
Encoding: 295 295 191
Width: 1288
Flags: W
LayerCount: 2
Fore
SplineSet
190 1309 m 1,0,-1
 39 1309 l 1,1,-1
 39 1410 l 1,2,-1
 190 1410 l 1,3,-1
 190 1664 l 1,4,-1
 356 1664 l 1,5,-1
 356 1410 l 1,6,-1
 625 1410 l 1,7,-1
 625 1309 l 1,8,-1
 356 1309 l 1,9,-1
 356 1157 l 1,10,-1
 348 1001 l 1,11,12
 380 1026 380 1026 426 1053 c 128,-1,13
 472 1080 472 1080 527.5 1103 c 128,-1,14
 583 1126 583 1126 644 1141 c 128,-1,15
 705 1156 705 1156 767 1157 c 0,16,17
 861 1158 861 1158 927.5 1133.5 c 128,-1,18
 994 1109 994 1109 1037 1052 c 128,-1,19
 1080 995 1080 995 1099.5 902.5 c 128,-1,20
 1119 810 1119 810 1119 677 c 2,21,-1
 1119 0 l 1,22,-1
 952 0 l 1,23,-1
 953 689 l 2,24,25
 953 781 953 781 940.5 844.5 c 128,-1,26
 928 908 928 908 898.5 947 c 128,-1,27
 869 986 869 986 820.5 1002.5 c 128,-1,28
 772 1019 772 1019 699 1017 c 0,29,30
 657 1016 657 1016 610.5 1004 c 128,-1,31
 564 992 564 992 519 973 c 128,-1,32
 474 954 474 954 432 929.5 c 128,-1,33
 390 905 390 905 356 879 c 1,34,-1
 356 0 l 1,35,-1
 190 0 l 1,36,-1
 190 1309 l 1,0,-1
EndSplineSet
EndChar

StartChar: trademark
Encoding: 8482 8482 192
Width: 2218
Flags: W
LayerCount: 2
Fore
SplineSet
1083 1546 m 1,0,-1
 1304 1546 l 1,1,-1
 1492 1072 l 1,2,-1
 1532 933 l 1,3,-1
 1565 1071 l 1,4,-1
 1741 1546 l 1,5,-1
 1950 1546 l 1,6,-1
 2016 767 l 1,7,-1
 1881 767 l 1,8,-1
 1846 1287 l 1,9,-1
 1837 1458 l 1,10,-1
 1788 1320 l 1,11,-1
 1578 762 l 1,12,-1
 1487 762 l 1,13,-1
 1264 1304 l 1,14,-1
 1202 1457 l 1,15,-1
 1199 1305 l 1,16,-1
 1175 767 l 1,17,-1
 1046 767 l 1,18,-1
 1083 1546 l 1,0,-1
449 1430 m 1,19,-1
 181 1428 l 1,20,-1
 180 1546 l 1,21,-1
 866 1546 l 1,22,-1
 866 1428 l 1,23,-1
 589 1430 l 1,24,-1
 589 767 l 1,25,-1
 449 767 l 1,26,-1
 449 1430 l 1,19,-1
EndSplineSet
EndChar

StartChar: perthousand
Encoding: 8240 8240 193
Width: 2764
Flags: W
LayerCount: 2
Fore
SplineSet
1960 452 m 0,0,1
 1960 550 1960 550 1991 625 c 128,-1,2
 2022 700 2022 700 2074 752 c 128,-1,3
 2126 804 2126 804 2193.5 831.5 c 128,-1,4
 2261 859 2261 859 2335 861 c 0,5,6
 2425 864 2425 864 2490.5 833 c 128,-1,7
 2556 802 2556 802 2598 747 c 128,-1,8
 2640 692 2640 692 2660 618.5 c 128,-1,9
 2680 545 2680 545 2680 461 c 0,10,11
 2680 363 2680 363 2649 288.5 c 128,-1,12
 2618 214 2618 214 2566 163 c 128,-1,13
 2514 112 2514 112 2446.5 85 c 128,-1,14
 2379 58 2379 58 2306 56 c 0,15,16
 2224 54 2224 54 2160 85.5 c 128,-1,17
 2096 117 2096 117 2051.5 171.5 c 128,-1,18
 2007 226 2007 226 1983.5 298.5 c 128,-1,19
 1960 371 1960 371 1960 452 c 0,0,1
2109 458 m 0,20,21
 2109 397 2109 397 2123 344 c 128,-1,22
 2137 291 2137 291 2163.5 251.5 c 128,-1,23
 2190 212 2190 212 2228.5 190 c 128,-1,24
 2267 168 2267 168 2315 168 c 256,25,26
 2363 168 2363 168 2403 188 c 128,-1,27
 2443 208 2443 208 2471.5 244.5 c 128,-1,28
 2500 281 2500 281 2516 334.5 c 128,-1,29
 2532 388 2532 388 2532 456 c 0,30,31
 2532 521 2532 521 2519 575.5 c 128,-1,32
 2506 630 2506 630 2480 669 c 128,-1,33
 2454 708 2454 708 2415.5 729.5 c 128,-1,34
 2377 751 2377 751 2326 750 c 0,35,36
 2277 749 2277 749 2237 728.5 c 128,-1,37
 2197 708 2197 708 2168.5 670.5 c 128,-1,38
 2140 633 2140 633 2124.5 579 c 128,-1,39
 2109 525 2109 525 2109 458 c 0,20,21
1223 1530 m 1,40,-1
 1368 1530 l 1,41,-1
 711 0 l 1,42,-1
 565 0 l 1,43,-1
 1223 1530 l 1,40,-1
430 686 m 0,44,45
 348 684 348 684 284 716 c 128,-1,46
 220 748 220 748 175.5 802.5 c 128,-1,47
 131 857 131 857 107.5 929.5 c 128,-1,48
 84 1002 84 1002 84 1083 c 0,49,50
 84 1181 84 1181 115 1256 c 128,-1,51
 146 1331 146 1331 198 1383 c 128,-1,52
 250 1435 250 1435 317.5 1462.5 c 128,-1,53
 385 1490 385 1490 459 1492 c 0,54,55
 549 1494 549 1494 614.5 1463 c 128,-1,56
 680 1432 680 1432 722 1377.5 c 128,-1,57
 764 1323 764 1323 784 1249 c 128,-1,58
 804 1175 804 1175 804 1091 c 0,59,60
 804 994 804 994 773 919 c 128,-1,61
 742 844 742 844 690.5 793 c 128,-1,62
 639 742 639 742 571 715 c 128,-1,63
 503 688 503 688 430 686 c 0,44,45
440 798 m 1,64,65
 488 799 488 799 527.5 818.5 c 128,-1,66
 567 838 567 838 595.5 875 c 128,-1,67
 624 912 624 912 640 965 c 128,-1,68
 656 1018 656 1018 656 1086 c 0,69,70
 656 1151 656 1151 643 1205.5 c 128,-1,71
 630 1260 630 1260 604 1299 c 128,-1,72
 578 1338 578 1338 539.5 1359.5 c 128,-1,73
 501 1381 501 1381 450 1380 c 0,74,75
 401 1379 401 1379 361 1358.5 c 128,-1,76
 321 1338 321 1338 292.5 1300.5 c 128,-1,77
 264 1263 264 1263 248.5 1209.5 c 128,-1,78
 233 1156 233 1156 233 1089 c 0,79,80
 233 1028 233 1028 247 974.5 c 128,-1,81
 261 921 261 921 287.5 882 c 128,-1,82
 314 843 314 843 352.5 820.5 c 128,-1,83
 391 798 391 798 440 798 c 1,64,65
1136 452 m 0,84,85
 1136 550 1136 550 1167 625 c 128,-1,86
 1198 700 1198 700 1250 752 c 128,-1,87
 1302 804 1302 804 1370 831.5 c 128,-1,88
 1438 859 1438 859 1512 861 c 0,89,90
 1602 864 1602 864 1667 833 c 128,-1,91
 1732 802 1732 802 1774.5 747 c 128,-1,92
 1817 692 1817 692 1837 618.5 c 128,-1,93
 1857 545 1857 545 1857 461 c 0,94,95
 1857 363 1857 363 1826 288.5 c 128,-1,96
 1795 214 1795 214 1743 163 c 128,-1,97
 1691 112 1691 112 1623 85 c 128,-1,98
 1555 58 1555 58 1482 56 c 0,99,100
 1401 54 1401 54 1336.5 85.5 c 128,-1,101
 1272 117 1272 117 1227.5 171.5 c 128,-1,102
 1183 226 1183 226 1159.5 298.5 c 128,-1,103
 1136 371 1136 371 1136 452 c 0,84,85
1286 458 m 0,104,105
 1286 397 1286 397 1300 344 c 128,-1,106
 1314 291 1314 291 1340.5 251.5 c 128,-1,107
 1367 212 1367 212 1405 190 c 128,-1,108
 1443 168 1443 168 1492 168 c 0,109,110
 1540 168 1540 168 1580 188 c 128,-1,111
 1620 208 1620 208 1648.5 244.5 c 128,-1,112
 1677 281 1677 281 1692.5 334.5 c 128,-1,113
 1708 388 1708 388 1708 456 c 0,114,115
 1708 521 1708 521 1695 575.5 c 128,-1,116
 1682 630 1682 630 1656 669 c 128,-1,117
 1630 708 1630 708 1592 729.5 c 128,-1,118
 1554 751 1554 751 1503 750 c 0,119,120
 1454 749 1454 749 1414 728.5 c 128,-1,121
 1374 708 1374 708 1345.5 670.5 c 128,-1,122
 1317 633 1317 633 1301.5 579 c 128,-1,123
 1286 525 1286 525 1286 458 c 0,104,105
EndSplineSet
Ligature2: "'frac' Diagonal Fractions in Latin lookup 10 subtable" zero slash zero zero
EndChar

StartChar: Eth
Encoding: 208 208 194
Width: 1474
Flags: W
LayerCount: 2
Fore
SplineSet
208 737 m 1,0,-1
 64 737 l 1,1,-1
 64 851 l 1,2,-1
 208 851 l 1,3,-1
 208 1522 l 1,4,5
 212 1522 212 1522 229.5 1522 c 128,-1,6
 247 1522 247 1522 267.5 1522 c 128,-1,7
 288 1522 288 1522 305.5 1522.5 c 128,-1,8
 323 1523 323 1523 328 1523 c 0,9,10
 400 1523 400 1523 487.5 1529.5 c 128,-1,11
 575 1536 575 1536 666 1536 c 0,12,13
 847 1536 847 1536 982.5 1486.5 c 128,-1,14
 1118 1437 1118 1437 1207.5 1343 c 128,-1,15
 1297 1249 1297 1249 1341.5 1113 c 128,-1,16
 1386 977 1386 977 1386 805 c 0,17,18
 1386 618 1386 618 1336.5 465.5 c 128,-1,19
 1287 313 1287 313 1192 205 c 128,-1,20
 1097 97 1097 97 958.5 39 c 128,-1,21
 820 -19 820 -19 642 -16 c 0,22,23
 610 -15 610 -15 569.5 -13 c 128,-1,24
 529 -11 529 -11 486.5 -8.5 c 128,-1,25
 444 -6 444 -6 401 -4 c 128,-1,26
 358 -2 358 -2 320 -2 c 0,27,28
 312 -2 312 -2 294.5 -1.5 c 128,-1,29
 277 -1 277 -1 259 -0.5 c 128,-1,30
 241 0 241 0 226 0 c 128,-1,31
 211 0 211 0 208 0 c 1,32,-1
 208 737 l 1,0,-1
377 128 m 1,33,34
 406 124 406 124 442.5 120.5 c 128,-1,35
 479 117 479 117 518 114.5 c 128,-1,36
 557 112 557 112 595.5 111 c 128,-1,37
 634 110 634 110 667 110 c 0,38,39
 787 111 787 111 887 151.5 c 128,-1,40
 987 192 987 192 1058.5 274 c 128,-1,41
 1130 356 1130 356 1169.5 481.5 c 128,-1,42
 1209 607 1209 607 1210 780 c 0,43,44
 1211 948 1211 948 1174.5 1067.5 c 128,-1,45
 1138 1187 1138 1187 1064.5 1264 c 128,-1,46
 991 1341 991 1341 881 1377 c 128,-1,47
 771 1413 771 1413 626 1413 c 0,48,49
 554 1413 554 1413 491.5 1408.5 c 128,-1,50
 429 1404 429 1404 377 1399 c 1,51,-1
 377 851 l 1,52,-1
 810 851 l 1,53,-1
 810 737 l 1,54,-1
 377 737 l 1,55,-1
 377 128 l 1,33,34
EndSplineSet
EndChar

StartChar: florin
Encoding: 402 402 195
Width: 1169
Flags: W
LayerCount: 2
Fore
SplineSet
422 1013 m 1,0,-1
 201 1013 l 1,1,-1
 207 1101 l 1,2,-1
 431 1141 l 1,3,-1
 439 1209 l 2,4,5
 455 1339 455 1339 495 1429.5 c 128,-1,6
 535 1520 535 1520 593.5 1577 c 128,-1,7
 652 1634 652 1634 725.5 1660 c 128,-1,8
 799 1686 799 1686 881 1686 c 0,9,10
 948 1686 948 1686 982.5 1680 c 128,-1,11
 1017 1674 1017 1674 1028 1669 c 1,12,-1
 1018 1532 l 1,13,14
 1006 1540 1006 1540 966.5 1545.5 c 128,-1,15
 927 1551 927 1551 861 1551 c 0,16,17
 813 1551 813 1551 771 1535.5 c 128,-1,18
 729 1520 729 1520 695.5 1485 c 128,-1,19
 662 1450 662 1450 639 1394 c 128,-1,20
 616 1338 616 1338 607 1256 c 2,21,-1
 594 1141 l 1,22,-1
 914 1141 l 1,23,-1
 904 1013 l 1,24,-1
 584 1013 l 1,25,-1
 470 -356 l 1,26,-1
 307 -356 l 1,27,-1
 422 1013 l 1,0,-1
EndSplineSet
EndChar

StartChar: Delta
Encoding: 8710 8710 197
Width: 1577
Flags: W
LayerCount: 2
Fore
SplineSet
742 1508 m 1,0,-1
 770 1508 l 1,1,-1
 1519 25 l 1,2,-1
 1504 0 l 1,3,-1
 67 0 l 1,4,-1
 54 21 l 1,5,-1
 742 1508 l 1,0,-1
1293 133 m 1,6,-1
 763 1219 l 1,7,-1
 269 133 l 1,8,-1
 1293 133 l 1,6,-1
EndSplineSet
EndChar

StartChar: lessequal
Encoding: 8804 8804 198
Width: 1368
Flags: W
LayerCount: 2
Fore
SplineSet
173 834 m 1,0,-1
 1138 1282 l 1,1,-1
 1138 1128 l 1,2,-1
 340 773 l 1,3,-1
 1138 418 l 1,4,-1
 1138 263 l 1,5,-1
 173 711 l 1,6,-1
 173 834 l 1,0,-1
173 124 m 1,7,-1
 1138 124 l 1,8,-1
 1138 0 l 1,9,-1
 173 0 l 1,10,-1
 173 124 l 1,7,-1
EndSplineSet
EndChar

StartChar: notequal
Encoding: 8800 8800 200
Width: 1397
Flags: W
LayerCount: 2
Fore
SplineSet
513 435 m 1,0,-1
 241 435 l 1,1,-1
 241 562 l 1,2,-1
 560 562 l 1,3,-1
 713 986 l 1,4,-1
 241 986 l 1,5,-1
 241 1114 l 1,6,-1
 762 1114 l 1,7,-1
 839 1319 l 1,8,-1
 972 1319 l 1,9,-1
 894 1114 l 1,10,-1
 1156 1114 l 1,11,-1
 1156 986 l 1,12,-1
 845 986 l 1,13,-1
 692 562 l 1,14,-1
 1156 562 l 1,15,-1
 1156 435 l 1,16,-1
 644 435 l 1,17,-1
 557 203 l 1,18,-1
 426 203 l 1,19,-1
 513 435 l 1,0,-1
EndSplineSet
EndChar

StartChar: lozenge
Encoding: 9674 9674 201
Width: 1224
Flags: W
LayerCount: 2
Fore
SplineSet
74 762 m 1,0,-1
 74 775 l 1,1,-1
 610 1516 l 1,2,-1
 614 1516 l 1,3,-1
 1149 775 l 1,4,-1
 1149 762 l 1,5,-1
 614 0 l 1,6,-1
 609 0 l 1,7,-1
 74 762 l 1,0,-1
613 224 m 1,8,-1
 983 768 l 1,9,-1
 983 772 l 1,10,-1
 613 1296 l 1,11,-1
 610 1296 l 1,12,-1
 239 772 l 1,13,-1
 239 765 l 1,14,-1
 610 224 l 1,15,-1
 613 224 l 1,8,-1
EndSplineSet
EndChar

StartChar: Omega
Encoding: 8486 8486 202
Width: 1805
Flags: W
LayerCount: 2
Fore
SplineSet
207 118 m 1,0,-1
 559 118 l 1,1,2
 491 169 491 169 426 247.5 c 128,-1,3
 361 326 361 326 309.5 424.5 c 128,-1,4
 258 523 258 523 226.5 636 c 128,-1,5
 195 749 195 749 196 869 c 0,6,7
 196 984 196 984 224 1079 c 128,-1,8
 252 1174 252 1174 301 1249 c 128,-1,9
 350 1324 350 1324 416.5 1379.5 c 128,-1,10
 483 1435 483 1435 561 1472 c 128,-1,11
 639 1509 639 1509 724.5 1527 c 128,-1,12
 810 1545 810 1545 897 1545 c 0,13,14
 1043 1545 1043 1545 1168 1501 c 128,-1,15
 1293 1457 1293 1457 1385 1371 c 128,-1,16
 1477 1285 1477 1285 1529.5 1159 c 128,-1,17
 1582 1033 1582 1033 1582 869 c 0,18,19
 1582 749 1582 749 1554.5 637 c 128,-1,20
 1527 525 1527 525 1480 428 c 128,-1,21
 1433 331 1433 331 1369 252 c 128,-1,22
 1305 173 1305 173 1232 118 c 1,23,-1
 1617 118 l 1,24,-1
 1617 0 l 1,25,-1
 1056 0 l 1,26,-1
 1055 114 l 1,27,28
 1123 155 1123 155 1187 225.5 c 128,-1,29
 1251 296 1251 296 1301 392 c 128,-1,30
 1351 488 1351 488 1381.5 607 c 128,-1,31
 1412 726 1412 726 1412 863 c 0,32,33
 1412 1013 1412 1013 1366.5 1119 c 128,-1,34
 1321 1225 1321 1225 1248 1292 c 128,-1,35
 1175 1359 1175 1359 1082.5 1390 c 128,-1,36
 990 1421 990 1421 897 1421 c 0,37,38
 795 1421 795 1421 699.5 1388 c 128,-1,39
 604 1355 604 1355 529.5 1286 c 128,-1,40
 455 1217 455 1217 410.5 1112 c 128,-1,41
 366 1007 366 1007 366 863 c 0,42,43
 366 773 366 773 382 690.5 c 128,-1,44
 398 608 398 608 425.5 533.5 c 128,-1,45
 453 459 453 459 489.5 394.5 c 128,-1,46
 526 330 526 330 567.5 277 c 128,-1,47
 609 224 609 224 652.5 182.5 c 128,-1,48
 696 141 696 141 738 114 c 1,49,-1
 738 0 l 1,50,-1
 207 0 l 1,51,-1
 207 118 l 1,0,-1
EndSplineSet
EndChar

StartChar: radical
Encoding: 8730 8730 203
Width: 1602
Flags: W
LayerCount: 2
Fore
SplineSet
89 599 m 1,0,-1
 278 714 l 1,1,-1
 424 714 l 1,2,-1
 774 -133 l 1,3,-1
 1399 1870 l 1,4,-1
 1564 1870 l 1,5,-1
 849 -354 l 1,6,-1
 713 -354 l 1,7,-1
 305 566 l 1,8,-1
 162 478 l 1,9,-1
 89 599 l 1,0,-1
EndSplineSet
EndChar

StartChar: summation
Encoding: 8721 8721 204
Width: 1498
Flags: W
LayerCount: 2
Fore
SplineSet
768 680 m 1,0,-1
 195 1459 l 1,1,-1
 219 1522 l 1,2,-1
 1256 1522 l 1,3,-1
 1256 1396 l 1,4,-1
 416 1396 l 1,5,-1
 943 684 l 1,6,-1
 428 -51 l 1,7,-1
 1269 -51 l 1,8,-1
 1269 -171 l 1,9,-1
 215 -170 l 1,10,-1
 195 -128 l 1,11,-1
 768 680 l 1,0,-1
EndSplineSet
EndChar

StartChar: integral
Encoding: 8747 8747 205
Width: 1042
Flags: W
LayerCount: 2
Fore
SplineSet
165 -287 m 1,0,1
 175 -299 175 -299 194.5 -317.5 c 128,-1,2
 214 -336 214 -336 243 -352.5 c 128,-1,3
 272 -369 272 -369 311.5 -381 c 128,-1,4
 351 -393 351 -393 401 -393 c 0,5,6
 462 -393 462 -393 512.5 -375.5 c 128,-1,7
 563 -358 563 -358 599 -316.5 c 128,-1,8
 635 -275 635 -275 655 -205.5 c 128,-1,9
 675 -136 675 -136 675 -32 c 0,10,11
 675 68 675 68 643.5 169.5 c 128,-1,12
 612 271 612 271 564.5 374 c 128,-1,13
 517 477 517 477 461.5 580.5 c 128,-1,14
 406 684 406 684 358.5 788.5 c 128,-1,15
 311 893 311 893 279.5 998 c 128,-1,16
 248 1103 248 1103 248 1208 c 0,17,18
 248 1312 248 1312 274.5 1399.5 c 128,-1,19
 301 1487 301 1487 354.5 1550 c 128,-1,20
 408 1613 408 1613 487.5 1648.5 c 128,-1,21
 567 1684 567 1684 673 1684 c 0,22,23
 716 1684 716 1684 759.5 1677.5 c 128,-1,24
 803 1671 803 1671 842 1655.5 c 128,-1,25
 881 1640 881 1640 914 1614.5 c 128,-1,26
 947 1589 947 1589 969 1552 c 1,27,-1
 882 1466 l 1,28,29
 873 1481 873 1481 855 1497.5 c 128,-1,30
 837 1514 837 1514 810.5 1527.5 c 128,-1,31
 784 1541 784 1541 748.5 1550 c 128,-1,32
 713 1559 713 1559 670 1559 c 0,33,34
 600 1559 600 1559 549.5 1533.5 c 128,-1,35
 499 1508 499 1508 466 1462 c 128,-1,36
 433 1416 433 1416 417.5 1351 c 128,-1,37
 402 1286 402 1286 402 1207 c 0,38,39
 402 1107 402 1107 433.5 1006 c 128,-1,40
 465 905 465 905 512 802.5 c 128,-1,41
 559 700 559 700 614.5 597 c 128,-1,42
 670 494 670 494 717 389.5 c 128,-1,43
 764 285 764 285 795.5 180 c 128,-1,44
 827 75 827 75 827 -31 c 0,45,46
 827 -136 827 -136 804.5 -225 c 128,-1,47
 782 -314 782 -314 733 -379.5 c 128,-1,48
 684 -445 684 -445 607 -481.5 c 128,-1,49
 530 -518 530 -518 421 -518 c 0,50,51
 372 -518 372 -518 324 -509 c 128,-1,52
 276 -500 276 -500 233 -483 c 128,-1,53
 190 -466 190 -466 156 -442.5 c 128,-1,54
 122 -419 122 -419 101 -389 c 1,55,-1
 165 -287 l 1,56,-1
 165 -287 l 1,0,1
EndSplineSet
EndChar

StartChar: pi
Encoding: 960 960 206
Width: 1556
Flags: W
LayerCount: 2
Fore
SplineSet
198 70 m 1,0,1
 212 73 212 73 246 87.5 c 128,-1,2
 280 102 280 102 320 131 c 0,3,4
 365 165 365 165 391 202 c 128,-1,5
 417 239 417 239 431 282.5 c 128,-1,6
 445 326 445 326 451 376.5 c 128,-1,7
 457 427 457 427 462 487 c 2,8,-1
 499 1000 l 1,9,-1
 429 1000 l 2,10,11
 387 1000 387 1000 351 990 c 128,-1,12
 315 980 315 980 287.5 963.5 c 128,-1,13
 260 947 260 947 241 924 c 128,-1,14
 222 901 222 901 214 876 c 1,15,-1
 128 915 l 1,16,17
 128 924 128 924 131.5 937.5 c 128,-1,18
 135 951 135 951 140 966.5 c 128,-1,19
 145 982 145 982 152.5 997.5 c 128,-1,20
 160 1013 160 1013 168 1026 c 0,21,22
 210 1087 210 1087 281 1113.5 c 128,-1,23
 352 1140 352 1140 455 1140 c 2,24,-1
 1178 1140 l 2,25,26
 1240 1140 1240 1140 1278 1156 c 128,-1,27
 1316 1172 1316 1172 1333 1215 c 1,28,-1
 1443 1215 l 1,29,30
 1433 1103 1433 1103 1369 1051 c 128,-1,31
 1305 999 1305 999 1174 999 c 2,32,-1
 1127 999 l 1,33,-1
 1092 251 l 2,34,35
 1089 186 1089 186 1110 146.5 c 128,-1,36
 1131 107 1131 107 1179 107 c 0,37,38
 1209 107 1209 107 1236 123.5 c 128,-1,39
 1263 140 1263 140 1286.5 164.5 c 128,-1,40
 1310 189 1310 189 1327.5 218.5 c 128,-1,41
 1345 248 1345 248 1355 275 c 1,42,-1
 1438 239 l 1,43,44
 1430 193 1430 193 1404.5 146 c 128,-1,45
 1379 99 1379 99 1338.5 61.5 c 128,-1,46
 1298 24 1298 24 1245.5 0 c 128,-1,47
 1193 -24 1193 -24 1132 -24 c 0,48,49
 1078 -24 1078 -24 1040 -5.5 c 128,-1,50
 1002 13 1002 13 978.5 48.5 c 128,-1,51
 955 84 955 84 946 134.5 c 128,-1,52
 937 185 937 185 940 249 c 1,53,-1
 990 999 l 1,54,-1
 640 1000 l 1,55,-1
 608 428 l 2,56,57
 603 342 603 342 590.5 284 c 128,-1,58
 578 226 578 226 557.5 185 c 128,-1,59
 537 144 537 144 509.5 113.5 c 128,-1,60
 482 83 482 83 448 52 c 0,61,62
 391 0 391 0 301 -24 c 1,63,-1
 198 70 l 1,64,-1
 198 70 l 1,0,1
EndSplineSet
EndChar

StartChar: product
Encoding: 8719 8719 207
Width: 1593
Flags: W
LayerCount: 2
Fore
SplineSet
307 1396 m 1,0,-1
 111 1396 l 1,1,-1
 111 1522 l 1,2,-1
 1481 1522 l 1,3,-1
 1481 1396 l 1,4,-1
 1285 1396 l 1,5,-1
 1285 -171 l 1,6,-1
 1115 -171 l 1,7,-1
 1115 1395 l 1,8,-1
 478 1395 l 1,9,-1
 478 -171 l 1,10,-1
 307 -171 l 1,11,-1
 307 1396 l 1,0,-1
EndSplineSet
EndChar

StartChar: partialdiff
Encoding: 8706 8706 208
Width: 1366
Flags: W
LayerCount: 2
Fore
SplineSet
164 437 m 0,0,1
 155 580 155 580 200 692.5 c 128,-1,2
 245 805 245 805 328 883 c 128,-1,3
 411 961 411 961 524 1002 c 128,-1,4
 637 1043 637 1043 766 1043 c 0,5,6
 844 1043 844 1043 915 1031.5 c 128,-1,7
 986 1020 986 1020 1056 994 c 1,8,9
 1045 1109 1045 1109 1012 1212 c 128,-1,10
 979 1315 979 1315 916 1392 c 128,-1,11
 853 1469 853 1469 757 1514 c 128,-1,12
 661 1559 661 1559 524 1559 c 0,13,14
 483 1559 483 1559 442 1553 c 128,-1,15
 401 1547 401 1547 363.5 1537.5 c 128,-1,16
 326 1528 326 1528 294.5 1514.5 c 128,-1,17
 263 1501 263 1501 241 1486 c 1,18,-1
 185 1582 l 1,19,20
 220 1608 220 1608 265 1627 c 128,-1,21
 310 1646 310 1646 359.5 1659 c 128,-1,22
 409 1672 409 1672 459.5 1678 c 128,-1,23
 510 1684 510 1684 555 1684 c 0,24,25
 677 1684 677 1684 773.5 1651.5 c 128,-1,26
 870 1619 870 1619 943.5 1561.5 c 128,-1,27
 1017 1504 1017 1504 1068.5 1426 c 128,-1,28
 1120 1348 1120 1348 1153 1256.5 c 128,-1,29
 1186 1165 1186 1165 1202 1064 c 128,-1,30
 1218 963 1218 963 1220 861 c 0,31,32
 1222 750 1222 750 1212 641 c 128,-1,33
 1202 532 1202 532 1177 433 c 128,-1,34
 1152 334 1152 334 1109.5 249.5 c 128,-1,35
 1067 165 1067 165 1004 103 c 128,-1,36
 941 41 941 41 855.5 6 c 128,-1,37
 770 -29 770 -29 659 -29 c 0,38,39
 556 -29 556 -29 468 4 c 128,-1,40
 380 37 380 37 314.5 97.5 c 128,-1,41
 249 158 249 158 209.5 244 c 128,-1,42
 170 330 170 330 164 437 c 0,0,1
325 463 m 0,43,44
 330 380 330 380 353.5 311.5 c 128,-1,45
 377 243 377 243 419.5 194.5 c 128,-1,46
 462 146 462 146 525.5 120 c 128,-1,47
 589 94 589 94 673 94 c 0,48,49
 759 95 759 95 821 129.5 c 128,-1,50
 883 164 883 164 926.5 221.5 c 128,-1,51
 970 279 970 279 996.5 353.5 c 128,-1,52
 1023 428 1023 428 1038 508 c 128,-1,53
 1053 588 1053 588 1058 668 c 128,-1,54
 1063 748 1063 748 1063 816 c 2,55,-1
 1063 864 l 1,56,57
 992 901 992 901 916.5 913.5 c 128,-1,58
 841 926 841 926 753 926 c 0,59,60
 674 926 674 926 595 897.5 c 128,-1,61
 516 869 516 869 453.5 811.5 c 128,-1,62
 391 754 391 754 354.5 667 c 128,-1,63
 318 580 318 580 325 463 c 0,43,44
EndSplineSet
EndChar

StartChar: infinity
Encoding: 8734 8734 209
Width: 1831
Flags: W
LayerCount: 2
Fore
SplineSet
505 230 m 0,0,1
 407 228 407 228 331 258.5 c 128,-1,2
 255 289 255 289 203 340.5 c 128,-1,3
 151 392 151 392 124 459.5 c 128,-1,4
 97 527 97 527 97 601 c 0,5,6
 97 700 97 700 129 775.5 c 128,-1,7
 161 851 161 851 216.5 901.5 c 128,-1,8
 272 952 272 952 346.5 978 c 128,-1,9
 421 1004 421 1004 507 1004 c 0,10,11
 582 1004 582 1004 643 981 c 128,-1,12
 704 958 704 958 754.5 919.5 c 128,-1,13
 805 881 805 881 845.5 832 c 128,-1,14
 886 783 886 783 921 731 c 1,15,16
 954 781 954 781 997 829.5 c 128,-1,17
 1040 878 1040 878 1091.5 916.5 c 128,-1,18
 1143 955 1143 955 1203 979 c 128,-1,19
 1263 1003 1263 1003 1330 1004 c 0,20,21
 1435 1005 1435 1005 1511.5 973 c 128,-1,22
 1588 941 1588 941 1637 888.5 c 128,-1,23
 1686 836 1686 836 1709.5 769 c 128,-1,24
 1733 702 1733 702 1733 633 c 0,25,26
 1733 540 1733 540 1705 465 c 128,-1,27
 1677 390 1677 390 1623.5 337.5 c 128,-1,28
 1570 285 1570 285 1493 257 c 128,-1,29
 1416 229 1416 229 1318 229 c 0,30,31
 1244 229 1244 229 1185 251.5 c 128,-1,32
 1126 274 1126 274 1077.5 311.5 c 128,-1,33
 1029 349 1029 349 989.5 397 c 128,-1,34
 950 445 950 445 916 496 c 1,35,36
 883 446 883 446 840 398.5 c 128,-1,37
 797 351 797 351 745.5 313.5 c 128,-1,38
 694 276 694 276 633.5 253.5 c 128,-1,39
 573 231 573 231 505 230 c 0,0,1
995 620 m 1,40,41
 1024 575 1024 575 1060 526 c 128,-1,42
 1096 477 1096 477 1139.5 437 c 128,-1,43
 1183 397 1183 397 1234 371 c 128,-1,44
 1285 345 1285 345 1344 345 c 0,45,46
 1407 345 1407 345 1452.5 370 c 128,-1,47
 1498 395 1498 395 1526.5 434 c 128,-1,48
 1555 473 1555 473 1568.5 522 c 128,-1,49
 1582 571 1582 571 1582 619 c 256,50,51
 1582 667 1582 667 1566.5 713.5 c 128,-1,52
 1551 760 1551 760 1518.5 796.5 c 128,-1,53
 1486 833 1486 833 1435 856 c 128,-1,54
 1384 879 1384 879 1313 879 c 0,55,56
 1262 879 1262 879 1216 856 c 128,-1,57
 1170 833 1170 833 1130.5 796 c 128,-1,58
 1091 759 1091 759 1057 712.5 c 128,-1,59
 1023 666 1023 666 995 620 c 1,40,41
522 346 m 0,60,61
 568 346 568 346 611 365.5 c 128,-1,62
 654 385 654 385 694.5 419.5 c 128,-1,63
 735 454 735 454 772.5 501.5 c 128,-1,64
 810 549 810 549 845 605 c 1,65,66
 817 650 817 650 784 698 c 128,-1,67
 751 746 751 746 711 786.5 c 128,-1,68
 671 827 671 827 624 853 c 128,-1,69
 577 879 577 879 521 879 c 0,70,71
 452 879 452 879 400.5 856.5 c 128,-1,72
 349 834 349 834 315.5 796.5 c 128,-1,73
 282 759 282 759 265 710 c 128,-1,74
 248 661 248 661 248 609 c 0,75,76
 248 560 248 560 263 512.5 c 128,-1,77
 278 465 278 465 311 428 c 128,-1,78
 344 391 344 391 396 368.5 c 128,-1,79
 448 346 448 346 522 346 c 0,60,61
EndSplineSet
EndChar

StartChar: dotaccent.cap
Encoding: 65546 -1 221
Width: 330
Flags: W
LayerCount: 2
Fore
SplineSet
157 1703 m 0,0,1
 113 1703 113 1703 82 1730 c 128,-1,2
 51 1757 51 1757 51 1811 c 0,3,4
 51 1838 51 1838 61.5 1861 c 128,-1,5
 72 1884 72 1884 89 1900 c 128,-1,6
 106 1916 106 1916 128 1925 c 128,-1,7
 150 1934 150 1934 173 1934 c 0,8,9
 227 1934 227 1934 252.5 1904 c 128,-1,10
 278 1874 278 1874 278 1826 c 0,11,12
 278 1797 278 1797 268 1774 c 128,-1,13
 258 1751 258 1751 241.5 1735.5 c 128,-1,14
 225 1720 225 1720 203 1711.5 c 128,-1,15
 181 1703 181 1703 157 1703 c 0,0,1
EndSplineSet
EndChar

StartChar: Eogonek
Encoding: 280 280 222
Width: 1193
Flags: W
LayerCount: 2
Fore
SplineSet
201 1522 m 1,0,-1
 1059 1522 l 1,1,-1
 1059 1391 l 1,2,-1
 370 1391 l 1,3,-1
 370 852 l 1,4,-1
 873 852 l 1,5,-1
 873 721 l 1,6,-1
 370 721 l 1,7,-1
 370 133 l 1,8,-1
 1132 133 l 1,9,-1
 1132 0 l 1,10,-1
 1053 0 l 1,11,12
 1012 -21 1012 -21 965 -51 c 128,-1,13
 918 -81 918 -81 878 -117 c 128,-1,14
 838 -153 838 -153 811.5 -194.5 c 128,-1,15
 785 -236 785 -236 786 -280 c 0,16,17
 786 -315 786 -315 798 -338 c 128,-1,18
 810 -361 810 -361 830 -374.5 c 128,-1,19
 850 -388 850 -388 877 -393.5 c 128,-1,20
 904 -399 904 -399 935 -399 c 0,21,22
 973 -398 973 -398 1014 -388 c 128,-1,23
 1055 -378 1055 -378 1094 -358 c 1,24,-1
 1094 -450 l 1,25,26
 1074 -465 1074 -465 1047 -477 c 128,-1,27
 1020 -489 1020 -489 989.5 -496.5 c 128,-1,28
 959 -504 959 -504 926.5 -508 c 128,-1,29
 894 -512 894 -512 863 -512 c 0,30,31
 813 -512 813 -512 769 -501 c 128,-1,32
 725 -490 725 -490 692.5 -466.5 c 128,-1,33
 660 -443 660 -443 641 -406.5 c 128,-1,34
 622 -370 622 -370 621 -319 c 1,35,36
 621 -267 621 -267 647.5 -218.5 c 128,-1,37
 674 -170 674 -170 716.5 -128.5 c 128,-1,38
 759 -87 759 -87 812 -54 c 128,-1,39
 865 -21 865 -21 918 0 c 1,40,-1
 201 0 l 1,41,-1
 201 1522 l 1,0,-1
EndSplineSet
EndChar

StartChar: macron.cap
Encoding: 65547 -1 224
Width: 643
Flags: W
LayerCount: 2
Fore
SplineSet
50 1870 m 1,0,-1
 593 1870 l 1,1,-1
 593 1747 l 1,2,-1
 50 1747 l 1,3,-1
 50 1870 l 1,0,-1
EndSplineSet
EndChar

StartChar: gcommaaccent
Encoding: 291 291 261
Width: 1213
Flags: W
LayerCount: 2
Fore
SplineSet
577 1331 m 1,0,1
 557 1339 557 1339 538.5 1357.5 c 128,-1,2
 520 1376 520 1376 506 1403 c 128,-1,3
 492 1430 492 1430 483.5 1464.5 c 128,-1,4
 475 1499 475 1499 475 1538 c 0,5,6
 475 1591 475 1591 490.5 1636.5 c 128,-1,7
 506 1682 506 1682 529 1717 c 128,-1,8
 552 1752 552 1752 579.5 1775.5 c 128,-1,9
 607 1799 607 1799 630 1809 c 1,10,-1
 687 1777 l 1,11,-1
 687 1756 l 1,12,13
 675 1747 675 1747 662.5 1729.5 c 128,-1,14
 650 1712 650 1712 640.5 1689 c 128,-1,15
 631 1666 631 1666 625 1637.5 c 128,-1,16
 619 1609 619 1609 619 1578 c 0,17,18
 619 1552 619 1552 625.5 1528 c 128,-1,19
 632 1504 632 1504 642.5 1485 c 128,-1,20
 653 1466 653 1466 666.5 1453.5 c 128,-1,21
 680 1441 680 1441 695 1438 c 1,22,-1
 695 1400 l 1,23,-1
 577 1331 l 1,0,1
113 -194 m 0,24,25
 113 -151 113 -151 128 -113.5 c 128,-1,26
 143 -76 143 -76 166 -45.5 c 128,-1,27
 189 -15 189 -15 217 8 c 128,-1,28
 245 31 245 31 271 46 c 1,29,30
 244 61 244 61 227 80.5 c 128,-1,31
 210 100 210 100 200.5 122 c 128,-1,32
 191 144 191 144 188 168 c 128,-1,33
 185 192 185 192 185 217 c 0,34,35
 186 275 186 275 223 335.5 c 128,-1,36
 260 396 260 396 321 440 c 1,37,38
 234 488 234 488 183.5 569 c 128,-1,39
 133 650 133 650 133 758 c 0,40,41
 133 860 133 860 167.5 934 c 128,-1,42
 202 1008 202 1008 262 1056.5 c 128,-1,43
 322 1105 322 1105 402.5 1129.5 c 128,-1,44
 483 1154 483 1154 575 1156 c 0,45,46
 653 1158 653 1158 725 1141 c 128,-1,47
 797 1124 797 1124 856 1088 c 1,48,49
 874 1097 874 1097 899 1106 c 128,-1,50
 924 1115 924 1115 953 1122 c 128,-1,51
 982 1129 982 1129 1013 1133 c 128,-1,52
 1044 1137 1044 1137 1075 1137 c 2,53,-1
 1182 1137 l 1,54,-1
 1182 1003 l 1,55,-1
 950 1003 l 1,56,57
 982 959 982 959 1000.5 903 c 128,-1,58
 1019 847 1019 847 1019 778 c 0,59,60
 1019 681 1019 681 984 607 c 128,-1,61
 949 533 949 533 888 482.5 c 128,-1,62
 827 432 827 432 744.5 406 c 128,-1,63
 662 380 662 380 568 380 c 0,64,65
 484 380 484 380 414 401 c 1,66,67
 400 390 400 390 386 374.5 c 128,-1,68
 372 359 372 359 361.5 340.5 c 128,-1,69
 351 322 351 322 344.5 301 c 128,-1,70
 338 280 338 280 338 259 c 0,71,72
 338 223 338 223 346.5 198.5 c 128,-1,73
 355 174 355 174 374.5 159 c 128,-1,74
 394 144 394 144 425 138 c 128,-1,75
 456 132 456 132 502 132 c 2,76,-1
 749 132 l 2,77,78
 872 132 872 132 948 108 c 128,-1,79
 1024 84 1024 84 1067 44 c 128,-1,80
 1110 4 1110 4 1125 -46.5 c 128,-1,81
 1140 -97 1140 -97 1140 -151 c 0,82,83
 1140 -236 1140 -236 1097 -304 c 128,-1,84
 1054 -372 1054 -372 979 -419.5 c 128,-1,85
 904 -467 904 -467 804 -492 c 128,-1,86
 704 -517 704 -517 590 -517 c 0,87,88
 481 -517 481 -517 393 -498.5 c 128,-1,89
 305 -480 305 -480 242.5 -440.5 c 128,-1,90
 180 -401 180 -401 146.5 -340 c 128,-1,91
 113 -279 113 -279 113 -194 c 0,24,25
572 492 m 0,92,93
 634 492 634 492 685.5 507 c 128,-1,94
 737 522 737 522 774.5 555.5 c 128,-1,95
 812 589 812 589 832.5 642.5 c 128,-1,96
 853 696 853 696 853 772 c 0,97,98
 853 908 853 908 780.5 975.5 c 128,-1,99
 708 1043 708 1043 583 1042 c 0,100,101
 527 1042 527 1042 476 1028.5 c 128,-1,102
 425 1015 425 1015 386 983.5 c 128,-1,103
 347 952 347 952 323.5 899 c 128,-1,104
 300 846 300 846 300 766 c 0,105,106
 300 707 300 707 317.5 657 c 128,-1,107
 335 607 335 607 369 570.5 c 128,-1,108
 403 534 403 534 454 513 c 128,-1,109
 505 492 505 492 572 492 c 0,92,93
276 -174 m 0,110,111
 276 -294 276 -294 354.5 -348 c 128,-1,112
 433 -402 433 -402 596 -402 c 0,113,114
 669 -402 669 -402 738.5 -389 c 128,-1,115
 808 -376 808 -376 861.5 -349 c 128,-1,116
 915 -322 915 -322 947.5 -281.5 c 128,-1,117
 980 -241 980 -241 980 -186 c 0,118,119
 980 -137 980 -137 965 -101.5 c 128,-1,120
 950 -66 950 -66 915 -43.5 c 128,-1,121
 880 -21 880 -21 822.5 -10.5 c 128,-1,122
 765 0 765 0 680 0 c 2,123,-1
 526 0 l 2,124,125
 427 0 427 0 368 10 c 1,126,127
 351 -4 351 -4 334.5 -21.5 c 128,-1,128
 318 -39 318 -39 305 -61.5 c 128,-1,129
 292 -84 292 -84 284 -112 c 128,-1,130
 276 -140 276 -140 276 -174 c 0,110,111
EndSplineSet
EndChar

